<svg width="94" height="93" viewBox="0 0 94 93" fill="none" xmlns="http://www.w3.org/2000/svg">
<path d="M12.136 47.8819C13.2703 49.0175 13.2692 50.8577 12.1335 51.9919L11.5375 52.5872C11.0285 53.0956 11.0285 53.9184 11.5376 54.4269C12.0486 54.9373 12.8785 54.9373 13.3895 54.4269L19.945 47.8794C21.0807 46.7451 22.9208 46.7462 24.0551 47.8819C25.1894 49.0175 25.1882 50.8577 24.0526 51.9919L17.4971 58.5394C14.7167 61.3164 10.2103 61.3164 7.42999 58.5394C4.64768 55.7605 4.64768 51.2535 7.42999 48.4746L8.02595 47.8794C9.1616 46.7451 11.0017 46.7462 12.136 47.8819Z" fill="#F3F3F3"/>
<path d="M30.9456 51.7424C32.0805 52.8774 32.0805 54.7175 30.9456 55.8525L22.7426 64.0555C21.6076 65.1904 19.7675 65.1904 18.6325 64.0555C17.4976 62.9205 17.4976 61.0804 18.6325 59.9454L26.8355 51.7424C27.9705 50.6074 29.8106 50.6074 30.9456 51.7424Z" fill="#F3F3F3"/>
<path d="M41.7015 62.4852C42.8364 63.6201 42.8364 65.4603 41.7015 66.5952L33.5545 74.7421C32.4196 75.8771 30.5794 75.8771 29.4445 74.7421C28.3095 73.6072 28.3095 71.767 29.4445 70.6321L37.5914 62.4852C38.7263 61.3502 40.5665 61.3502 41.7015 62.4852Z" fill="#F3F3F3"/>
<path d="M29.4544 64.0191C30.5766 65.1666 30.5562 67.0066 29.4087 68.1289L22.7841 74.6077C21.6365 75.7299 19.7965 75.7094 18.6743 74.5619C17.552 73.4144 17.5725 71.5744 18.72 70.4521L25.3446 63.9734C26.4921 62.8511 28.3321 62.8716 29.4544 64.0191Z" fill="#F3F3F3"/>
<path d="M45.4741 69.4641C46.6083 70.5997 46.6072 72.4399 45.4716 73.5741L38.9161 80.1217C38.407 80.6301 38.407 81.453 38.9161 81.9614C39.4271 82.4718 40.2571 82.4718 40.7681 81.9614L41.364 81.3661C42.4997 80.2319 44.3398 80.233 45.4741 81.3687C46.6083 82.5043 46.6072 84.3444 45.4716 85.4787L44.8756 86.0739C42.0953 88.8509 37.5889 88.8509 34.8085 86.0739C32.0262 83.295 32.0262 78.788 34.8085 76.0091L41.364 69.4616C42.4997 68.3273 44.3398 68.3284 45.4741 69.4641Z" fill="#F3F3F3"/>
<path fill-rule="evenodd" clip-rule="evenodd" d="M70.2185 4.84396L70.7365 4.84418L72.8494 4.84417C75.7693 4.84404 78.2476 4.84393 80.2244 5.10859C82.3275 5.39015 84.2931 6.0181 85.8824 7.60075C87.4735 9.18508 88.1064 11.1474 88.3899 13.2474C88.656 15.2183 88.6559 17.6884 88.6558 20.5943L88.6558 22.7002L88.656 23.2191C88.6582 26.7104 88.6599 29.267 87.6853 31.6101C86.7111 33.952 84.8963 35.7569 82.4154 38.2241L82.0469 38.5907L73.2663 47.3344L73.4184 47.569C74.7393 49.6066 75.8213 51.2755 76.6046 52.7188C77.4199 54.2209 78.0128 55.6544 78.2507 57.2528C78.6291 59.7948 78.2866 62.4053 77.2853 64.8011C76.9034 65.715 76.2518 66.6543 75.6055 67.4867C74.9241 68.3644 74.0943 69.3164 73.208 70.2811C71.4451 72.1996 69.3308 74.305 67.4607 76.1673L67.4334 76.1944L67.1501 76.4766C64.5371 79.0786 60.0039 78.2413 58.6057 74.7381C57.8349 72.807 57.5338 72.0658 57.1589 71.3832C56.8085 70.7451 56.4064 70.1364 55.9566 69.5632C55.4824 68.9589 54.9274 68.3974 53.5008 66.9766L51.8617 65.5412C51.5867 65.5707 51.3081 65.5857 51.0254 65.5857C48.7822 65.5857 46.9467 64.6471 45.2572 63.3635C43.6707 62.1581 41.9176 60.4123 39.8534 58.3566L34.9463 53.4701C32.8822 51.4149 31.1289 49.6692 29.9181 48.0889C28.6293 46.4069 27.6819 44.5733 27.6819 42.3282C27.6819 41.9895 27.7036 41.657 27.746 41.3302L25.082 38.6775C24.9181 38.5143 24.8548 38.4513 24.7925 38.391C23.5674 37.2037 22.1257 36.2592 20.5443 35.6084C20.464 35.5753 20.3808 35.5424 20.1654 35.4571L18.8889 34.9519C15.2205 33.5001 14.2281 28.7654 17.0334 25.972L17.0605 25.9451C18.9307 24.0828 21.0451 21.9773 22.9717 20.2219C23.9404 19.3392 24.8964 18.5131 25.7775 17.8347C26.6137 17.191 27.5554 16.5435 28.4703 16.1643C30.8716 15.1692 33.4867 14.8292 36.0325 15.205C37.6321 15.4411 39.0684 16.0297 40.5761 16.8412C42.0248 17.6209 43.7004 18.698 45.7471 20.0137L46.0018 20.1775L54.7962 11.4201L55.1624 11.0551C57.6422 8.58258 59.4533 6.77682 61.8016 5.80821C64.1487 4.84011 66.7092 4.84173 70.2185 4.84396ZM69.0564 51.5265C70.1466 53.2126 70.9291 54.4468 71.4961 55.4915C72.1387 56.6755 72.4015 57.4365 72.5016 58.1085C72.7193 59.5709 72.5273 61.1121 71.9223 62.5598C71.8489 62.7354 71.5923 63.1777 71.0143 63.9222C70.4714 64.6215 69.7609 65.4418 68.9279 66.3483C67.3584 68.0564 65.4686 69.9476 63.6677 71.7415C63.1329 70.4076 62.7425 69.4753 62.2537 68.5853C61.751 67.6699 61.1743 66.7969 60.5294 65.9751C59.8021 65.0482 58.9702 64.2199 57.6656 62.921L57.5251 62.7811C57.6559 62.6724 57.786 62.562 57.9157 62.4502C59.1932 61.3483 60.6239 59.9235 62.2691 58.2852L69.0564 51.5265ZM70.7365 10.6567C66.4856 10.6567 65.1667 10.7078 64.018 11.1816C62.8705 11.6548 61.9036 12.5455 58.8975 15.5388L39.1865 35.1669C37.5029 36.8434 36.2395 38.1035 35.2902 39.1856C34.3356 40.2737 33.8768 40.9876 33.6616 41.5222C33.539 41.8265 33.4944 42.0771 33.4944 42.3282C33.4944 42.7839 33.6383 43.3874 34.532 44.5538C35.4767 45.7868 36.9456 47.2582 39.1865 49.4896L39.4507 49.7528L44.3449 44.8793C45.4822 43.7467 47.3223 43.7506 48.4549 44.8879C49.5875 46.0253 49.5836 47.8654 48.4462 48.998L43.5695 53.8542L43.8164 54.1C46.057 56.3313 47.5349 57.7942 48.7736 58.7353C49.9447 59.625 50.5565 59.7732 51.0254 59.7732C51.265 59.7732 51.4993 59.7337 51.7714 59.6336C52.2994 59.4393 53.0126 59.0034 54.1192 58.0489C55.221 57.0984 56.5072 55.8201 58.2345 54.1L77.9455 34.472C80.953 31.4772 81.8451 30.516 82.3185 29.3778C82.7915 28.2408 82.8433 26.9357 82.8433 22.7002L82.8433 20.7905C82.8433 17.6345 82.837 15.561 82.6297 14.0251C82.4338 12.5741 82.1078 12.0448 81.7811 11.7195C81.4527 11.3924 80.9161 11.0655 79.4531 10.8697C77.9078 10.6628 75.8227 10.6567 72.6543 10.6567H70.7365ZM71.5956 21.8274C67.9047 18.152 61.9255 18.152 58.2345 21.8274C54.5367 25.5096 54.5367 31.4847 58.2345 35.1669C61.9255 38.8423 67.9047 38.8423 71.5956 35.1669C75.2934 31.4847 75.2934 25.5096 71.5956 21.8274ZM62.3359 25.9461C63.7589 24.5291 66.0712 24.5291 67.4943 25.9461C68.9105 27.3564 68.9105 29.6378 67.4943 31.0481C66.0712 32.4652 63.7589 32.4652 62.3359 31.0481C60.9196 29.6378 60.9196 27.3564 62.3359 25.9461ZM41.7846 24.3769C40.1016 23.2979 38.867 22.5222 37.8214 21.9595C36.6316 21.3191 35.8641 21.0556 35.1837 20.9552C33.7082 20.7374 32.1539 20.9297 30.6956 21.534C30.5162 21.6083 30.0706 21.8652 29.3232 22.4405C28.6207 22.9813 27.7968 23.6889 26.8864 24.5184C25.1789 26.0742 23.2891 27.9462 21.4949 29.7322L22.3043 30.0525L22.3238 30.0602C22.514 30.1355 22.6353 30.1834 22.7562 30.2332C25.0183 31.1641 27.0824 32.5159 28.8376 34.217C28.9318 34.3083 29.0244 34.4005 29.1701 34.5455L30.4876 35.8575C30.6292 35.6882 30.7738 35.5199 30.9208 35.3523C32.0141 34.1061 33.4155 32.7107 35.0228 31.1102L41.7846 24.3769Z" fill="#F3F3F3"/>
</svg>
