<svg width="94" height="93" viewBox="0 0 94 93" fill="none" xmlns="http://www.w3.org/2000/svg">
<path fill-rule="evenodd" clip-rule="evenodd" d="M43.1768 18.5986C43.844 17.7274 45.0554 16.4688 46.9995 16.4688C48.9436 16.4688 50.1551 17.7274 50.8222 18.5986C51.459 19.4301 52.1002 20.5811 52.7577 21.7611L53.2284 22.6056C53.3167 22.7641 53.3863 22.8887 53.4471 22.9954C53.553 23.0203 53.6762 23.0482 53.8301 23.083L54.7516 23.2915C56.0219 23.5785 57.2844 23.8638 58.2534 24.2457C59.3235 24.6674 60.7739 25.4886 61.3329 27.2862C61.8821 29.0522 61.1891 30.548 60.5839 31.5094C60.0237 32.3992 59.1724 33.3942 58.3009 34.4129L57.6783 35.1409C57.5447 35.2971 57.444 35.415 57.3591 35.517C57.3707 35.6577 57.3865 35.8218 57.4078 36.0411L57.5015 37.0078C57.6339 38.3715 57.7619 39.6894 57.715 40.7436C57.6657 41.8489 57.4004 43.5222 55.9002 44.6611C54.3524 45.836 52.6432 45.5799 51.5592 45.2693C50.5605 44.9832 49.3804 44.4394 48.1918 43.8918L47.3284 43.4942C47.1988 43.4345 47.0923 43.3855 46.9995 43.3435C46.9067 43.3855 46.8002 43.4345 46.6706 43.4942L45.8072 43.8918C44.6187 44.4394 43.4386 44.9832 42.4398 45.2693C41.3559 45.5799 39.6466 45.836 38.0989 44.6611C36.5986 43.5222 36.3333 41.8489 36.2841 40.7436C36.2371 39.6894 36.3651 38.3716 36.4975 37.0079L36.5912 36.0411C36.6125 35.8218 36.6283 35.6577 36.6399 35.517C36.555 35.415 36.4543 35.2971 36.3207 35.1409L35.6981 34.4129C34.8266 33.3942 33.9753 32.3992 33.4152 31.5094C32.8099 30.548 32.1169 29.0522 32.6661 27.2862C33.2251 25.4886 34.6755 24.6674 35.7456 24.2457C36.7147 23.8638 37.9771 23.5785 39.2474 23.2915L40.1689 23.083C40.3228 23.0482 40.446 23.0203 40.5519 22.9954C40.6127 22.8887 40.6823 22.7641 40.7706 22.6056L41.2414 21.7611C41.8988 20.5811 42.5401 19.4301 43.1768 18.5986ZM46.9995 23.3836C46.7742 23.7736 46.5237 24.2227 46.2285 24.7523L45.8476 25.4357L45.761 25.593C45.4567 26.1496 44.9528 27.0711 44.1125 27.709C43.2547 28.3602 42.2228 28.5843 41.6194 28.7153L41.4516 28.7522L40.7118 28.9196C40.033 29.0732 39.4801 29.1985 39.0073 29.3173C39.3148 29.6959 39.7143 30.1659 40.2339 30.7735L40.7382 31.3632L40.8543 31.4976C41.2726 31.9793 41.9478 32.7571 42.2601 33.7614C42.5687 34.7537 42.4623 35.7757 42.3951 36.4204L42.3766 36.6017L42.3004 37.3886C42.2297 38.1181 42.1747 38.7003 42.1381 39.1738C42.5419 38.996 43.0013 38.7846 43.547 38.5334L44.2396 38.2145L44.396 38.1412C44.9521 37.879 45.9197 37.4226 46.9995 37.4226C48.0793 37.4226 49.0469 37.879 49.6029 38.1412L49.7594 38.2145L50.452 38.5334C50.9977 38.7846 51.4571 38.996 51.8609 39.1738C51.8243 38.7003 51.7693 38.1181 51.6986 37.3885L51.6224 36.6017L51.6039 36.4204C51.5368 35.7757 51.4303 34.7537 51.7389 33.7614C52.0512 32.7572 52.7265 31.9793 53.1447 31.4976L53.2608 31.3632L53.7651 30.7734C54.2847 30.1659 54.6842 29.6959 54.9917 29.3173C54.5189 29.1985 53.966 29.0732 53.2872 28.9196L52.5474 28.7522L52.3796 28.7153C51.7762 28.5843 50.7443 28.3602 49.8865 27.709C49.0462 27.0711 48.5423 26.1496 48.238 25.593L48.1514 25.4357L47.7705 24.7523C47.4753 24.2227 47.2248 23.7736 46.9995 23.3836ZM42.1144 40.7321C42.1143 40.7323 42.1134 40.7284 42.1119 40.7199L42.1144 40.7321ZM51.8846 40.7321L51.8871 40.7199C51.8856 40.7284 51.8847 40.7323 51.8846 40.7321Z" fill="#F3F3F3"/>
<path fill-rule="evenodd" clip-rule="evenodd" d="M29.5558 6.22788C34.062 5.46758 39.9177 4.84375 47.0001 4.84375C54.0825 4.84375 59.9382 5.46758 64.4444 6.22788L64.967 6.31559C68.8816 6.97086 72.1353 7.51551 74.6794 10.6488C76.311 12.6584 76.8374 14.8301 76.9587 17.2562L78.864 17.8913C80.6586 18.4894 82.2316 19.0136 83.4795 19.5942C84.8286 20.2218 86.0649 21.0302 87.01 22.3415C87.9552 23.6529 88.3311 25.0814 88.4998 26.5597C88.6559 27.9272 88.6558 29.5852 88.6556 31.4769L88.6556 32.0396C88.6556 33.5965 88.6556 34.9718 88.5407 36.122C88.4161 37.3685 88.1403 38.5803 87.4511 39.7515C86.762 40.9226 85.8366 41.7523 84.8075 42.4665C83.8578 43.1256 82.6557 43.7934 81.2946 44.5494L71.062 50.2344C68.9718 54.347 66.1003 58.0137 62.1513 60.6623C58.7618 62.9356 54.7034 64.3745 49.9058 64.7849V72.6562H55.4478C58.6803 72.6562 61.4634 74.9379 62.0974 78.1076L62.9446 82.3438H70.2495C71.8546 82.3438 73.1558 83.6449 73.1558 85.25C73.1558 86.8551 71.8546 88.1562 70.2495 88.1562H23.7495C22.1444 88.1562 20.8433 86.8551 20.8433 85.25C20.8433 83.6449 22.1444 82.3438 23.7495 82.3438H31.0545L31.9017 78.1076C32.5357 74.9379 35.3188 72.6562 38.5513 72.6562H44.0933V64.7848C39.2962 64.3742 35.2381 62.9354 31.8489 60.6623C27.9002 58.0139 25.0289 54.3476 22.9388 50.2354L12.7043 44.5494C11.3432 43.7934 10.141 43.1256 9.19139 42.4665C8.16223 41.7523 7.23686 40.9226 6.54773 39.7515C5.85861 38.5803 5.58273 37.3685 5.45816 36.122C5.3432 34.9718 5.34324 33.5966 5.34329 32.0396L5.34327 31.4768C5.34311 29.5851 5.34297 27.9271 5.49905 26.5597C5.66779 25.0814 6.04369 23.6529 6.98883 22.3415C7.93397 21.0302 9.1703 20.2218 10.5194 19.5942C11.7673 19.0136 13.3402 18.4894 15.1348 17.8913L17.0415 17.2558C17.1629 14.8298 17.6893 12.6582 19.3209 10.6488C21.865 7.51551 25.1186 6.97086 29.0333 6.31559L29.5558 6.22788ZM36.9821 82.3438H57.017L56.3977 79.2475C56.3072 78.7947 55.9096 78.4688 55.4478 78.4688H38.5513C38.0895 78.4688 37.6919 78.7947 37.6013 79.2475L36.9821 82.3438ZM17.1701 23.3398L17.1174 23.3574C15.1357 24.018 13.8823 24.4404 12.9711 24.8643C12.1276 25.2567 11.8562 25.5292 11.7042 25.7401C11.5522 25.951 11.3796 26.2946 11.2741 27.2189C11.1601 28.2174 11.1557 29.54 11.1558 31.629L11.1558 31.91C11.1558 33.6351 11.1592 34.7171 11.2418 35.5439C11.318 36.3062 11.4436 36.6104 11.5573 36.8037C11.6711 36.997 11.876 37.2545 12.5054 37.6913C13.1881 38.1651 14.1323 38.6935 15.6403 39.5313L19.7698 41.8255C18.1129 35.7421 17.4475 29.231 17.1701 23.3398ZM74.2307 41.8246C75.8873 35.7416 76.5527 29.231 76.8301 23.3403L76.8814 23.3574C78.8632 24.018 80.1166 24.4404 81.0278 24.8643C81.8713 25.2567 82.1426 25.5292 82.2946 25.7401C82.4467 25.951 82.6193 26.2946 82.7248 27.2189C82.8388 28.2174 82.8431 29.54 82.8431 31.629L82.8431 31.91C82.843 33.6351 82.8397 34.7171 82.757 35.5439C82.6808 36.3062 82.5553 36.6104 82.4415 36.8037C82.3278 36.997 82.1228 37.2545 81.4935 37.6913C80.8108 38.1651 79.8666 38.6935 78.3586 39.5313L74.2307 41.8246ZM47.0001 10.6562C40.2601 10.6562 34.7281 11.2498 30.5229 11.9594C25.8461 12.7485 24.8636 13.0436 23.8333 14.3126C22.8178 15.5633 22.7214 16.7461 22.9299 21.9973C23.2774 30.7495 24.4319 40.1943 28.0075 47.3774C29.7725 50.9231 32.0801 53.8186 35.0866 55.835C38.0737 57.8385 41.9275 59.0938 47.0001 59.0938C52.0728 59.0938 55.9265 57.8385 58.9137 55.835C61.9201 53.8186 64.2277 50.9231 65.9927 47.3774C69.5683 40.1943 70.7229 30.7495 71.0703 21.9973C71.2788 16.7461 71.1824 15.5633 70.167 14.3126C69.1366 13.0436 68.1542 12.7485 63.4774 11.9594C59.2721 11.2498 53.7402 10.6562 47.0001 10.6562Z" fill="#F3F3F3"/>
</svg>
