<svg width="94" height="93" viewBox="0 0 94 93" fill="none" xmlns="http://www.w3.org/2000/svg">
<path fill-rule="evenodd" clip-rule="evenodd" d="M23.5147 56.8172C25.1197 56.8172 26.4209 58.1184 26.4209 59.7235V75.9572L29.2096 73.1685C30.3446 72.0335 32.1847 72.0335 33.3197 73.1685C34.4546 74.3034 34.4546 76.1435 33.3197 77.2785L25.5697 85.0285C24.4347 86.1635 22.5946 86.1635 21.4596 85.0285L13.7097 77.2785C12.5747 76.1435 12.5747 74.3034 13.7097 73.1685C14.8446 72.0335 16.6847 72.0335 17.8197 73.1685L20.6084 75.9572V59.7235C20.6084 58.1184 21.9096 56.8172 23.5147 56.8172ZM38.8971 57.6685C40.0321 56.5335 41.8722 56.5335 43.0072 57.6685L50.7572 65.4185C51.8921 66.5534 51.8921 68.3935 50.7572 69.5285C49.6222 70.6635 47.7821 70.6635 46.6471 69.5285L43.8584 66.7398V82.9735C43.8584 84.5786 42.5572 85.8797 40.9521 85.8797C39.3471 85.8797 38.0459 84.5786 38.0459 82.9735V66.7398L35.2572 69.5285C34.1222 70.6635 32.2821 70.6635 31.1471 69.5285C30.0122 68.3935 30.0122 66.5534 31.1471 65.4185L38.8971 57.6685Z" fill="#F3F3F3"/>
<path d="M77.4687 42.9063C77.4687 45.0464 75.7338 46.7813 73.5937 46.7813C71.4536 46.7813 69.7187 45.0464 69.7187 42.9063C69.7187 40.7662 71.4536 39.0313 73.5937 39.0313C75.7338 39.0313 77.4687 40.7662 77.4687 42.9063Z" fill="#F3F3F3"/>
<path fill-rule="evenodd" clip-rule="evenodd" d="M54.4374 9H42.3752C35.2539 8.99994 29.6133 8.99989 25.1989 9.5934C20.6557 10.2042 16.9786 11.4912 14.0787 14.3911C11.1788 17.291 9.8918 20.9682 9.28099 25.5113C8.68749 29.9257 8.68754 35.5663 8.6876 42.6876V43.1249C8.68757 45.9728 8.6329 51.4794 8.63747 55.6381C8.63977 57.7266 10.767 59.0764 12.6757 58.2287C13.7776 57.7393 14.4709 56.63 14.4587 55.4243C14.4231 51.9107 14.5001 46.5119 14.5001 42.9063C14.5001 35.5173 14.5063 30.268 15.0417 26.2858C15.5658 22.3872 16.5488 20.1411 18.1887 18.5011C19.8286 16.8612 22.0748 15.8782 25.9734 15.3541C29.9556 14.8187 35.2049 14.8125 42.5938 14.8125H54.2188C61.6077 14.8125 66.857 14.8187 70.8392 15.3541C74.7378 15.8782 76.9839 16.8612 78.6238 18.5011C80.5557 20.4329 81.5533 23.1769 81.9944 28.375H74.488C66.1753 28.375 59.0626 34.6818 59.0626 42.9063C59.0626 51.1307 66.1753 57.4375 74.488 57.4375H81.9944C81.5533 62.6356 80.5557 65.3796 78.6239 67.3114C76.9839 68.9513 74.7378 69.9343 70.8392 70.4584C66.857 70.9938 69.6077 71 62.2188 71C60.9299 71 59.9195 71 59.1297 71C57.5415 71 56.5442 72.3191 56.4845 73.9062C56.4248 75.4933 57.6953 76.8125 59.2835 76.8125H62.4374C69.5587 76.8126 67.1992 76.8126 71.6137 76.2191C76.1568 75.6083 79.834 74.3213 82.7339 71.4214C86.3159 67.8394 87.4574 63.0422 87.8718 56.8172C90.1087 55.8329 91.7977 53.7512 91.9838 51.1143C92.0003 50.8811 92.0001 50.6296 92 50.3966L92 50.3333V35.4792L92 35.4159C92.0001 35.1829 92.0003 34.9314 91.9838 34.6982C91.7977 32.0613 90.1087 29.9796 87.8718 28.9953C87.4574 22.7703 86.3159 17.9731 82.7339 14.3911C79.834 11.4912 76.1568 10.2042 71.6137 9.5934C67.1992 8.99989 61.5587 8.99994 54.4374 9ZM27.0938 24.5C25.4887 24.5 24.1876 25.8012 24.1876 27.4063C24.1876 29.0113 25.4887 30.3125 27.0938 30.3125H42.5938C44.1989 30.3125 45.5001 29.0113 45.5001 27.4063C45.5001 25.8012 44.1989 24.5 42.5938 24.5H27.0938ZM84.5729 34.1875C84.7404 34.1875 84.8436 34.1875 84.9224 34.1884C84.9978 34.1892 85.017 34.1904 85.017 34.1904C85.8157 34.239 86.1593 34.7781 86.1854 35.1024C86.1854 35.1024 86.1861 35.1267 86.1866 35.1618C86.1874 35.2305 86.1875 35.3222 86.1875 35.4792V50.3333C86.1875 50.4903 86.1874 50.582 86.1866 50.6507C86.1861 50.6857 86.1854 50.7101 86.1854 50.7101C86.1593 51.0343 85.8157 51.5735 85.017 51.6221L85.0082 51.6225C84.9963 51.6229 84.9707 51.6236 84.9224 51.6241C84.8436 51.625 84.7404 51.625 84.5729 51.625H74.488C68.9723 51.625 64.8751 47.5224 64.8751 42.9063C64.8751 38.2901 68.9723 34.1875 74.488 34.1875H84.5729Z" fill="#F3F3F3"/>
</svg>
