<svg width="24" height="24" viewBox="0 0 24 24" fill="none" xmlns="http://www.w3.org/2000/svg">
<path fill-rule="evenodd" clip-rule="evenodd" d="M10.3874 3.25H13.6116C14.6968 3.24998 15.5779 3.24997 16.2867 3.33473C17.0257 3.4231 17.6604 3.6112 18.215 4.04423C18.7696 4.47727 19.106 5.04733 19.371 5.74284C19.6251 6.40994 19.8388 7.26472 20.102 8.31749L20.5851 10.25H21.9995C22.4137 10.25 22.7495 10.5858 22.7495 11C22.7495 11.4142 22.4137 11.75 21.9995 11.75H20.0152C20.0043 11.7502 19.9935 11.7502 19.9827 11.75H4.01633C4.00553 11.7502 3.99469 11.7502 3.98383 11.75H1.99951C1.5853 11.75 1.24951 11.4142 1.24951 11C1.24951 10.5858 1.5853 10.25 1.99951 10.25H3.41393L3.89706 8.31749C4.16023 7.26472 4.37391 6.40994 4.62805 5.74284C4.89302 5.04733 5.22942 4.47727 5.78405 4.04423C6.33867 3.6112 6.9733 3.4231 7.71231 3.33473C8.42113 3.24997 9.30221 3.24998 10.3874 3.25ZM4.96009 10.25H19.0389L18.6581 8.72669C18.3808 7.61763 18.1877 6.85038 17.9692 6.27686C17.7579 5.72218 17.551 5.42889 17.2919 5.22654C17.0327 5.02419 16.698 4.89459 16.1086 4.82412C15.4992 4.75125 14.708 4.75 13.5649 4.75H10.4342C9.29098 4.75 8.4998 4.75125 7.89041 4.82412C7.30105 4.89459 6.96633 5.02419 6.70716 5.22654C6.448 5.42889 6.24109 5.72218 6.02978 6.27686C5.81128 6.85038 5.61819 7.61763 5.34092 8.72669L4.96009 10.25ZM6.49951 14.75C4.98073 14.75 3.74951 15.9812 3.74951 17.5C3.74951 19.0188 4.98073 20.25 6.49951 20.25C8.01829 20.25 9.24951 19.0188 9.24951 17.5C9.24951 15.9812 8.01829 14.75 6.49951 14.75ZM2.24951 17.5C2.24951 15.1528 4.1523 13.25 6.49951 13.25C8.4574 13.25 10.1061 14.5739 10.5991 16.3754C11.4974 16.0137 12.5016 16.0137 13.3999 16.3754C13.893 14.5739 15.5416 13.25 17.4995 13.25C19.8467 13.25 21.7495 15.1528 21.7495 17.5C21.7495 19.8472 19.8467 21.75 17.4995 21.75C15.3135 21.75 13.5129 20.0995 13.276 17.9767L13.0057 17.8416C12.3723 17.5249 11.6267 17.5249 10.9933 17.8416L10.7231 17.9767C10.4861 20.0995 8.68555 21.75 6.49951 21.75C4.1523 21.75 2.24951 19.8472 2.24951 17.5ZM17.4995 14.75C15.9807 14.75 14.7495 15.9812 14.7495 17.5C14.7495 19.0188 15.9807 20.25 17.4995 20.25C19.0183 20.25 20.2495 19.0188 20.2495 17.5C20.2495 15.9812 19.0183 14.75 17.4995 14.75Z" fill="#D682C4"/>
</svg>
