<svg width="1351" height="903" viewBox="0 0 1351 903" fill="none" xmlns="http://www.w3.org/2000/svg">
    <g opacity="0.35">
        <g filter="url(#filter0_f_2804_13580)">
            <ellipse cx="177.161" cy="177.02" rx="177.161" ry="177.02"
                transform="matrix(-4.37114e-08 1 1 4.37114e-08 200.881 180.239)"
                fill="url(#paint0_linear_2804_13580)" />
        </g>
        <g filter="url(#filter1_f_2804_13580)">
            <rect width="170.248" height="241.352"
                transform="matrix(-4.37114e-08 1 1 4.37114e-08 364.516 272.276)"
                fill="url(#paint1_linear_2804_13580)" />
        </g>
    </g>
    <g opacity="0.35">
        <g filter="url(#filter2_f_2804_13580)">
            <circle cx="840.346" cy="392.416" r="160.414" fill="url(#paint2_linear_2804_13580)" />
        </g>
        <g filter="url(#filter3_f_2804_13580)">
            <rect x="763.269" y="380.287" width="154.154" height="218.711"
                fill="url(#paint3_linear_2804_13580)" />
        </g>
    </g>
    <path
        d="M261.301 575.394C280.461 586.458 281.242 604.723 262.073 615.787C242.904 626.851 211.068 626.523 191.899 615.459C172.73 604.394 172.738 586.458 191.899 575.394C211.06 564.33 242.123 564.33 261.301 575.394Z"
        fill="#2F2F2F" />
    <path
        d="M417.596 635.014L354.696 598.698C353.593 598.138 352.374 597.847 351.137 597.847C349.9 597.847 348.681 598.138 347.578 598.698L284.679 635.014C282.714 636.148 282.714 637.99 284.679 639.124L313.325 655.663L286.569 671.108C281.136 674.24 272.291 674.24 266.841 671.108L224.755 646.81C222.437 645.47 221.154 643.785 221.154 642.075C221.154 640.365 222.437 638.672 224.755 637.332L262.049 615.796C262.245 615.693 262.419 615.551 262.559 615.38C262.7 615.208 262.804 615.01 262.866 614.797C262.928 614.584 262.946 614.361 262.919 614.141C262.892 613.92 262.821 613.708 262.71 613.516C262.599 613.324 262.451 613.157 262.273 613.024C262.096 612.891 261.893 612.795 261.678 612.742C261.463 612.689 261.239 612.681 261.02 612.717C260.801 612.753 260.592 612.832 260.405 612.951L223.127 634.471C219.749 636.428 217.883 639.124 217.883 642.067C217.883 645.009 219.749 647.697 223.127 649.654L265.214 673.952C268.772 675.786 272.718 676.743 276.722 676.743C280.725 676.743 284.671 675.786 288.23 673.952L316.63 657.561L347.611 675.44C348.714 675.999 349.933 676.291 351.17 676.291C352.407 676.291 353.626 675.999 354.729 675.44L417.629 639.124C419.561 637.99 419.561 636.148 417.596 635.014Z"
        fill="#2F2F2F" />
    <path
        d="M201.137 590.174C203.742 591.76 207.203 591.818 210.466 590.675L212.932 573.413L201.424 570.47L201.137 590.174Z"
        fill="#FFA8A7" />
    <path
        d="M219.707 606.696C219.994 606.992 219.822 609.162 219.468 609.647C219.115 610.132 217.134 611.776 213.484 611.842C210.007 611.899 206.908 611.266 204.968 609.861C203.028 608.455 202.1 606.984 202.009 604.994C201.919 603.005 202.248 601.123 201.393 599.553C200.538 597.983 199.51 596.667 199.247 595.895C198.938 594.495 198.938 593.045 199.247 591.645L219.707 606.696Z"
        fill="#263238" />
    <path
        d="M211.264 589.952C211.281 590.701 211.386 591.446 211.577 592.171C212.025 593.726 212.657 595.221 213.459 596.626C213.858 597.36 214.306 598.065 214.799 598.739C215.777 600.046 217.027 601.139 218.087 602.397C219.213 603.589 219.89 605.134 220.002 606.77C220.002 609.499 217.002 610.263 214.709 610.543C212.217 610.847 209.688 610.586 207.311 609.778C206.067 609.38 204.964 608.632 204.134 607.623C203.304 606.614 202.783 605.388 202.633 604.09C202.543 603.326 202.634 602.561 202.584 601.797C202.379 600.043 201.741 598.367 200.726 596.922C200.137 596.086 199.64 595.187 199.247 594.242C198.622 592.524 199.296 590.659 199.839 589.006C200.307 587.584 200.661 585.866 201.187 586.031C201.187 586.318 201.187 586.96 201.187 586.96C201.335 587.28 201.696 587.51 201.787 587.888C201.872 588.279 201.99 588.661 202.14 589.031C202.364 589.603 202.761 590.092 203.275 590.428C203.365 589.401 203.456 588.373 203.538 587.354C203.514 587.192 203.528 587.027 203.578 586.871C203.628 586.715 203.713 586.573 203.827 586.455C203.94 586.337 204.079 586.246 204.232 586.19C204.386 586.133 204.55 586.113 204.713 586.129C206.641 585.777 208.612 585.718 210.558 585.957C210.704 585.968 210.847 586.007 210.978 586.074C211.109 586.14 211.226 586.232 211.322 586.343C211.422 586.561 211.454 586.805 211.412 587.042C211.311 588.008 211.261 588.98 211.264 589.952Z"
        fill="#A37EA9" />
    <path opacity="0.2"
        d="M211.264 589.952C211.281 590.701 211.386 591.446 211.577 592.171C212.025 593.726 212.657 595.221 213.459 596.626C213.858 597.36 214.306 598.065 214.799 598.739C215.777 600.046 217.027 601.139 218.087 602.397C219.213 603.589 219.89 605.134 220.002 606.77C220.002 609.499 217.002 610.263 214.709 610.543C212.217 610.847 209.688 610.586 207.311 609.778C206.067 609.38 204.964 608.632 204.134 607.623C203.304 606.614 202.783 605.388 202.633 604.09C202.543 603.326 202.634 602.561 202.584 601.797C202.379 600.043 201.741 598.367 200.726 596.922C200.137 596.086 199.64 595.187 199.247 594.242C198.622 592.524 199.296 590.659 199.839 589.006C200.307 587.584 200.661 585.866 201.187 586.031C201.187 586.318 201.187 586.96 201.187 586.96C201.335 587.28 201.696 587.51 201.787 587.888C201.872 588.279 201.99 588.661 202.14 589.031C202.364 589.603 202.761 590.092 203.275 590.428C203.365 589.401 203.456 588.373 203.538 587.354C203.514 587.192 203.528 587.027 203.578 586.871C203.628 586.715 203.713 586.573 203.827 586.455C203.94 586.337 204.079 586.246 204.232 586.19C204.386 586.133 204.55 586.113 204.713 586.129C206.641 585.777 208.612 585.718 210.558 585.957C210.704 585.968 210.847 586.007 210.978 586.074C211.109 586.14 211.226 586.232 211.322 586.343C211.422 586.561 211.454 586.805 211.412 587.042C211.311 588.008 211.261 588.98 211.264 589.952Z"
        fill="black" />
    <path
        d="M213.796 597.218C212.826 596.396 210.557 596.273 209.307 596.338C208.042 596.381 206.807 596.74 205.715 597.382C205.554 597.481 205.364 597.52 205.177 597.495C204.99 597.469 204.817 597.38 204.688 597.243C204.612 597.162 204.554 597.067 204.519 596.962C204.484 596.857 204.473 596.746 204.485 596.637C204.498 596.527 204.534 596.421 204.592 596.327C204.65 596.233 204.727 596.153 204.819 596.092C206.027 595.305 207.43 594.869 208.872 594.834C211.979 594.785 212.801 595.344 212.801 595.344C212.801 595.344 214.149 596.33 213.796 597.218Z"
        fill="#455A64" />
    <path
        d="M215.975 600.128C214.742 599.306 212.243 599.306 210.994 599.347C209.751 599.406 208.546 599.792 207.5 600.465C207.338 600.566 207.146 600.607 206.957 600.581C206.768 600.556 206.594 600.465 206.465 600.325C206.388 600.245 206.33 600.149 206.294 600.044C206.259 599.939 206.248 599.827 206.261 599.717C206.275 599.607 206.312 599.501 206.372 599.407C206.431 599.313 206.511 599.234 206.604 599.175C207.819 598.343 209.244 597.871 210.714 597.81C213.78 597.753 214.545 598.427 214.545 598.427C214.897 598.582 215.21 598.816 215.457 599.111C215.705 599.406 215.882 599.754 215.975 600.128Z"
        fill="#455A64" />
    <path
        d="M207.813 591.85C209.111 591.695 210.427 591.876 211.635 592.377C212.153 592.714 212.457 593.577 212.104 593.774C211.038 593.279 209.866 593.056 208.693 593.125C207.544 593.175 206.412 593.423 205.347 593.856C205.076 593.955 204.763 594.103 204.525 594.234C204.437 594.279 204.341 594.306 204.242 594.312C204.144 594.318 204.045 594.303 203.953 594.269C203.86 594.235 203.775 594.182 203.704 594.114C203.633 594.046 203.576 593.964 203.539 593.873C203.487 593.721 203.49 593.555 203.547 593.405C203.604 593.255 203.711 593.13 203.851 593.051C205.071 592.373 206.422 591.964 207.813 591.85Z"
        fill="#455A64" />
    <path
        d="M233.573 583.688C235.579 588.71 238.719 587.165 243.503 584.272L244.227 567.125L232.053 565.999L233.573 583.688Z"
        fill="#FFA8A7" />
    <path
        d="M261.866 595.78C262.088 596.587 261.994 597.448 261.603 598.188C261.225 598.879 257.419 600.769 252.446 600.161C248.758 599.707 245.261 598.27 242.319 596.002C240.486 594.637 238.521 594.3 236.055 594.021C233.589 593.741 231.74 592.886 231.255 591.703C230.77 590.519 231.509 588.562 231.509 588.562L261.866 595.78Z"
        fill="#263238" />
    <path
        d="M242.5 579.972C242.95 579.878 243.392 579.751 243.824 579.594C244.065 579.505 244.33 579.505 244.572 579.594C244.884 579.734 244.983 580.112 245.057 580.416C245.127 581.16 245.27 581.895 245.484 582.611C245.82 583.205 246.267 583.73 246.799 584.156C247.984 585.217 249.276 586.151 250.655 586.943C252.241 587.913 253.803 588.677 255.439 589.524C257.074 590.371 259.368 590.979 260.667 591.99C262.549 593.42 262.623 596.749 260.321 597.933C258.34 598.961 253.211 599.914 247.991 598.122C245.139 597.144 242.098 593.881 238.316 593.379C235.908 593.067 232.702 592.689 231.247 590.774C230.721 589.952 231.181 587.568 231.609 584.781C231.995 582.315 232.349 578.37 233.146 578.633L233.203 579.389L234.173 580.548C234.386 580.774 234.611 580.988 234.847 581.189C235.107 581.493 235.381 581.784 235.669 582.06C236.06 582.395 236.546 582.599 237.059 582.644C237.302 582.659 237.544 582.605 237.757 582.488C238.168 582.258 238.226 581.715 238.579 581.378C238.962 580.985 239.42 580.674 239.927 580.466C240.632 580.215 241.368 580.066 242.114 580.022C242.244 580.014 242.373 579.997 242.5 579.972Z"
        fill="#A37EA9" />
    <path opacity="0.2"
        d="M242.5 579.972C242.95 579.878 243.392 579.751 243.824 579.594C244.065 579.505 244.33 579.505 244.572 579.594C244.884 579.734 244.983 580.112 245.057 580.416C245.127 581.16 245.27 581.895 245.484 582.611C245.82 583.205 246.267 583.73 246.799 584.156C247.984 585.217 249.276 586.151 250.655 586.943C252.241 587.913 253.803 588.677 255.439 589.524C257.074 590.371 259.368 590.979 260.667 591.99C262.549 593.42 262.623 596.749 260.321 597.933C258.34 598.961 253.211 599.914 247.991 598.122C245.139 597.144 242.098 593.881 238.316 593.379C235.908 593.067 232.702 592.689 231.247 590.774C230.721 589.952 231.181 587.568 231.609 584.781C231.995 582.315 232.349 578.37 233.146 578.633L233.203 579.389L234.173 580.548C234.386 580.774 234.611 580.988 234.847 581.189C235.107 581.493 235.381 581.784 235.669 582.06C236.06 582.395 236.546 582.599 237.059 582.644C237.302 582.659 237.544 582.605 237.757 582.488C238.168 582.258 238.226 581.715 238.579 581.378C238.962 580.985 239.42 580.674 239.927 580.466C240.632 580.215 241.368 580.066 242.114 580.022C242.244 580.014 242.373 579.997 242.5 579.972Z"
        fill="black" />
    <path
        d="M248.477 585.48C248.319 585.138 248.078 584.842 247.777 584.617C247.476 584.391 247.123 584.244 246.751 584.189C245.666 583.926 243.685 584.633 242.427 585.562C242.308 585.649 242.211 585.764 242.147 585.896C242.082 586.029 242.05 586.176 242.055 586.323C242.06 586.471 242.101 586.615 242.174 586.743C242.248 586.871 242.352 586.979 242.476 587.058C242.635 587.154 242.818 587.199 243.003 587.189C243.188 587.179 243.365 587.113 243.512 587.001C244.903 585.861 246.687 585.314 248.477 585.48Z"
        fill="#455A64" />
    <path
        d="M251.772 587.593C251.551 587.243 251.249 586.951 250.891 586.742C250.533 586.534 250.131 586.414 249.717 586.392C248.022 586.376 246.364 586.896 244.983 587.88C244.866 587.961 244.77 588.069 244.704 588.195C244.638 588.321 244.604 588.461 244.604 588.604C244.604 588.746 244.638 588.886 244.704 589.012C244.77 589.138 244.866 589.246 244.983 589.327C245.137 589.42 245.315 589.463 245.494 589.452C245.674 589.44 245.845 589.373 245.986 589.261C246.762 588.565 247.686 588.053 248.688 587.765C249.69 587.476 250.744 587.417 251.772 587.593Z"
        fill="#455A64" />
    <path
        d="M255.439 589.516C255.183 589.19 254.859 588.922 254.49 588.732C254.121 588.542 253.716 588.434 253.301 588.415C251.665 588.428 250.074 588.957 248.756 589.927C248.641 590.012 248.549 590.123 248.488 590.251C248.426 590.38 248.396 590.521 248.401 590.663C248.406 590.806 248.445 590.945 248.515 591.068C248.586 591.192 248.685 591.297 248.805 591.374C248.954 591.474 249.132 591.523 249.312 591.513C249.492 591.502 249.663 591.433 249.8 591.316C250.534 590.596 251.426 590.058 252.405 589.746C253.385 589.433 254.423 589.354 255.439 589.516Z"
        fill="#455A64" />
    <path
        d="M200.817 543.895C201.187 535.617 202.946 531.31 203.193 529.017C203.193 529.017 203.867 483.478 204.977 469.66L245.748 467.926C246.348 482.722 246.891 522.474 246.57 527.734C246.266 532.773 244.219 576.479 244.219 576.479C238.465 578.279 232.325 575.657 232.325 575.657C232.325 575.657 228.905 550.792 228.346 545.309C227.95 540.377 228.076 535.418 228.724 530.513L226.119 495.109C226.119 495.109 222.97 522.564 221.417 532.921C219.641 544.766 211.98 581.485 211.98 581.485C206.473 582.858 201.113 580.482 201.113 580.482C201.113 580.482 200.275 555.888 200.817 543.895Z"
        fill="#455A64" />
    <path
        d="M226.127 495.142L226.9 490.259C229.275 489.906 235.292 486.149 238.852 482.861C236.316 486.698 232.886 489.86 228.856 492.076L228.733 530.529L226.127 495.142Z"
        fill="#37474F" />
    <path
        d="M242.846 443.94C240.076 437.618 235.308 426.973 235.308 426.973L234.1 409.711C235.863 409.768 237.623 409.924 239.369 410.18C241.933 410.583 246.002 413.032 247.86 417.652C249.249 421.08 256.466 441.991 256.466 441.991L269.043 435.366C272.265 433.319 273.408 429.924 275.463 427.968C277.518 426.012 279.573 425.716 281.85 424.146C284.127 422.576 285.023 421.318 285.598 422.888C286.173 424.458 283.625 426.867 283.132 427.467C282.639 428.067 280.164 429.349 283.321 429.513C286.477 429.678 292.864 426.604 294.393 426.077C295.922 425.551 295.791 427.368 294.993 428.494C294.196 429.62 294.114 432.925 292.782 434.774C291.368 436.747 290.604 437.594 287.571 438.769C284.751 439.854 278.907 440.134 275.898 441.868C272.89 443.602 265.607 450.187 260.749 453.565C254.23 458.103 250.564 458.398 248.008 454.782C245.451 451.165 243.824 446.167 242.846 443.94Z"
        fill="#FFA8A7" />
    <path
        d="M232.398 409.341C236.673 409.013 241.712 409.276 244.498 411.807C246.726 413.838 247.564 415.095 250.047 422.115C251.691 426.825 255.209 437.676 255.209 437.676C250.378 438.766 246.044 441.421 242.879 445.23L234.864 427.22L232.398 409.341Z"
        fill="#A2A2A2" />
    <path
        d="M256.467 441.95C254.301 442.717 252.437 444.157 251.148 446.06C251.148 446.06 251.453 442.772 256.08 440.808L256.467 441.95Z"
        fill="#F28F8F" />
    <path
        d="M222.165 408.569C220.14 408.485 218.115 408.707 216.156 409.227C212.4 410.221 205.667 412.112 205.667 412.112C203.53 413.221 202.7 416.92 202.215 419.049C200.67 425.864 204.681 441.243 205.297 447.236C205.914 453.228 204.582 471.583 204.582 471.583C209.177 476.91 234.076 480.445 246.2 471.583C246.2 471.583 246.726 429.439 245.534 423.39C243.726 414.232 241.038 409.884 231.56 409.333L222.165 408.569Z"
        fill="#B8B8B8" />
    <path
        d="M227.483 385.964L224.779 387.452C224.591 387.079 224.553 386.65 224.67 386.25C224.788 385.85 225.053 385.51 225.411 385.298C225.59 385.201 225.787 385.141 225.989 385.122C226.192 385.103 226.396 385.126 226.59 385.188C226.783 385.25 226.962 385.351 227.116 385.484C227.269 385.618 227.394 385.781 227.483 385.964Z"
        fill="#263238" />
    <path
        d="M239.245 387.049L236.779 385.15C236.895 384.983 237.044 384.842 237.216 384.734C237.388 384.627 237.581 384.555 237.781 384.525C237.982 384.494 238.187 384.504 238.384 384.555C238.58 384.606 238.764 384.697 238.925 384.821C239.251 385.082 239.466 385.458 239.526 385.871C239.585 386.285 239.485 386.706 239.245 387.049Z"
        fill="#263238" />
    <path
        d="M215.054 377.357C215.054 377.357 212.144 377.76 211.076 379.98C210.155 381.887 210.484 386.49 211.725 391.488C212.427 394.73 213.474 397.888 214.849 400.908C215.335 401.763 216.128 402.401 217.068 402.691L216.912 396.724L216.698 392.614C216.698 392.614 219.353 388.981 219.649 386.038C220.027 382.207 219.222 380.637 219.222 380.637L215.054 377.357Z"
        fill="#263238" />
    <path
        d="M219.748 383.112C219.759 386.057 220.938 388.878 223.026 390.955C225.114 393.033 227.941 394.197 230.886 394.192C237.018 394.192 241.622 389.137 241.572 382.997C241.523 376.856 236.92 371.941 230.779 371.965C227.84 371.987 225.03 373.172 222.962 375.261C220.895 377.35 219.739 380.173 219.748 383.112Z"
        fill="#263238" />
    <path
        d="M216.912 391.915C215.909 392.786 215.095 390.542 214.257 389.663C213.418 388.783 210.664 387.6 209.325 390.485C207.985 393.37 210.525 397.554 212.613 398.359C213.243 398.598 213.935 398.618 214.578 398.415C215.22 398.212 215.776 397.799 216.155 397.242V410.394C219.32 416.098 224.901 415.917 227.885 415.597C230.869 415.276 231.519 412.177 229.34 409.678V405.568C230.998 405.829 232.679 405.909 234.354 405.807C237.083 405.379 238.464 403.341 239.286 400.357C240.602 395.598 241.136 387.608 239.286 378.377C236.229 376.009 225.625 376.404 219.205 380.473C219.706 388.75 217.865 391.052 216.912 391.915Z"
        fill="#FFA8A7" />
    <path
        d="M239.83 373.806C240.243 372.093 240.428 370.332 240.38 368.57C240.38 367.88 240.208 367.041 239.558 366.778C238.909 366.515 238.268 366.992 237.709 367.37C235.342 368.965 232.399 369.417 229.546 369.573C224.614 369.844 217.077 369.524 214.57 374.924C213.871 376.42 213.748 377.999 215.129 379.034C216.36 379.859 217.768 380.383 219.239 380.563C221.705 380.999 224.171 381.542 226.702 381.879C229.234 382.216 232.243 382.544 234.75 381.772C236.862 381.122 239.008 380.563 240.578 378.886C241.939 377.424 242.706 375.508 242.731 373.511C242.731 373.231 242.674 372.878 242.394 372.804C242.255 372.786 242.113 372.815 241.992 372.886L239.83 373.806Z"
        fill="#263238" />
    <path
        d="M229.316 405.659C229.316 405.659 223.217 404.451 221.096 403.324C219.84 402.674 218.809 401.66 218.137 400.415C218.449 401.658 219.008 402.827 219.781 403.851C221.351 405.84 229.299 407.278 229.299 407.278L229.316 405.659Z"
        fill="#F28F8F" />
    <path
        d="M228.091 390C228.082 390.269 227.995 390.531 227.84 390.751C227.684 390.971 227.467 391.141 227.215 391.238C226.964 391.336 226.689 391.357 226.426 391.3C226.162 391.242 225.921 391.108 225.734 390.915C225.546 390.721 225.419 390.477 225.369 390.212C225.32 389.947 225.349 389.673 225.454 389.424C225.559 389.176 225.735 388.964 225.96 388.815C226.184 388.666 226.448 388.586 226.718 388.586C227.087 388.592 227.439 388.745 227.696 389.01C227.953 389.275 228.095 389.631 228.091 390Z"
        fill="#263238" />
    <path
        d="M230.064 399.494C230.07 399.842 229.939 400.178 229.699 400.429C229.459 400.68 229.129 400.825 228.781 400.834C228.432 400.828 228.099 400.683 227.856 400.432C227.612 400.181 227.478 399.844 227.483 399.494C227.479 399.323 227.51 399.152 227.573 398.992C227.635 398.832 227.729 398.686 227.848 398.563C227.967 398.439 228.109 398.34 228.267 398.271C228.424 398.203 228.593 398.166 228.765 398.163C229.113 398.169 229.445 398.312 229.688 398.562C229.931 398.811 230.066 399.146 230.064 399.494Z"
        fill="#B16668" />
    <path
        d="M226.365 385.684L223.537 387.468C223.304 387.08 223.23 386.616 223.331 386.175C223.433 385.734 223.701 385.349 224.08 385.101C224.267 384.986 224.476 384.91 224.693 384.877C224.911 384.844 225.133 384.855 225.346 384.91C225.559 384.964 225.759 385.061 225.934 385.194C226.109 385.327 226.256 385.494 226.365 385.684Z"
        fill="#263238" />
    <path
        d="M236.343 383.942L239.319 385.274C239.239 385.469 239.12 385.646 238.969 385.794C238.818 385.942 238.639 386.058 238.443 386.135C238.246 386.212 238.036 386.248 237.825 386.241C237.614 386.234 237.406 386.185 237.215 386.096C236.826 385.911 236.521 385.587 236.36 385.188C236.198 384.79 236.193 384.345 236.343 383.942Z"
        fill="#263238" />
    <path
        d="M237.914 389.589C237.904 389.848 237.818 390.099 237.667 390.31C237.517 390.52 237.307 390.682 237.065 390.775C236.823 390.868 236.559 390.888 236.306 390.832C236.053 390.776 235.822 390.647 235.641 390.461C235.461 390.275 235.339 390.04 235.291 389.785C235.242 389.531 235.27 389.267 235.37 389.028C235.471 388.789 235.639 388.585 235.854 388.44C236.07 388.296 236.323 388.218 236.582 388.216C236.94 388.223 237.281 388.371 237.531 388.628C237.78 388.885 237.918 389.231 237.914 389.589Z"
        fill="#263238" />
    <path d="M231.189 387.271L231.683 396.412L236.015 395.261L231.189 387.271Z" fill="#F28F8F" />
    <path
        d="M154.44 424.919C155.862 425.683 161.657 429.76 164.805 430.114C166.137 430.262 166.499 430.048 166.449 429.703C166.384 429.226 165.537 428.511 165.331 428.124C164.978 427.45 162.865 424.656 163.687 423.192C164.509 421.729 165.225 423.127 167.181 425.042C169.137 426.957 171.143 427.623 172.861 429.851C174.579 432.078 175.154 435.605 177.998 438.161L189.326 445.896C189.326 445.896 194.603 421.409 196.921 418.523C199.387 415.49 209.966 422.099 207.747 431.741C205.527 441.383 200.472 458.119 196.954 461.399C194.685 463.528 189.909 461.522 183.95 456.22C179.24 452.028 172.787 445.74 170.058 443.512C167.329 441.285 161.657 440.085 159.051 438.58C156.248 436.936 155.632 435.975 154.555 433.796C153.544 431.749 153.996 428.47 153.396 427.22C152.796 425.971 152.993 424.154 154.44 424.919Z"
        fill="#FFA8A7" />
    <path
        d="M205.668 412.112C209.301 414.381 209.482 417.685 209.663 421.466C209.714 425.892 209.014 430.295 207.591 434.487C206.054 439.246 203.613 447.935 203.613 447.935C203.613 447.935 194.127 448.157 189.244 443.94C189.244 443.94 191.472 434.569 193.042 427.5C194.612 420.43 196.519 412.909 205.668 412.112Z"
        fill="#A2A2A2" />
    <path
        d="M189.285 445.912C191.874 447.351 193.395 450.442 193.864 451.666C193.752 450.24 193.303 448.861 192.554 447.642C191.805 446.423 190.778 445.399 189.556 444.655L189.285 445.912Z"
        fill="#F28F8F" />
    <path d="M287.693 623.571L351.135 660.2V673.697L287.693 637.069V623.571Z" fill="#A37EA9" />
    <path opacity="0.35" d="M287.693 623.571L351.135 660.2V673.697L287.693 637.069V623.571Z"
        fill="black" />
    <path d="M414.577 623.571L351.135 660.2V673.697L414.577 637.069V623.571Z" fill="#A37EA9" />
    <path opacity="0.2" d="M414.577 623.571L351.135 660.2V673.697L414.577 637.069V623.571Z"
        fill="black" />
    <path d="M414.577 623.571L351.135 586.951L287.693 623.571L351.135 660.2L414.577 623.571Z"
        fill="#A37EA9" />
    <path opacity="0.15"
        d="M414.577 623.571L351.135 586.951L287.693 623.571L351.135 660.2L414.577 623.571Z"
        fill="black" />
    <path opacity="0.1" d="M351.135 660.2V656.344L294.368 623.571H287.693L351.135 660.2Z"
        fill="black" />
    <path opacity="0.1" d="M351.135 586.951V590.806L407.902 623.571H414.577L351.135 586.951Z"
        fill="black" />
    <path d="M414.577 623.571H407.902L351.135 656.344V660.2L414.577 623.571Z" fill="#A37EA9" />
    <path d="M351.135 586.951V590.806L294.368 623.571H287.693L351.135 586.951Z" fill="#A37EA9" />
    <path
        d="M351.366 607.674L378.624 623.407C380.662 624.591 380.662 626.498 378.624 627.673L358.296 639.444C357.151 640.029 355.883 640.334 354.597 640.334C353.311 640.334 352.043 640.029 350.898 639.444L323.64 623.711C321.602 622.527 321.602 620.62 323.64 619.445L343.977 607.674C345.121 607.09 346.387 606.786 347.671 606.786C348.956 606.786 350.222 607.09 351.366 607.674Z"
        fill="#37474F" />
    <path
        d="M358.294 639.444L377.948 628.092L351.365 612.746C350.217 612.167 348.95 611.866 347.666 611.866C346.381 611.866 345.114 612.167 343.967 612.746L324.312 624.114L350.896 639.444C352.041 640.029 353.309 640.334 354.595 640.334C355.881 640.334 357.149 640.029 358.294 639.444Z"
        fill="#455A64" />
    <path
        d="M334.9 623.596L346.828 616.716C347.05 616.604 347.294 616.546 347.543 616.546C347.791 616.546 348.036 616.604 348.258 616.716L349.721 617.538C350.116 617.76 350.116 618.13 349.721 618.36L337.794 625.24C337.573 625.351 337.33 625.409 337.083 625.409C336.836 625.409 336.592 625.351 336.372 625.24L334.909 624.418C334.823 624.389 334.749 624.334 334.696 624.261C334.643 624.188 334.614 624.1 334.613 624.01C334.612 623.92 334.64 623.831 334.691 623.757C334.742 623.683 334.816 623.627 334.9 623.596Z"
        fill="#263238" />
    <path
        d="M352.713 633.896L364.64 627.015C364.861 626.904 365.104 626.846 365.351 626.846C365.598 626.846 365.842 626.904 366.062 627.015L367.534 627.837C367.928 628.059 367.928 628.429 367.534 628.659L355.606 635.54C355.386 635.651 355.142 635.709 354.895 635.709C354.648 635.709 354.405 635.651 354.184 635.54L352.721 634.718C352.636 634.689 352.561 634.634 352.509 634.561C352.456 634.487 352.427 634.4 352.426 634.309C352.425 634.219 352.452 634.131 352.503 634.057C352.555 633.983 352.628 633.926 352.713 633.896Z"
        fill="#263238" />
    <path
        d="M323.574 650.229C323.507 648.981 323.146 647.767 322.52 646.686C321.895 645.604 321.022 644.686 319.974 644.006C319.611 643.742 319.184 643.579 318.738 643.536C318.291 643.492 317.841 643.57 317.434 643.76L315.88 644.664C315.515 644.922 315.224 645.273 315.039 645.68C314.854 646.087 314.782 646.537 314.828 646.982C314.896 648.229 315.257 649.443 315.881 650.526C316.505 651.608 317.375 652.529 318.42 653.213C318.784 653.477 319.213 653.64 319.661 653.683C320.109 653.726 320.56 653.649 320.969 653.459L322.514 652.53C322.877 652.274 323.167 651.926 323.353 651.522C323.539 651.118 323.615 650.672 323.574 650.229Z"
        fill="#A37EA9" />
    <path opacity="0.1"
        d="M318.42 644.935C319.468 645.615 320.341 646.533 320.967 647.615C321.592 648.696 321.954 649.91 322.021 651.158C322.021 653.451 320.377 654.38 318.42 653.237C317.375 652.553 316.505 651.633 315.881 650.551C315.257 649.468 314.896 648.254 314.828 647.007C314.828 644.721 316.439 643.793 318.42 644.935Z"
        fill="black" />
    <path
        d="M276.72 671.19C272.708 671.26 268.746 670.301 265.212 668.403L223.125 644.105C219.747 642.149 217.881 639.453 217.881 636.51C217.881 633.567 219.747 630.879 223.125 628.923L271.886 600.769C277.229 597.687 281.75 589.87 281.75 583.696V429.382C281.75 428.946 281.923 428.528 282.232 428.22C282.54 427.911 282.958 427.738 283.394 427.738C283.83 427.738 284.248 427.911 284.557 428.22C284.865 428.528 285.038 428.946 285.038 429.382V583.696C285.038 591.144 279.991 599.898 273.53 603.622L224.769 631.775C222.451 633.115 221.169 634.792 221.169 636.51C221.169 638.228 222.451 639.913 224.769 641.253L266.856 665.551C272.289 668.691 281.134 668.691 286.584 665.551L317.614 647.648C317.801 647.529 318.01 647.449 318.229 647.413C318.448 647.377 318.672 647.386 318.887 647.439C319.103 647.491 319.305 647.587 319.482 647.72C319.66 647.853 319.808 648.021 319.919 648.213C320.03 648.405 320.101 648.617 320.128 648.837C320.155 649.057 320.137 649.28 320.075 649.493C320.013 649.706 319.909 649.905 319.769 650.076C319.628 650.248 319.455 650.389 319.258 650.492L288.228 668.403C284.694 670.302 280.731 671.262 276.72 671.19Z"
        fill="#37474F" />
    <path
        d="M202.872 370.371C202.848 370.259 202.847 370.144 202.869 370.032C202.892 369.92 202.938 369.815 203.004 369.721C203.065 369.624 203.147 369.541 203.244 369.477C203.34 369.413 203.449 369.37 203.562 369.351L207.557 368.579C207.67 368.553 207.787 368.552 207.9 368.574C208.014 368.597 208.121 368.643 208.215 368.71C208.406 368.842 208.539 369.042 208.585 369.269L209.201 372.475C209.225 372.587 209.224 372.703 209.2 372.814C209.176 372.926 209.129 373.032 209.062 373.124C209.001 373.222 208.921 373.307 208.826 373.372C208.732 373.437 208.624 373.482 208.511 373.503L204.508 374.267C204.396 374.291 204.281 374.292 204.169 374.27C204.057 374.247 203.952 374.201 203.858 374.135C203.761 374.074 203.678 373.992 203.614 373.895C203.55 373.799 203.507 373.69 203.488 373.577L202.872 370.371ZM199.535 353.059C199.512 352.947 199.512 352.83 199.534 352.717C199.557 352.605 199.601 352.497 199.666 352.402C199.73 352.306 199.812 352.224 199.908 352.161C200.004 352.097 200.112 352.054 200.225 352.032L204.228 351.259C204.34 351.236 204.456 351.237 204.568 351.261C204.68 351.285 204.785 351.332 204.878 351.399C204.974 351.46 205.057 351.541 205.121 351.635C205.184 351.73 205.228 351.837 205.248 351.95L207.87 365.652C207.893 365.764 207.892 365.88 207.868 365.992C207.844 366.104 207.797 366.209 207.73 366.302C207.669 366.398 207.588 366.481 207.494 366.545C207.399 366.608 207.292 366.652 207.179 366.672L203.176 367.444C203.064 367.468 202.949 367.467 202.837 367.443C202.725 367.419 202.619 367.372 202.527 367.305C202.43 367.244 202.347 367.163 202.284 367.068C202.22 366.973 202.177 366.866 202.157 366.754L199.535 353.059Z"
        fill="#A37EA9" />
    <path
        d="M196.197 383.786C196.12 383.7 196.061 383.601 196.023 383.493C195.984 383.385 195.968 383.27 195.974 383.156C195.98 383.041 196.009 382.929 196.058 382.825C196.108 382.722 196.177 382.629 196.263 382.553L199.296 379.832C199.381 379.754 199.481 379.695 199.59 379.658C199.699 379.621 199.814 379.607 199.929 379.618C200.043 379.621 200.155 379.647 200.258 379.695C200.362 379.743 200.454 379.812 200.529 379.898L202.707 382.364C202.784 382.449 202.843 382.548 202.882 382.656C202.92 382.765 202.937 382.879 202.93 382.994C202.924 383.108 202.896 383.221 202.846 383.324C202.796 383.427 202.727 383.52 202.641 383.597L199.649 386.285C199.565 386.362 199.465 386.422 199.356 386.459C199.247 386.495 199.131 386.509 199.016 386.498C198.903 386.496 198.79 386.47 198.687 386.422C198.584 386.373 198.492 386.304 198.416 386.219L196.197 383.786ZM184.434 370.634C184.279 370.46 184.2 370.233 184.212 370.001C184.216 369.886 184.243 369.774 184.293 369.67C184.342 369.567 184.413 369.475 184.5 369.401L187.533 366.68C187.617 366.6 187.717 366.54 187.826 366.501C187.935 366.463 188.051 366.448 188.166 366.458C188.281 366.461 188.393 366.489 188.496 366.538C188.6 366.588 188.692 366.658 188.766 366.746L198.071 377.152C198.149 377.237 198.208 377.337 198.245 377.446C198.282 377.555 198.296 377.67 198.285 377.785C198.282 377.899 198.256 378.011 198.208 378.114C198.16 378.218 198.091 378.31 198.005 378.385L194.964 381.106C194.88 381.183 194.782 381.241 194.674 381.278C194.566 381.315 194.453 381.329 194.339 381.32C194.224 381.318 194.11 381.293 194.005 381.245C193.901 381.197 193.807 381.127 193.731 381.04L184.434 370.634Z"
        fill="#A37EA9" />
    <g opacity="0.6">
        <path
            d="M196.197 383.786C196.12 383.7 196.061 383.601 196.023 383.493C195.984 383.385 195.968 383.27 195.974 383.156C195.98 383.041 196.009 382.929 196.058 382.825C196.108 382.722 196.177 382.629 196.263 382.553L199.296 379.832C199.381 379.754 199.481 379.695 199.59 379.658C199.699 379.621 199.814 379.607 199.929 379.618C200.043 379.621 200.155 379.647 200.258 379.695C200.362 379.743 200.454 379.812 200.529 379.898L202.707 382.364C202.784 382.449 202.843 382.548 202.882 382.656C202.92 382.765 202.937 382.879 202.93 382.994C202.924 383.108 202.896 383.221 202.846 383.324C202.796 383.427 202.727 383.52 202.641 383.597L199.649 386.285C199.565 386.362 199.465 386.422 199.356 386.459C199.247 386.495 199.131 386.509 199.016 386.498C198.903 386.496 198.79 386.47 198.687 386.422C198.584 386.373 198.492 386.304 198.416 386.219L196.197 383.786ZM184.434 370.634C184.279 370.46 184.2 370.233 184.212 370.001C184.216 369.886 184.243 369.774 184.293 369.67C184.342 369.567 184.413 369.475 184.5 369.401L187.533 366.68C187.617 366.6 187.717 366.54 187.826 366.501C187.935 366.463 188.051 366.448 188.166 366.458C188.281 366.461 188.393 366.489 188.496 366.538C188.6 366.588 188.692 366.658 188.766 366.746L198.071 377.152C198.149 377.237 198.208 377.337 198.245 377.446C198.282 377.555 198.296 377.67 198.285 377.785C198.282 377.899 198.256 378.011 198.208 378.114C198.16 378.218 198.091 378.31 198.005 378.385L194.964 381.106C194.88 381.183 194.782 381.241 194.674 381.278C194.566 381.315 194.453 381.329 194.339 381.32C194.224 381.318 194.11 381.293 194.005 381.245C193.901 381.197 193.807 381.127 193.731 381.04L184.434 370.634Z"
            fill="#C7C7C7" />
    </g>
    <path
        d="M1124.09 462C1152.73 462 1175.94 448.598 1175.94 432.067C1175.94 415.535 1152.73 402.134 1124.09 402.134C1095.46 402.134 1072.25 415.535 1072.25 432.067C1072.25 448.598 1095.46 462 1124.09 462Z"
        fill="#2F2F2F" />
    <path
        d="M1150.46 408.662C1150.46 408.662 1152.82 373.624 1152.16 360.708C1151.61 350.498 1150.22 346.244 1149.93 343.938C1149.93 343.938 1147.42 320.114 1147.22 299.787C1147.11 290.019 1146.21 283.076 1140.86 271.471L1106.46 279.698C1105.76 284.855 1103.4 319.144 1102.84 349.63C1102.35 376.321 1103.11 399.686 1103.11 399.686V401.09C1103.11 402.655 1102.77 403.744 1101.76 406.246C1100.51 409.469 1098.71 412.451 1096.44 415.061C1095.73 415.827 1090.82 420.115 1090.18 421.017C1088.07 423.476 1092.44 424.863 1095.68 424.42C1099.08 423.961 1104.41 422.659 1105.89 420.583C1106.9 419.187 1107.65 414.329 1108.68 412.925C1112.16 408.177 1113.59 406.118 1113.62 404.621C1113.67 401.881 1112.72 400.8 1112.38 399.252C1112.66 396.019 1119.65 369.429 1119.77 360.011C1119.83 355.527 1119.52 349.349 1119.52 349.349L1124.93 318.276C1127.03 326.036 1130.7 345.299 1131.94 352.693C1133.45 361.729 1137.39 384.924 1139.72 398.758C1140.61 404.093 1141.03 406.79 1141.42 409.266L1141.52 410.322C1141.59 411.666 1142.57 426.045 1143.1 429.04C1144.21 435.328 1149.8 434.537 1150.69 429.449C1151.45 425.126 1150.5 411.717 1150.48 410.075L1150.46 408.662Z"
        fill="#FFA8A7" />
    <path
        d="M1150.46 408.662C1152.04 408.662 1151 414.797 1151.41 418.719C1151.85 422.931 1153.22 426.011 1153.62 429.457C1154.16 432.469 1153.7 435.573 1152.31 438.297C1151.21 440.85 1145.68 444.253 1143.58 440.671C1141.47 437.089 1141.02 432.945 1141.27 429.015C1141.52 425.084 1141.27 422.446 1141.35 419.357C1141.42 416.635 1139.42 409.683 1141.47 409.292L1141.57 410.347C1142.31 411.819 1149.78 412.108 1150.53 410.117L1150.46 408.662Z"
        fill="#37474F" />
    <path
        d="M1113.97 407.964C1114.46 409.93 1113.97 415.324 1113.97 415.324C1113.97 415.324 1113.12 417.188 1110.09 418.421L1108.72 410.917L1113.97 407.964Z"
        fill="#263238" />
    <path d="M1110.07 418.421L1103.38 416.226L1101.76 410.287L1109.29 414.09L1110.07 418.421Z"
        fill="black" />
    <path
        d="M1103.11 401.09V399.686C1102.2 400.128 1100.2 407.454 1097.49 412.449C1095.03 417.035 1090.13 419.587 1088.54 421.587C1086.42 424.25 1090.55 427.696 1097.18 426.275C1100.47 425.569 1105.46 423.467 1106.81 421.246C1108.16 419.026 1108.61 414.942 1109.72 413.308C1110.83 411.674 1113.46 409.794 1113.97 407.939C1114.41 406.265 1114.41 404.508 1113.97 402.834C1113.46 401.132 1113 399.099 1112.42 399.286V400.571C1111.97 401.473 1110.37 402.528 1107.02 402.715C1105.39 402.791 1103.84 402.545 1103.11 401.09Z"
        fill="#37474F" />
    <path
        d="M1105.76 279.256C1105.76 279.256 1103.49 304.501 1102.76 326.852C1102.03 349.204 1102.68 378.048 1102.68 378.048C1102.68 378.048 1104.99 379.699 1110.07 379.929C1115.15 380.158 1116.88 378.465 1116.88 378.465C1116.88 378.465 1119.98 368.332 1120.47 361.201C1120.77 357.342 1120.77 353.464 1120.47 349.604L1125 319.773C1125 319.773 1130.75 349.145 1131.41 352.693C1132.06 356.241 1137.57 387.629 1137.57 387.629C1137.57 387.629 1139.73 389.62 1145.28 389.518C1150.19 389.424 1151.61 387.663 1151.61 387.663C1151.61 387.663 1152.79 368.417 1152.52 360.197C1152.29 352.948 1150.63 347.179 1150.3 342.474C1149.97 337.769 1149.78 310.993 1149.45 300.782C1149.11 290.572 1148.26 281.808 1139.53 269.522L1105.76 279.256Z"
        fill="#455A64" />
    <path
        d="M1125.04 319.799L1121.26 301.08C1121.26 301.08 1114.68 299.379 1111.61 295.346C1111.61 295.346 1112.46 299.804 1119.27 302.655L1123.28 321.271L1121.89 340.518L1125.04 319.799Z"
        fill="#37474F" />
    <path
        d="M1057.7 274.602C1060.12 274.971 1062.6 274.788 1064.94 274.065C1063.91 273.551 1062.95 272.914 1062.07 272.168C1061.67 271.845 1061.41 271.379 1061.35 270.867C1061.28 270.356 1061.42 269.84 1061.73 269.428C1062.05 269.088 1062.83 269.879 1064.6 270.381C1066.86 271.019 1068.5 271.156 1070.68 272.415C1071.5 272.893 1072.47 273.062 1073.41 272.891C1078.71 271.896 1091.09 266.084 1096.77 263.055C1097.93 258.333 1099.93 251.39 1102.41 242.729C1104.7 234.748 1108.37 231.259 1114.22 231.387L1113.38 248.719C1113.38 248.719 1110.59 260.69 1107.13 270.466C1106.53 272.168 1104.1 274.151 1099.66 275.801C1093.91 277.937 1086.97 279.953 1078.48 282.276C1075.05 283.255 1071.54 283.952 1067.99 284.361C1059.02 285.127 1055.58 282.659 1054.37 280.889C1050.93 276.005 1052.97 273.657 1057.7 274.602Z"
        fill="#FFA8A7" />
    <path
        d="M1129.31 231.259L1137.49 231.888C1136.79 235.215 1136.99 238.67 1138.07 241.893C1139.15 245.116 1141.08 247.99 1143.65 250.216L1140 264.918C1140.12 266.739 1143.13 272.865 1146.05 279.451C1140.56 286.802 1113.64 289.312 1104.86 282.854C1106.21 275.928 1107.23 270.67 1107.5 268.041L1107.06 258.537C1096.05 249.509 1109.33 235.751 1114.22 231.378L1120.36 231.105L1129.31 231.259Z"
        fill="#A37EA9" />
    <path
        d="M1163.77 304.509C1163.18 304.046 1162.71 303.443 1162.4 302.754C1162.1 302.066 1161.97 301.313 1162.02 300.561C1162.17 299.191 1162.48 297.473 1163.05 296.809C1163.62 296.145 1167.19 291.287 1168.78 294.112C1170.48 297.192 1170.13 298.442 1170.13 298.442L1163.77 304.509Z"
        fill="#F28F8F" />
    <path
        d="M1152.75 369.446C1148.91 369.318 1145.17 368.186 1141.9 366.162L1099.42 341.623C1092.86 337.837 1087.5 328.588 1087.5 321.007V285.365C1087.5 284.172 1087.18 283.001 1086.58 281.97C1085.98 280.938 1085.12 280.082 1084.09 279.488C1083.06 278.893 1081.88 278.581 1080.69 278.582C1079.5 278.583 1078.33 278.897 1077.29 279.494L1062.42 288.104C1062.23 288.227 1062.01 288.31 1061.78 288.347C1061.56 288.385 1061.33 288.376 1061.1 288.321C1060.88 288.267 1060.67 288.167 1060.49 288.03C1060.3 287.892 1060.15 287.719 1060.04 287.52C1059.92 287.321 1059.85 287.101 1059.82 286.873C1059.79 286.646 1059.81 286.415 1059.87 286.194C1059.94 285.974 1060.05 285.769 1060.19 285.591C1060.34 285.413 1060.52 285.267 1060.72 285.16L1075.64 276.541C1077.19 275.646 1078.94 275.174 1080.74 275.173C1082.53 275.173 1084.29 275.643 1085.84 276.537C1087.39 277.43 1088.68 278.717 1089.58 280.266C1090.47 281.816 1090.95 283.574 1090.95 285.365V321.007C1090.95 327.388 1095.63 335.471 1101.16 338.679L1143.64 363.201C1149.08 366.34 1154.13 366.885 1157.84 364.749C1161.55 362.614 1163.6 357.942 1163.6 351.689V306.185C1163.6 298.476 1168.52 289.593 1174.81 285.96L1185.18 280.004C1185.38 279.881 1185.59 279.798 1185.82 279.761C1186.05 279.724 1186.28 279.733 1186.5 279.787C1186.72 279.842 1186.93 279.941 1187.12 280.079C1187.3 280.217 1187.45 280.39 1187.57 280.589C1187.68 280.787 1187.76 281.007 1187.78 281.235C1187.81 281.463 1187.79 281.694 1187.73 281.914C1187.67 282.135 1187.56 282.34 1187.41 282.518C1187.27 282.695 1187.09 282.842 1186.88 282.948L1176.51 288.904C1171.36 291.882 1167 299.787 1167 306.176V351.68C1167 359.219 1164.35 364.902 1159.54 367.685C1157.47 368.867 1155.13 369.475 1152.75 369.446Z"
        fill="#37474F" />
    <path
        d="M1079.34 290.564V293.346C1079.34 297.796 1076.22 303.216 1072.36 305.437L1046.6 320.318L1020.4 305.19V282.506L1045.8 270.747C1049.85 268.884 1056.24 269.173 1060.11 271.394L1072.34 278.465C1076.2 280.694 1079.34 286.114 1079.34 290.564Z"
        fill="#37474F" />
    <path
        d="M1045.8 270.747C1049.85 268.884 1056.24 269.173 1060.11 271.394L1072.34 278.465C1076.2 280.685 1076.04 284.004 1072 285.876L1046.57 297.617L1020.36 282.498L1045.8 270.747Z"
        fill="#455A64" />
    <path opacity="0.15"
        d="M1049.05 292.172C1050.06 292.834 1050.91 293.726 1051.51 294.776C1052.12 295.825 1052.47 297.003 1052.53 298.213V316.872L1046.58 320.275L1020.38 305.147V282.506L1027.02 279.443L1049.05 292.172Z"
        fill="black" />
    <path
        d="M1018.14 278.601C1018.54 278.418 1018.97 278.344 1019.4 278.386C1019.83 278.428 1020.24 278.584 1020.59 278.839L1046.36 293.721C1047.37 294.383 1048.22 295.276 1048.83 296.328C1049.43 297.379 1049.78 298.558 1049.85 299.77V321.96C1049.89 322.392 1049.82 322.828 1049.64 323.223C1049.46 323.618 1049.18 323.958 1048.83 324.207C1048.23 324.538 1046.13 325.755 1045.54 326.104C1045.15 326.287 1044.71 326.361 1044.28 326.319C1043.85 326.277 1043.43 326.121 1043.08 325.866L1017.31 310.984C1016.29 310.322 1015.45 309.43 1014.84 308.381C1014.24 307.331 1013.89 306.153 1013.82 304.943V282.753C1013.78 282.321 1013.85 281.885 1014.02 281.489C1014.2 281.093 1014.48 280.751 1014.83 280.498L1018.14 278.601Z"
        fill="#37474F" />
    <path
        d="M1043.08 295.609L1017.31 280.737C1015.39 279.622 1013.82 280.524 1013.82 282.753V304.943C1013.89 306.153 1014.24 307.331 1014.84 308.381C1015.45 309.43 1016.29 310.322 1017.31 310.984L1043.08 325.866C1045 326.98 1046.57 326.079 1046.57 323.849V301.659C1046.5 300.448 1046.15 299.269 1045.55 298.218C1044.94 297.167 1044.1 296.274 1043.08 295.609Z"
        fill="#455A64" />
    <path
        d="M1012.56 321.441V325.279C1012.56 326.836 1013.1 327.916 1013.98 328.427L1016.3 329.763C1016.85 330.032 1017.47 330.146 1018.08 330.093C1018.7 330.039 1019.29 329.819 1019.79 329.456L1041.06 317.153V302.008L1038.74 300.672L1017.43 312.975C1016.01 313.905 1014.83 315.156 1013.98 316.627C1013.14 318.097 1012.65 319.747 1012.56 321.441ZM1022.2 316.693C1022.28 316.97 1022.33 317.256 1022.34 317.544C1022.28 318.681 1021.95 319.788 1021.38 320.774C1020.81 321.76 1020.02 322.598 1019.06 323.219C1018.8 323.375 1018.51 323.489 1018.21 323.56C1018.14 323.282 1018.1 322.996 1018.09 322.709C1018.15 321.572 1018.48 320.466 1019.05 319.48C1019.62 318.494 1020.41 317.656 1021.37 317.034C1021.63 316.89 1021.91 316.775 1022.2 316.693Z"
        fill="#A37EA9" />
    <path opacity="0.2"
        d="M1016.18 329.678C1016.22 329.717 1016.27 329.751 1016.32 329.78L1016.24 329.729L1014 328.427C1013.11 327.933 1012.58 326.853 1012.58 325.287V321.45C1012.63 319.745 1013.13 318.083 1014.02 316.625L1016.33 317.961C1015.45 319.422 1014.96 321.082 1014.9 322.786V326.623C1014.84 327.617 1015.16 328.597 1015.79 329.363C1015.91 329.483 1016.04 329.588 1016.18 329.678Z"
        fill="black" />
    <path opacity="0.5"
        d="M1041.06 302.008L1019.78 314.311C1018.34 315.211 1017.15 316.464 1016.33 317.953L1014.02 316.617C1014.84 315.131 1016.02 313.878 1017.46 312.975L1038.78 300.672L1041.06 302.008Z"
        fill="white" />
    <path opacity="0.2"
        d="M1022.34 317.545C1022.34 317.237 1022.3 316.931 1022.22 316.634C1023.62 316.251 1024.65 317.128 1024.65 318.88C1024.59 320.016 1024.26 321.122 1023.7 322.108C1023.13 323.094 1022.34 323.932 1021.38 324.556C1019.87 325.406 1018.58 324.972 1018.22 323.56C1018.52 323.494 1018.81 323.379 1019.07 323.22C1020.02 322.596 1020.81 321.757 1021.38 320.772C1021.95 319.786 1022.28 318.68 1022.34 317.545Z"
        fill="black" />
    <path
        d="M992.915 310.091V313.936C992.915 315.485 993.451 316.574 994.336 317.076L996.65 318.42C997.204 318.685 997.819 318.794 998.431 318.737C999.042 318.68 999.626 318.459 1000.12 318.097L1021.39 305.785V290.666L1019.08 289.321L997.807 301.625C996.385 302.553 995.201 303.803 994.351 305.274C993.501 306.744 993.009 308.395 992.915 310.091ZM1002.56 305.317C1002.63 305.615 1002.67 305.92 1002.67 306.228C1002.61 307.365 1002.28 308.471 1001.72 309.457C1001.15 310.443 1000.35 311.281 999.399 311.903C999.129 312.049 998.844 312.164 998.548 312.243C998.467 311.952 998.426 311.652 998.429 311.35C998.49 310.214 998.817 309.108 999.385 308.122C999.952 307.136 1000.74 306.298 1001.7 305.675C1001.96 305.516 1002.25 305.396 1002.56 305.317Z"
        fill="#A37EA9" />
    <path opacity="0.2"
        d="M996.752 318.48H996.71H996.65L994.336 317.128C993.443 316.626 992.915 315.545 992.915 313.979V310.142C992.924 309.322 993.053 308.508 993.298 307.726C993.554 306.888 993.905 306.083 994.344 305.326L996.659 306.654C996.439 307.033 996.243 307.425 996.072 307.828C995.544 308.971 995.254 310.21 995.221 311.469V315.307C995.148 316.295 995.452 317.273 996.072 318.046C996.272 318.229 996.502 318.376 996.752 318.48Z"
        fill="black" />
    <path opacity="0.5"
        d="M1021.42 290.666L1000.15 302.969C998.702 303.866 997.512 305.12 996.692 306.611L994.378 305.283C995.185 303.796 996.356 302.537 997.781 301.625L1019.05 289.321L1021.42 290.666Z"
        fill="white" />
    <path opacity="0.2"
        d="M1002.67 306.219C1002.67 305.915 1002.63 305.612 1002.55 305.317C1003.95 304.926 1004.99 305.811 1004.99 307.563C1004.93 308.699 1004.6 309.805 1004.03 310.791C1003.46 311.777 1002.67 312.615 1001.72 313.239C1000.2 314.089 998.913 313.655 998.556 312.235C998.857 312.171 999.145 312.056 999.407 311.894C1000.36 311.271 1001.15 310.432 1001.71 309.446C1002.28 308.46 1002.61 307.355 1002.67 306.219Z"
        fill="black" />
    <path
        d="M999.364 295.89C999.081 295.89 998.805 295.796 998.581 295.622C998.358 295.448 998.199 295.203 998.13 294.928L994.727 281.587C994.642 281.258 994.692 280.91 994.864 280.618C995.036 280.326 995.318 280.114 995.646 280.03C995.974 279.945 996.323 279.994 996.615 280.167C996.907 280.339 997.118 280.62 997.203 280.949L1000.61 294.299C1000.65 294.461 1000.66 294.63 1000.64 294.796C1000.61 294.962 1000.56 295.122 1000.47 295.266C1000.39 295.41 1000.27 295.536 1000.14 295.636C1000 295.736 999.85 295.807 999.687 295.847C999.582 295.874 999.473 295.889 999.364 295.89Z"
        fill="#E0E0E0" />
    <path
        d="M989.784 301.454C989.497 301.455 989.218 301.359 988.993 301.182L976.324 291.167C976.184 291.066 976.066 290.938 975.977 290.791C975.888 290.643 975.83 290.479 975.806 290.308C975.782 290.137 975.793 289.963 975.839 289.797C975.884 289.631 975.962 289.475 976.069 289.34C976.176 289.205 976.31 289.093 976.461 289.011C976.613 288.928 976.779 288.878 976.951 288.862C977.123 288.845 977.296 288.864 977.46 288.917C977.624 288.97 977.776 289.055 977.906 289.168L990.575 299.174C990.84 299.385 991.011 299.692 991.051 300.028C991.091 300.364 990.996 300.702 990.788 300.969C990.669 301.122 990.517 301.245 990.343 301.329C990.169 301.413 989.977 301.456 989.784 301.454Z"
        fill="#E0E0E0" />
    <path
        d="M972.324 313.673C971.985 313.685 971.656 313.563 971.408 313.332C971.16 313.102 971.013 312.782 971.001 312.443C970.988 312.105 971.111 311.775 971.342 311.527C971.572 311.279 971.892 311.133 972.23 311.12L987.044 309.972C987.211 309.958 987.379 309.977 987.539 310.029C987.699 310.08 987.847 310.163 987.974 310.272C988.101 310.382 988.206 310.515 988.281 310.665C988.357 310.815 988.402 310.978 988.414 311.146C988.437 311.483 988.327 311.815 988.107 312.072C987.888 312.328 987.576 312.487 987.239 312.516L972.426 313.664L972.324 313.673Z"
        fill="#E0E0E0" />
    <path
        d="M1175.35 290.623C1175.07 287.479 1174.6 284.354 1173.96 281.263C1172.02 274.011 1169.44 266.947 1166.25 260.154C1164.83 257.439 1161.62 253.483 1159.35 250.139C1156.13 245.417 1153.87 242.771 1151.43 239.563C1146.05 232.526 1143.77 232.118 1137.49 231.905C1136.64 234.143 1134.7 243.315 1140.99 250.726L1154.47 264.935C1155.23 266.169 1163.47 280.251 1164.84 285.449C1165.07 286.374 1164.96 287.354 1164.51 288.198C1163.44 290.581 1162.65 293.083 1162.16 295.651C1161.76 297.455 1160.69 298.884 1161.05 299.165C1161.5 299.467 1162.04 299.608 1162.59 299.565C1163.13 299.522 1163.64 299.297 1164.04 298.927C1165 297.895 1165.78 296.71 1166.36 295.422C1166.61 295.405 1166.87 295.441 1167.11 295.528C1167.34 295.614 1167.56 295.75 1167.74 295.925C1167.93 296.1 1168.07 296.311 1168.17 296.546C1168.27 296.78 1168.31 297.031 1168.31 297.285C1168.39 298.331 1167.91 299.786 1167.54 301.599C1167.48 301.956 1167.39 302.364 1167.23 303.351C1167.09 304.018 1167.01 304.696 1166.99 305.376C1168.69 305.691 1170.47 304.653 1173.33 301.973C1175.91 299.472 1176.08 296.187 1175.35 290.623Z"
        fill="#FFA8A7" />
    <path
        d="M1130.77 227.124C1130.82 225.422 1136.35 221.44 1139.15 217.203C1141.7 213.272 1145.37 202.466 1136.78 199.012C1136.78 199.012 1138.63 193.83 1135.26 190.775C1131.89 187.721 1127.36 189.61 1126.64 190.886C1126.21 189.295 1125.28 187.886 1123.98 186.868C1122.68 185.85 1121.09 185.278 1119.45 185.236C1117.84 185.115 1116.24 185.579 1114.94 186.544C1113.65 187.509 1112.74 188.909 1112.4 190.486C1111.04 189.897 1109.52 189.794 1108.09 190.194C1106.67 190.594 1105.42 191.472 1104.56 192.681C1101.41 197.029 1105.59 201.011 1105.59 201.011C1105.05 201.377 1104.62 201.884 1104.34 202.478C1104.06 203.071 1103.95 203.729 1104.02 204.38C1104.27 206.218 1106.03 206.669 1106.23 207.588C1106.27 207.78 1106.25 207.98 1106.16 208.158C1106.08 208.335 1105.94 208.48 1105.76 208.57C1105.59 208.66 1105.39 208.692 1105.2 208.659C1105 208.626 1104.83 208.531 1104.69 208.388C1104.74 208.628 1104.83 208.856 1104.96 209.06C1105.1 209.264 1105.27 209.44 1105.47 209.576C1105.68 209.713 1105.9 209.809 1106.14 209.857C1106.38 209.906 1106.63 209.907 1106.87 209.86C1108.85 209.749 1110.62 207.052 1110.62 207.052L1130.77 227.124Z"
        fill="#263238" />
    <path
        d="M1112.73 198.467C1110.18 199.573 1107.77 203.462 1107.81 214.336C1107.81 223.55 1110.66 225.882 1112.06 226.571C1113.45 227.26 1116.27 226.903 1118.99 226.486V231.787C1118.99 231.787 1114.08 237.879 1118.47 240.908C1129.81 238.925 1130.68 231.489 1130.68 231.489L1130.88 219.934C1130.88 219.934 1132.44 221.568 1135.13 219.169C1137.4 217.186 1138.21 213.791 1136.51 211.919C1134.81 210.047 1132.63 209.903 1130.66 211.987C1130.66 211.987 1127.04 212.226 1121.61 208.814C1116.17 205.402 1114.23 201.939 1112.73 198.467Z"
        fill="#FFA8A7" />
    <path
        d="M1119.26 220.104C1119.27 220.28 1119.25 220.456 1119.19 220.623C1119.13 220.789 1119.04 220.943 1118.92 221.074C1118.81 221.206 1118.67 221.312 1118.51 221.388C1118.35 221.464 1118.18 221.508 1118 221.517C1117.73 221.539 1117.45 221.478 1117.22 221.344C1116.98 221.209 1116.78 221.006 1116.66 220.761C1116.54 220.516 1116.5 220.24 1116.53 219.969C1116.57 219.698 1116.68 219.444 1116.87 219.24C1117.05 219.035 1117.29 218.89 1117.55 218.823C1117.82 218.756 1118.1 218.77 1118.36 218.863C1118.61 218.956 1118.84 219.124 1119 219.345C1119.16 219.566 1119.25 219.831 1119.26 220.104Z"
        fill="#B16668" />
    <path
        d="M1112.26 211.187C1112.25 211.427 1112.18 211.661 1112.05 211.86C1111.91 212.059 1111.73 212.215 1111.5 212.307C1111.28 212.4 1111.04 212.426 1110.8 212.382C1110.57 212.338 1110.35 212.225 1110.18 212.058C1110.01 211.892 1109.89 211.678 1109.83 211.444C1109.78 211.21 1109.8 210.966 1109.88 210.742C1109.97 210.518 1110.12 210.324 1110.31 210.184C1110.51 210.043 1110.74 209.963 1110.98 209.953C1111.14 209.95 1111.31 209.979 1111.46 210.04C1111.61 210.1 1111.76 210.19 1111.87 210.305C1111.99 210.419 1112.09 210.556 1112.15 210.708C1112.22 210.859 1112.25 211.022 1112.26 211.187Z"
        fill="#263238" />
    <path
        d="M1121.67 211.749C1121.69 211.925 1121.66 212.101 1121.6 212.267C1121.55 212.434 1121.46 212.587 1121.34 212.719C1121.22 212.85 1121.08 212.957 1120.92 213.033C1120.76 213.109 1120.59 213.153 1120.41 213.161C1120.06 213.164 1119.72 213.026 1119.46 212.777C1119.21 212.529 1119.06 212.19 1119.05 211.834C1119.05 211.662 1119.08 211.49 1119.14 211.329C1119.2 211.168 1119.29 211.021 1119.41 210.895C1119.52 210.769 1119.67 210.668 1119.82 210.597C1119.98 210.526 1120.15 210.487 1120.32 210.481C1120.49 210.476 1120.66 210.504 1120.83 210.565C1120.99 210.625 1121.13 210.717 1121.26 210.835C1121.39 210.953 1121.49 211.094 1121.56 211.251C1121.63 211.408 1121.67 211.577 1121.67 211.749Z"
        fill="#263238" />
    <path
        d="M1111.4 206.312L1108.81 207.835C1108.9 208.01 1109.03 208.165 1109.19 208.288C1109.34 208.412 1109.52 208.503 1109.71 208.555C1109.9 208.607 1110.1 208.619 1110.3 208.59C1110.49 208.561 1110.68 208.492 1110.85 208.388C1111.19 208.179 1111.44 207.847 1111.54 207.46C1111.65 207.074 1111.6 206.662 1111.4 206.312Z"
        fill="#263238" />
    <path
        d="M1130.71 210.49V215.595C1130.38 215.603 1130.06 215.544 1129.75 215.422C1129.45 215.3 1129.17 215.117 1128.94 214.884C1128.71 214.651 1128.53 214.374 1128.41 214.069C1128.3 213.764 1128.24 213.438 1128.25 213.11C1128.25 212.444 1128.51 211.803 1128.97 211.317C1129.42 210.83 1130.05 210.535 1130.71 210.49Z"
        fill="#263238" />
    <path d="M1115.61 209.971L1115.09 217.322L1111.21 216.412L1115.61 209.971Z" fill="#F28F8F" />
    <path
        d="M1119.02 226.503C1121.87 226.171 1127.76 224.537 1128.72 222.138C1128.34 223.34 1127.6 224.399 1126.61 225.175C1124.83 226.707 1119.01 228.289 1119.01 228.289L1119.02 226.503Z"
        fill="#F28F8F" />
    <path
        d="M1153.28 169.648C1154.37 170.063 1155.39 170.636 1156.3 171.35C1157.19 171.999 1157.96 172.804 1158.56 173.724C1159.13 174.609 1159.51 175.607 1159.66 176.651C1159.82 177.765 1159.68 178.899 1159.26 179.944C1158.97 180.78 1158.51 181.549 1157.91 182.207C1157.38 182.768 1156.77 183.249 1156.1 183.636C1155.45 184.009 1154.76 184.322 1154.06 184.572L1152.05 185.296C1151.46 185.509 1150.89 185.777 1150.35 186.095C1149.84 186.352 1149.41 186.747 1149.11 187.236C1148.98 187.464 1148.78 187.652 1148.55 187.78C1148.44 187.841 1148.32 187.877 1148.19 187.884C1148.07 187.892 1147.94 187.871 1147.82 187.823L1145.17 186.827C1145.04 186.78 1144.92 186.709 1144.83 186.617C1144.73 186.525 1144.65 186.414 1144.6 186.291C1144.54 186.173 1144.51 186.044 1144.51 185.912C1144.51 185.781 1144.54 185.651 1144.6 185.534C1144.94 184.715 1145.44 183.974 1146.08 183.356C1146.65 182.814 1147.3 182.348 1147.99 181.969C1148.66 181.609 1149.36 181.307 1150.08 181.067C1150.8 180.829 1151.46 180.599 1152.08 180.361C1152.64 180.155 1153.18 179.892 1153.69 179.578C1154.13 179.301 1154.46 178.888 1154.64 178.404C1154.81 177.979 1154.87 177.52 1154.82 177.066C1154.77 176.612 1154.61 176.178 1154.36 175.8C1153.72 174.87 1152.78 174.179 1151.71 173.835C1150.77 173.462 1149.74 173.389 1148.76 173.625C1147.78 173.861 1146.9 174.395 1146.24 175.153C1146.07 175.333 1145.87 175.482 1145.65 175.596C1145.42 175.67 1145.16 175.652 1144.94 175.545L1142.11 174.481C1142.01 174.446 1141.92 174.391 1141.84 174.32C1141.76 174.248 1141.7 174.161 1141.65 174.064C1141.6 173.965 1141.58 173.856 1141.58 173.745C1141.58 173.635 1141.6 173.525 1141.65 173.426C1142.03 172.559 1142.61 171.798 1143.35 171.214C1144.18 170.526 1145.12 169.991 1146.14 169.631C1147.25 169.238 1148.42 169.025 1149.6 169.002C1150.86 168.978 1152.11 169.198 1153.28 169.648ZM1147.23 189.984C1147.35 190.028 1147.46 190.098 1147.56 190.189C1147.65 190.279 1147.73 190.389 1147.78 190.511C1147.83 190.632 1147.86 190.762 1147.86 190.894C1147.86 191.026 1147.83 191.156 1147.78 191.277L1146.62 194.349C1146.58 194.473 1146.51 194.586 1146.42 194.682C1146.33 194.777 1146.22 194.852 1146.09 194.902C1145.97 194.954 1145.84 194.981 1145.71 194.981C1145.58 194.981 1145.45 194.954 1145.33 194.902L1142.32 193.77C1142.2 193.726 1142.09 193.656 1141.99 193.565C1141.9 193.474 1141.82 193.364 1141.77 193.243C1141.72 193.122 1141.69 192.991 1141.69 192.86C1141.69 192.728 1141.72 192.598 1141.77 192.477L1142.93 189.405C1142.97 189.281 1143.04 189.167 1143.13 189.07C1143.23 188.974 1143.33 188.897 1143.46 188.844C1143.58 188.793 1143.71 188.767 1143.84 188.767C1143.97 188.767 1144.1 188.793 1144.22 188.844L1147.23 189.984Z"
        fill="#A37EA9" />
    <path
        d="M1154.75 206.32C1154.84 206.407 1154.91 206.511 1154.96 206.626C1155.01 206.74 1155.04 206.864 1155.04 206.988C1155.04 207.112 1155.01 207.235 1154.96 207.35C1154.91 207.465 1154.84 207.569 1154.75 207.656L1152.63 209.902C1152.54 209.993 1152.44 210.065 1152.33 210.115C1152.21 210.165 1152.09 210.191 1151.96 210.191C1151.84 210.196 1151.72 210.176 1151.6 210.132C1151.48 210.088 1151.37 210.021 1151.28 209.936L1149.11 207.852C1149.02 207.766 1148.95 207.663 1148.9 207.549C1148.85 207.435 1148.83 207.312 1148.82 207.188C1148.82 207.063 1148.84 206.938 1148.88 206.821C1148.93 206.704 1148.99 206.597 1149.08 206.507L1151.22 204.269C1151.39 204.094 1151.63 203.996 1151.88 203.996C1152.13 203.996 1152.37 204.094 1152.55 204.269L1154.75 206.32ZM1167.52 190.894C1168.31 191.644 1168.99 192.503 1169.53 193.447C1170.06 194.34 1170.43 195.319 1170.61 196.339C1170.77 197.317 1170.72 198.318 1170.47 199.275C1170.2 200.181 1169.74 201.02 1169.13 201.739C1168.51 202.459 1167.76 203.042 1166.91 203.453C1166.24 203.746 1165.53 203.941 1164.81 204.031C1164.11 204.11 1163.4 204.13 1162.69 204.091L1160.69 203.98C1160.09 203.948 1159.49 203.968 1158.89 204.04C1158.36 204.099 1157.85 204.305 1157.43 204.635C1157.23 204.787 1156.99 204.878 1156.74 204.899C1156.62 204.912 1156.5 204.899 1156.38 204.859C1156.27 204.819 1156.17 204.754 1156.08 204.669L1154.15 202.831C1153.96 202.656 1153.85 202.415 1153.84 202.159C1153.83 202.034 1153.85 201.907 1153.9 201.79C1153.95 201.673 1154.02 201.569 1154.12 201.487C1154.71 200.898 1155.42 200.435 1156.19 200.126C1156.89 199.866 1157.62 199.697 1158.36 199.624C1159.08 199.564 1159.8 199.564 1160.52 199.624C1161.22 199.686 1161.89 199.729 1162.51 199.751C1163.08 199.78 1163.65 199.749 1164.21 199.658C1164.69 199.582 1165.14 199.349 1165.48 198.994C1165.77 198.685 1165.99 198.309 1166.11 197.897C1166.24 197.485 1166.26 197.05 1166.17 196.629C1165.96 195.585 1165.41 194.642 1164.6 193.949C1163.92 193.284 1163.05 192.845 1162.11 192.693C1161.18 192.541 1160.21 192.682 1159.36 193.098C1159.15 193.19 1158.92 193.245 1158.69 193.259C1158.58 193.252 1158.46 193.222 1158.36 193.169C1158.26 193.116 1158.16 193.043 1158.09 192.953L1156.03 190.988C1155.88 190.854 1155.79 190.668 1155.78 190.469C1155.77 190.363 1155.79 190.258 1155.83 190.16C1155.86 190.062 1155.92 189.973 1156 189.898C1156.64 189.286 1157.42 188.84 1158.28 188.597C1159.25 188.307 1160.26 188.188 1161.27 188.248C1162.39 188.316 1163.48 188.563 1164.51 188.98C1165.62 189.416 1166.63 190.066 1167.48 190.894H1167.52Z"
        fill="#A37EA9" />
    <g opacity="0.6">
        <path
            d="M1154.75 206.32C1154.84 206.407 1154.91 206.511 1154.96 206.626C1155.01 206.74 1155.04 206.864 1155.04 206.988C1155.04 207.112 1155.01 207.235 1154.96 207.35C1154.91 207.465 1154.84 207.569 1154.75 207.656L1152.63 209.902C1152.54 209.993 1152.44 210.065 1152.33 210.115C1152.21 210.165 1152.09 210.191 1151.96 210.191C1151.84 210.196 1151.72 210.176 1151.6 210.132C1151.48 210.088 1151.37 210.021 1151.28 209.936L1149.11 207.852C1149.02 207.766 1148.95 207.663 1148.9 207.549C1148.85 207.435 1148.83 207.312 1148.82 207.188C1148.82 207.063 1148.84 206.938 1148.88 206.821C1148.93 206.704 1148.99 206.597 1149.08 206.507L1151.22 204.269C1151.39 204.094 1151.63 203.996 1151.88 203.996C1152.13 203.996 1152.37 204.094 1152.55 204.269L1154.75 206.32ZM1167.52 190.894C1168.31 191.644 1168.99 192.503 1169.53 193.447C1170.06 194.34 1170.43 195.319 1170.61 196.339C1170.77 197.317 1170.72 198.318 1170.47 199.275C1170.2 200.181 1169.74 201.02 1169.13 201.739C1168.51 202.459 1167.76 203.042 1166.91 203.453C1166.24 203.746 1165.53 203.941 1164.81 204.031C1164.11 204.11 1163.4 204.13 1162.69 204.091L1160.69 203.98C1160.09 203.948 1159.49 203.968 1158.89 204.04C1158.36 204.099 1157.85 204.305 1157.43 204.635C1157.23 204.787 1156.99 204.878 1156.74 204.899C1156.62 204.912 1156.5 204.899 1156.38 204.859C1156.27 204.819 1156.17 204.754 1156.08 204.669L1154.15 202.831C1153.96 202.656 1153.85 202.415 1153.84 202.159C1153.83 202.034 1153.85 201.907 1153.9 201.79C1153.95 201.673 1154.02 201.569 1154.12 201.487C1154.71 200.898 1155.42 200.435 1156.19 200.126C1156.89 199.866 1157.62 199.697 1158.36 199.624C1159.08 199.564 1159.8 199.564 1160.52 199.624C1161.22 199.686 1161.89 199.729 1162.51 199.751C1163.08 199.78 1163.65 199.749 1164.21 199.658C1164.69 199.582 1165.14 199.349 1165.48 198.994C1165.77 198.685 1165.99 198.309 1166.11 197.897C1166.24 197.485 1166.26 197.05 1166.17 196.629C1165.96 195.585 1165.41 194.642 1164.6 193.949C1163.92 193.284 1163.05 192.845 1162.11 192.693C1161.18 192.541 1160.21 192.682 1159.36 193.098C1159.15 193.19 1158.92 193.245 1158.69 193.259C1158.58 193.252 1158.46 193.222 1158.36 193.169C1158.26 193.116 1158.16 193.043 1158.09 192.953L1156.03 190.988C1155.88 190.854 1155.79 190.668 1155.78 190.469C1155.77 190.363 1155.79 190.258 1155.83 190.16C1155.86 190.062 1155.92 189.973 1156 189.898C1156.64 189.286 1157.42 188.84 1158.28 188.597C1159.25 188.307 1160.26 188.188 1161.27 188.248C1162.39 188.316 1163.48 188.563 1164.51 188.98C1165.62 189.416 1166.63 190.066 1167.48 190.894H1167.52Z"
            fill="white" />
    </g>
    <defs>
        <filter id="filter0_f_2804_13580" x="0.880859" y="-19.7612" width="754.041" height="754.323"
            filterUnits="userSpaceOnUse" color-interpolation-filters="sRGB">
            <feFlood flood-opacity="0" result="BackgroundImageFix" />
            <feBlend mode="normal" in="SourceGraphic" in2="BackgroundImageFix" result="shape" />
            <feGaussianBlur stdDeviation="100" result="effect1_foregroundBlur_2804_13580" />
        </filter>
        <filter id="filter1_f_2804_13580" x="164.516" y="72.2764" width="641.352" height="570.248"
            filterUnits="userSpaceOnUse" color-interpolation-filters="sRGB">
            <feFlood flood-opacity="0" result="BackgroundImageFix" />
            <feBlend mode="normal" in="SourceGraphic" in2="BackgroundImageFix" result="shape" />
            <feGaussianBlur stdDeviation="100" result="effect1_foregroundBlur_2804_13580" />
        </filter>
        <filter id="filter2_f_2804_13580" x="329.932" y="-117.999" width="1020.83" height="1020.83"
            filterUnits="userSpaceOnUse" color-interpolation-filters="sRGB">
            <feFlood flood-opacity="0" result="BackgroundImageFix" />
            <feBlend mode="normal" in="SourceGraphic" in2="BackgroundImageFix" result="shape" />
            <feGaussianBlur stdDeviation="175" result="effect1_foregroundBlur_2804_13580" />
        </filter>
        <filter id="filter3_f_2804_13580" x="563.269" y="180.287" width="554.154" height="618.711"
            filterUnits="userSpaceOnUse" color-interpolation-filters="sRGB">
            <feFlood flood-opacity="0" result="BackgroundImageFix" />
            <feBlend mode="normal" in="SourceGraphic" in2="BackgroundImageFix" result="shape" />
            <feGaussianBlur stdDeviation="100" result="effect1_foregroundBlur_2804_13580" />
        </filter>
        <linearGradient id="paint0_linear_2804_13580" x1="177.161" y1="0" x2="177.161" y2="354.041"
            gradientUnits="userSpaceOnUse">
            <stop stop-color="#3D0F31" />
            <stop offset="1" stop-color="#C6863B" />
        </linearGradient>
        <linearGradient id="paint1_linear_2804_13580" x1="85.1238" y1="0" x2="85.1238" y2="241.352"
            gradientUnits="userSpaceOnUse">
            <stop stop-color="#3D0F31" />
            <stop offset="1" stop-color="#6D1232" />
        </linearGradient>
        <linearGradient id="paint2_linear_2804_13580" x1="840.346" y1="232.001" x2="840.346"
            y2="552.83" gradientUnits="userSpaceOnUse">
            <stop stop-color="#00C2FF" stop-opacity="0" />
            <stop offset="1" stop-color="#FF29C3" />
        </linearGradient>
        <linearGradient id="paint3_linear_2804_13580" x1="840.346" y1="380.287" x2="840.346"
            y2="598.999" gradientUnits="userSpaceOnUse">
            <stop stop-color="#FF8F98" />
            <stop offset="1" stop-color="#7C52EE" />
        </linearGradient>
    </defs>
</svg>