<svg width="715" height="698" viewBox="0 0 715 698" fill="none" xmlns="http://www.w3.org/2000/svg">
<g opacity="0.1">
<path opacity="0.1" d="M10.32 179C-39.4752 -1.44225 144.985 -19.8091 278.103 34.675C355.772 62.6954 406.778 -24.446 502.995 10.331C599.211 45.1081 483.868 154.656 631.091 210.879C778.313 267.102 706.441 518.655 577.766 521.553C449.09 524.451 484.447 566.764 355.772 663.56C227.097 760.356 10.3203 625.885 64.2246 483.878C118.129 341.872 64.224 374.331 10.32 179Z" stroke="white" stroke-width="3"/>
<path d="M287.259 319.428C281.513 302.242 308.424 274.516 330.063 286.349C349.878 297.184 370.057 289.876 383.388 294.707C418.484 307.424 405.574 314.155 421.263 329.258C440.354 347.637 449.464 395.763 405.574 395.763C369.477 395.763 380.278 413.295 353.248 421.063C326.218 428.831 295.564 415.608 295.564 380.794C295.564 367.721 296.828 348.052 287.259 319.428Z" stroke="white" stroke-width="3"/>
<path opacity="0.2" d="M35.4929 190.889C-10.2977 25.289 159.839 6.0714 282.824 56.678C355.233 83.1361 403.437 3.25233 492.118 35.307C582.778 68.0785 476.747 168.279 612.012 220.764C747.587 273.547 683.076 506.607 562.108 509.241C441.85 511.876 474.974 551.935 355.539 640.638C236.105 729.341 36.2482 605.892 85.2521 473.631C134.256 343.345 85.3665 371.065 35.4929 190.889Z" stroke="white" stroke-width="3"/>
<path opacity="0.3" d="M60.6659 202.78C18.8798 52.0207 174.694 31.9523 287.544 78.6815C354.694 103.577 400.095 30.9512 481.242 60.2834C566.345 91.0495 469.626 181.903 592.934 230.65C716.86 279.992 659.711 494.559 546.451 496.93C434.609 499.301 465.501 537.108 355.307 617.717C245.112 698.326 62.1762 585.9 106.28 463.383C150.383 344.82 106.509 367.8 60.6659 202.78Z" stroke="white" stroke-width="3"/>
<path opacity="0.4" d="M85.8391 214.67C48.0576 78.7521 189.549 57.833 292.265 100.685C354.155 124.018 396.754 58.6497 470.365 85.2595C549.913 114.02 462.505 195.527 573.855 240.535C686.133 286.437 636.346 482.511 530.795 484.618C427.368 486.726 456.028 522.28 355.074 594.796C254.12 667.312 88.1044 565.908 127.308 453.136C166.511 346.293 127.652 364.535 85.8391 214.67Z" stroke="white" stroke-width="3"/>
<path opacity="0.5" d="M111.012 226.561C77.2345 105.485 204.404 83.7154 296.984 122.69C353.616 144.461 393.412 86.3501 459.488 110.237C533.479 136.993 455.384 209.153 554.776 250.423C655.406 292.884 612.981 470.464 515.137 472.308C420.127 474.153 446.554 507.454 354.841 571.876C263.128 636.299 114.032 545.917 148.335 442.89C182.637 347.769 148.794 361.272 111.012 226.561Z" stroke="white" stroke-width="3"/>
<path opacity="0.6" d="M136.185 239.056C106.413 132.821 219.259 110.2 301.706 145.297C353.077 165.506 390.071 114.653 448.612 135.818C517.047 160.568 448.264 223.381 535.699 260.913C624.68 299.934 589.617 459.02 499.481 460.601C412.887 462.182 437.081 493.23 354.609 549.559C272.136 605.888 139.96 526.529 169.363 433.247C198.765 349.847 169.937 358.611 136.185 239.056Z" stroke="white" stroke-width="3"/>
<path opacity="0.7" d="M161.359 252.262C135.591 160.869 234.115 137.398 306.427 168.617C352.539 187.264 386.73 143.668 437.737 162.111C500.615 184.855 441.144 238.321 516.621 272.115C593.954 307.695 566.253 448.288 483.825 449.606C405.647 450.923 427.609 479.719 354.377 527.954C281.145 576.19 165.89 507.854 190.391 424.316C214.893 352.637 191.081 356.662 161.359 252.262Z" stroke="white" stroke-width="3"/>
<path opacity="0.8" d="M186.534 265.509C164.771 188.957 248.972 164.635 311.149 191.977C352.002 209.061 383.39 172.723 426.862 188.443C484.183 209.182 434.025 253.301 497.544 283.357C563.229 315.497 542.89 437.597 468.17 438.651C398.408 439.704 418.138 466.248 354.146 506.39C290.154 546.532 191.819 489.218 211.421 415.425C231.022 355.467 212.225 354.754 186.534 265.509Z" stroke="white" stroke-width="3"/>
<path opacity="0.9" d="M211.71 278.813C193.951 217.102 263.83 191.929 315.872 215.394C351.466 230.916 380.052 201.835 415.988 214.833C467.753 233.566 426.907 268.338 478.469 294.656C532.505 323.356 519.528 426.962 452.515 427.753C391.17 428.543 408.667 452.833 353.916 484.882C299.165 516.93 217.75 470.64 232.451 406.592C247.152 358.355 233.37 352.902 211.71 278.813Z" stroke="white" stroke-width="3"/>
<path d="M236.887 292.199C223.133 245.33 278.689 219.306 320.597 238.894C350.931 252.853 376.714 231.031 405.116 241.306C451.325 258.034 419.791 283.459 459.395 306.038C501.783 331.298 496.168 416.41 436.863 416.937C383.933 417.464 399.199 439.502 353.688 463.457C308.177 487.412 243.682 452.144 253.483 397.841C263.284 361.325 254.517 351.133 236.887 292.199Z" stroke="white" stroke-width="3"/>
<path d="M262.068 305.714C252.318 273.687 293.551 246.812 325.325 262.522C350.399 274.92 373.38 260.354 394.246 267.907C434.899 282.63 412.677 298.708 440.324 317.549C471.063 339.368 472.811 405.988 421.213 406.251C376.7 406.514 389.733 426.299 353.462 442.161C317.192 458.023 269.618 433.777 274.518 389.219C279.418 364.424 275.667 349.494 262.068 305.714Z" stroke="white" stroke-width="3"/>
</g>
</svg>
