<svg width="1440" height="682" viewBox="0 0 1440 682" fill="none" xmlns="http://www.w3.org/2000/svg">
<g opacity="0.03">
<path d="M-161.474 580.367C-135.967 505.422 -24.8723 357.61 215.455 365.923C515.865 376.315 703.857 603.039 987.262 659.72C1196.44 701.555 1720.34 695.618 1940.45 440.553" stroke="white" stroke-opacity="0.5" stroke-width="4"/>
<path d="M-177.561 462.009C-152.054 387.064 -40.9592 239.252 199.368 247.565C499.778 257.957 687.77 484.681 971.175 541.362C1180.35 583.197 1704.25 577.26 1924.36 322.195" stroke="white" stroke-width="4"/>
<path d="M-208.771 346.711C-183.265 271.766 -72.1702 123.955 168.157 132.268C468.567 142.66 656.559 369.384 939.964 426.065C1149.14 467.9 1673.04 461.963 1893.15 206.898" stroke="white" stroke-width="4"/>
<path d="M-265.169 217.493C-239.662 142.548 -128.568 -5.26389 111.76 3.04932C412.169 13.4408 600.162 240.165 883.567 296.846C1092.74 338.681 1616.64 332.744 1836.75 77.6793" stroke="white" stroke-opacity="0.5" stroke-width="4"/>
</g>
</svg>
