<svg width="927" height="875" viewBox="0 0 927 875" fill="none" xmlns="http://www.w3.org/2000/svg">
<path d="M256.901 606.427C263.568 610.276 263.839 616.631 257.17 620.481C250.5 624.33 239.424 624.216 232.754 620.366C226.084 616.517 226.087 610.276 232.754 606.427C239.421 602.577 250.229 602.577 256.901 606.427Z" fill="#2F2F2F"/>
<path d="M311.281 627.17L289.397 614.535C289.013 614.34 288.589 614.239 288.158 614.239C287.728 614.239 287.304 614.34 286.92 614.535L265.035 627.17C264.352 627.565 264.352 628.206 265.035 628.6L275.002 634.355L265.693 639.729C263.803 640.818 260.725 640.818 258.829 639.729L244.186 631.275C243.379 630.808 242.933 630.222 242.933 629.627C242.933 629.032 243.379 628.443 244.186 627.977L257.162 620.484C257.23 620.448 257.29 620.399 257.339 620.339C257.388 620.279 257.424 620.21 257.446 620.136C257.467 620.062 257.474 619.985 257.464 619.908C257.455 619.831 257.43 619.757 257.392 619.691C257.353 619.624 257.301 619.566 257.24 619.519C257.178 619.473 257.108 619.44 257.033 619.421C256.958 619.403 256.88 619.4 256.804 619.412C256.728 619.425 256.655 619.453 256.59 619.494L243.62 626.982C242.444 627.662 241.795 628.6 241.795 629.624C241.795 630.648 242.444 631.583 243.62 632.264L258.263 640.718C259.501 641.356 260.874 641.689 262.267 641.689C263.66 641.689 265.033 641.356 266.271 640.718L276.152 635.015L286.931 641.236C287.315 641.431 287.739 641.532 288.17 641.532C288.6 641.532 289.024 641.431 289.408 641.236L311.293 628.6C311.965 628.206 311.965 627.565 311.281 627.17Z" fill="#2F2F2F"/>
<path d="M235.969 611.569C236.875 612.121 238.079 612.141 239.215 611.744L240.073 605.738L236.069 604.714L235.969 611.569Z" fill="#FFA8A7"/>
<path d="M242.43 617.318C242.53 617.421 242.47 618.176 242.347 618.344C242.224 618.513 241.534 619.085 240.265 619.108C239.055 619.128 237.977 618.908 237.302 618.419C236.627 617.93 236.303 617.418 236.272 616.726C236.241 616.034 236.355 615.379 236.058 614.832C235.76 614.286 235.403 613.829 235.311 613.56C235.204 613.073 235.204 612.568 235.311 612.081L242.43 617.318Z" fill="#263238"/>
<path d="M239.492 611.492C239.498 611.753 239.534 612.012 239.601 612.264C239.757 612.805 239.977 613.325 240.256 613.814C240.395 614.069 240.55 614.315 240.722 614.549C241.062 615.004 241.497 615.384 241.866 615.822C242.258 616.236 242.493 616.774 242.532 617.343C242.532 618.293 241.488 618.559 240.691 618.656C239.823 618.762 238.944 618.671 238.117 618.39C237.684 618.252 237.3 617.991 237.011 617.64C236.723 617.289 236.541 616.862 236.489 616.411C236.458 616.145 236.489 615.879 236.472 615.613C236.401 615.003 236.179 614.42 235.826 613.917C235.62 613.626 235.448 613.313 235.311 612.985C235.094 612.387 235.328 611.738 235.517 611.163C235.68 610.668 235.803 610.07 235.986 610.127C235.986 610.228 235.986 610.451 235.986 610.451C236.037 610.562 236.163 610.642 236.195 610.774C236.224 610.91 236.265 611.043 236.318 611.171C236.395 611.371 236.533 611.54 236.712 611.658C236.744 611.3 236.775 610.943 236.804 610.588C236.796 610.532 236.801 610.474 236.818 610.42C236.835 610.366 236.865 610.316 236.904 610.275C236.944 610.234 236.992 610.202 237.045 610.183C237.099 610.163 237.156 610.156 237.213 610.162C237.884 610.039 238.569 610.019 239.246 610.102C239.297 610.106 239.347 610.119 239.393 610.142C239.438 610.166 239.479 610.197 239.512 610.236C239.547 610.312 239.558 610.397 239.544 610.479C239.508 610.816 239.491 611.154 239.492 611.492Z" fill="#A37EA9"/>
<path opacity="0.2" d="M239.492 611.492C239.498 611.753 239.534 612.012 239.601 612.264C239.757 612.805 239.977 613.325 240.256 613.814C240.395 614.069 240.55 614.315 240.722 614.549C241.062 615.004 241.497 615.384 241.866 615.822C242.258 616.236 242.493 616.774 242.532 617.343C242.532 618.293 241.488 618.559 240.691 618.656C239.823 618.762 238.944 618.671 238.117 618.39C237.684 618.252 237.3 617.991 237.011 617.64C236.723 617.289 236.541 616.862 236.489 616.411C236.458 616.145 236.489 615.879 236.472 615.613C236.401 615.003 236.179 614.42 235.826 613.917C235.62 613.626 235.448 613.313 235.311 612.985C235.094 612.387 235.328 611.738 235.517 611.163C235.68 610.668 235.803 610.07 235.986 610.127C235.986 610.228 235.986 610.451 235.986 610.451C236.037 610.562 236.163 610.642 236.195 610.774C236.224 610.91 236.265 611.043 236.318 611.171C236.395 611.371 236.533 611.54 236.712 611.658C236.744 611.3 236.775 610.943 236.804 610.588C236.796 610.532 236.801 610.474 236.818 610.42C236.835 610.366 236.865 610.316 236.904 610.275C236.944 610.234 236.992 610.202 237.045 610.183C237.099 610.163 237.156 610.156 237.213 610.162C237.884 610.039 238.569 610.019 239.246 610.102C239.297 610.106 239.347 610.119 239.393 610.142C239.438 610.166 239.479 610.197 239.512 610.236C239.547 610.312 239.558 610.397 239.544 610.479C239.508 610.816 239.491 611.154 239.492 611.492Z" fill="black"/>
<path d="M240.373 614.02C240.035 613.734 239.246 613.691 238.811 613.714C238.371 613.729 237.941 613.854 237.561 614.077C237.505 614.111 237.439 614.125 237.374 614.116C237.309 614.107 237.249 614.076 237.204 614.029C237.178 614.001 237.158 613.967 237.145 613.931C237.133 613.894 237.129 613.856 237.134 613.818C237.138 613.779 237.151 613.743 237.171 613.71C237.191 613.677 237.218 613.649 237.25 613.628C237.67 613.354 238.158 613.203 238.66 613.191C239.741 613.173 240.027 613.368 240.027 613.368C240.027 613.368 240.496 613.711 240.373 614.02Z" fill="#455A64"/>
<path d="M241.131 615.032C240.702 614.746 239.832 614.746 239.398 614.761C238.965 614.781 238.546 614.915 238.182 615.15C238.126 615.185 238.059 615.199 237.993 615.19C237.927 615.181 237.867 615.15 237.822 615.101C237.795 615.073 237.775 615.04 237.762 615.003C237.75 614.966 237.746 614.928 237.751 614.889C237.756 614.851 237.769 614.814 237.789 614.781C237.81 614.749 237.838 614.721 237.87 614.701C238.293 614.411 238.789 614.247 239.3 614.226C240.367 614.206 240.633 614.44 240.633 614.44C240.756 614.494 240.864 614.576 240.951 614.679C241.037 614.781 241.098 614.902 241.131 615.032Z" fill="#455A64"/>
<path d="M238.291 612.153C238.743 612.099 239.201 612.162 239.621 612.336C239.801 612.453 239.907 612.753 239.784 612.822C239.413 612.65 239.005 612.572 238.597 612.596C238.197 612.614 237.804 612.7 237.433 612.85C237.339 612.885 237.23 612.936 237.147 612.982C237.116 612.998 237.083 613.007 237.049 613.009C237.014 613.011 236.98 613.006 236.948 612.994C236.916 612.982 236.886 612.964 236.861 612.94C236.837 612.916 236.817 612.888 236.804 612.856C236.786 612.803 236.787 612.746 236.807 612.694C236.827 612.641 236.864 612.598 236.912 612.57C237.337 612.334 237.807 612.192 238.291 612.153Z" fill="#455A64"/>
<path d="M247.255 609.312C247.953 611.06 249.045 610.522 250.71 609.515L250.961 603.55L246.726 603.158L247.255 609.312Z" fill="#FFA8A7"/>
<path d="M257.099 613.519C257.176 613.8 257.143 614.1 257.007 614.357C256.876 614.598 255.551 615.255 253.821 615.044C252.538 614.886 251.321 614.386 250.298 613.597C249.66 613.122 248.976 613.005 248.118 612.907C247.26 612.81 246.617 612.513 246.448 612.101C246.279 611.689 246.537 611.008 246.537 611.008L257.099 613.519Z" fill="#263238"/>
<path d="M250.361 608.02C250.517 607.987 250.671 607.943 250.821 607.888C250.905 607.857 250.997 607.857 251.081 607.888C251.19 607.937 251.224 608.068 251.25 608.174C251.274 608.433 251.324 608.689 251.399 608.938C251.516 609.145 251.671 609.327 251.856 609.476C252.269 609.845 252.718 610.169 253.198 610.445C253.75 610.783 254.293 611.049 254.862 611.343C255.431 611.638 256.229 611.849 256.681 612.201C257.336 612.699 257.362 613.857 256.561 614.269C255.872 614.626 254.087 614.958 252.271 614.335C251.279 613.994 250.22 612.859 248.905 612.685C248.067 612.576 246.951 612.444 246.445 611.778C246.262 611.492 246.422 610.662 246.571 609.693C246.705 608.835 246.828 607.462 247.106 607.554L247.126 607.817L247.463 608.22C247.537 608.299 247.616 608.373 247.698 608.443C247.788 608.549 247.884 608.65 247.984 608.746C248.12 608.863 248.289 608.934 248.467 608.949C248.552 608.955 248.636 608.936 248.71 608.895C248.853 608.815 248.873 608.626 248.996 608.509C249.129 608.372 249.289 608.264 249.465 608.191C249.71 608.104 249.966 608.052 250.226 608.037C250.271 608.034 250.316 608.028 250.361 608.02Z" fill="#A37EA9"/>
<path opacity="0.2" d="M250.361 608.02C250.517 607.987 250.671 607.943 250.821 607.888C250.905 607.857 250.997 607.857 251.081 607.888C251.19 607.937 251.224 608.068 251.25 608.174C251.274 608.433 251.324 608.689 251.399 608.938C251.516 609.145 251.671 609.327 251.856 609.476C252.269 609.845 252.718 610.169 253.198 610.445C253.75 610.783 254.293 611.049 254.862 611.343C255.431 611.638 256.229 611.849 256.681 612.201C257.336 612.699 257.362 613.857 256.561 614.269C255.872 614.626 254.087 614.958 252.271 614.335C251.279 613.994 250.22 612.859 248.905 612.685C248.067 612.576 246.951 612.444 246.445 611.778C246.262 611.492 246.422 610.662 246.571 609.693C246.705 608.835 246.828 607.462 247.106 607.554L247.126 607.817L247.463 608.22C247.537 608.299 247.616 608.373 247.698 608.443C247.788 608.549 247.884 608.65 247.984 608.746C248.12 608.863 248.289 608.934 248.467 608.949C248.552 608.955 248.636 608.936 248.71 608.895C248.853 608.815 248.873 608.626 248.996 608.509C249.129 608.372 249.289 608.264 249.465 608.191C249.71 608.104 249.966 608.052 250.226 608.037C250.271 608.034 250.316 608.028 250.361 608.02Z" fill="black"/>
<path d="M252.44 609.936C252.385 609.817 252.301 609.714 252.196 609.636C252.091 609.557 251.969 609.506 251.839 609.487C251.461 609.396 250.772 609.642 250.335 609.965C250.293 609.995 250.26 610.035 250.237 610.081C250.214 610.127 250.204 610.178 250.205 610.23C250.207 610.281 250.221 610.331 250.247 610.376C250.272 610.42 250.308 610.458 250.352 610.485C250.407 610.519 250.471 610.534 250.535 610.531C250.599 610.527 250.661 610.504 250.712 610.465C251.196 610.069 251.817 609.879 252.44 609.936Z" fill="#455A64"/>
<path d="M253.586 610.671C253.509 610.549 253.404 610.448 253.279 610.375C253.155 610.303 253.015 610.261 252.871 610.254C252.281 610.248 251.704 610.429 251.224 610.771C251.183 610.799 251.15 610.837 251.127 610.881C251.104 610.925 251.092 610.973 251.092 611.023C251.092 611.072 251.104 611.121 251.127 611.165C251.15 611.209 251.183 611.246 251.224 611.275C251.277 611.307 251.339 611.322 251.402 611.318C251.464 611.314 251.524 611.291 251.573 611.252C251.843 611.009 252.164 610.831 252.513 610.731C252.862 610.63 253.228 610.61 253.586 610.671Z" fill="#455A64"/>
<path d="M254.862 611.34C254.773 611.227 254.66 611.134 254.532 611.068C254.404 611.001 254.263 610.964 254.118 610.957C253.549 610.962 252.995 611.146 252.537 611.483C252.497 611.513 252.465 611.552 252.443 611.596C252.422 611.641 252.412 611.69 252.413 611.739C252.415 611.789 252.429 611.837 252.453 611.88C252.478 611.923 252.512 611.96 252.554 611.987C252.606 612.022 252.668 612.039 252.73 612.035C252.793 612.031 252.852 612.007 252.9 611.967C253.155 611.716 253.466 611.529 253.806 611.42C254.147 611.311 254.509 611.284 254.862 611.34Z" fill="#455A64"/>
<path d="M235.858 595.467C235.986 592.587 236.598 591.089 236.684 590.291C236.684 590.291 236.919 574.446 237.305 569.639L251.49 569.035C251.699 574.183 251.888 588.014 251.776 589.845C251.67 591.598 250.958 606.804 250.958 606.804C248.956 607.431 246.82 606.518 246.82 606.518C246.82 606.518 245.63 597.867 245.436 595.959C245.298 594.243 245.342 592.518 245.567 590.811L244.661 578.493C244.661 578.493 243.565 588.046 243.025 591.649C242.407 595.77 239.741 608.546 239.741 608.546C237.825 609.024 235.96 608.197 235.96 608.197C235.96 608.197 235.669 599.64 235.858 595.467Z" fill="#455A64"/>
<path d="M244.663 578.505L244.932 576.806C245.758 576.683 247.852 575.376 249.09 574.232C248.208 575.567 247.015 576.667 245.613 577.438L245.57 590.817L244.663 578.505Z" fill="#37474F"/>
<path d="M250.481 560.69C249.517 558.49 247.858 554.787 247.858 554.787L247.438 548.781C248.051 548.8 248.663 548.855 249.271 548.944C250.163 549.084 251.579 549.936 252.225 551.544C252.708 552.736 255.22 560.012 255.22 560.012L259.595 557.707C260.716 556.995 261.114 555.814 261.829 555.133C262.544 554.452 263.259 554.349 264.051 553.803C264.843 553.257 265.155 552.819 265.355 553.365C265.556 553.912 264.669 554.75 264.497 554.958C264.326 555.167 263.465 555.613 264.563 555.671C265.661 555.728 267.884 554.658 268.416 554.475C268.948 554.292 268.902 554.924 268.624 555.316C268.347 555.708 268.318 556.857 267.855 557.501C267.363 558.187 267.097 558.482 266.042 558.891C265.061 559.268 263.027 559.366 261.981 559.969C260.934 560.573 258.4 562.863 256.71 564.039C254.442 565.618 253.166 565.721 252.277 564.462C251.387 563.204 250.821 561.465 250.481 560.69Z" fill="#FFA8A7"/>
<path d="M246.845 548.652C248.332 548.537 250.085 548.629 251.055 549.51C251.83 550.216 252.121 550.654 252.985 553.096C253.557 554.735 254.781 558.51 254.781 558.51C253.101 558.889 251.592 559.813 250.491 561.139L247.703 554.872L246.845 548.652Z" fill="#A2A2A2"/>
<path d="M255.22 559.998C254.466 560.264 253.817 560.766 253.369 561.428C253.369 561.428 253.475 560.284 255.085 559.6L255.22 559.998Z" fill="#F28F8F"/>
<path d="M243.284 548.383C242.58 548.354 241.875 548.431 241.194 548.612C239.887 548.958 237.544 549.616 237.544 549.616C236.801 550.002 236.512 551.289 236.343 552.029C235.805 554.4 237.201 559.751 237.416 561.836C237.63 563.921 237.167 570.308 237.167 570.308C238.765 572.161 247.428 573.391 251.647 570.308C251.647 570.308 251.83 555.644 251.415 553.539C250.786 550.353 249.851 548.841 246.553 548.649L243.284 548.383Z" fill="#B8B8B8"/>
<path d="M245.135 540.518L244.194 541.036C244.129 540.906 244.115 540.757 244.156 540.618C244.197 540.479 244.289 540.36 244.414 540.287C244.476 540.253 244.544 540.232 244.615 540.225C244.685 540.219 244.756 540.227 244.824 540.248C244.891 540.27 244.953 540.305 245.007 540.351C245.06 540.398 245.104 540.455 245.135 540.518Z" fill="#263238"/>
<path d="M249.227 540.895L248.369 540.235C248.409 540.177 248.461 540.128 248.521 540.09C248.581 540.053 248.648 540.028 248.718 540.017C248.788 540.007 248.859 540.01 248.927 540.028C248.996 540.046 249.06 540.077 249.116 540.12C249.229 540.211 249.304 540.342 249.325 540.486C249.346 540.63 249.311 540.776 249.227 540.895Z" fill="#263238"/>
<path d="M240.811 537.523C240.811 537.523 239.798 537.664 239.427 538.436C239.106 539.099 239.221 540.701 239.652 542.44C239.897 543.568 240.261 544.667 240.739 545.717C240.908 546.015 241.184 546.237 241.511 546.338L241.457 544.262L241.383 542.832C241.383 542.832 242.307 541.567 242.41 540.544C242.541 539.211 242.261 538.665 242.261 538.665L240.811 537.523Z" fill="#263238"/>
<path d="M242.443 539.526C242.447 540.55 242.857 541.532 243.584 542.255C244.31 542.977 245.294 543.382 246.319 543.381C248.452 543.381 250.054 541.622 250.037 539.486C250.02 537.349 248.418 535.639 246.281 535.647C245.259 535.655 244.281 536.067 243.562 536.794C242.842 537.521 242.44 538.503 242.443 539.526Z" fill="#263238"/>
<path d="M241.457 542.589C241.108 542.892 240.825 542.111 240.533 541.805C240.242 541.499 239.284 541.087 238.817 542.091C238.351 543.095 239.235 544.551 239.961 544.831C240.181 544.914 240.422 544.921 240.645 544.85C240.869 544.78 241.062 544.636 241.194 544.442V549.018C242.295 551.003 244.237 550.94 245.275 550.829C246.313 550.717 246.539 549.639 245.782 548.769V547.339C246.358 547.43 246.943 547.458 247.526 547.422C248.476 547.274 248.956 546.564 249.242 545.526C249.7 543.87 249.886 541.09 249.242 537.878C248.178 537.055 244.489 537.192 242.255 538.608C242.43 541.488 241.789 542.289 241.457 542.589Z" fill="#FFA8A7"/>
<path d="M249.431 536.288C249.574 535.692 249.639 535.079 249.622 534.466C249.622 534.226 249.562 533.934 249.336 533.843C249.11 533.751 248.887 533.917 248.693 534.049C247.869 534.604 246.845 534.761 245.853 534.815C244.137 534.91 241.514 534.798 240.642 536.677C240.399 537.198 240.356 537.747 240.836 538.107C241.265 538.394 241.755 538.576 242.266 538.639C243.124 538.791 243.982 538.979 244.863 539.097C245.744 539.214 246.791 539.328 247.663 539.059C248.398 538.833 249.145 538.639 249.691 538.056C250.164 537.547 250.432 536.88 250.44 536.185C250.44 536.088 250.42 535.965 250.323 535.939C250.274 535.933 250.225 535.943 250.183 535.968L249.431 536.288Z" fill="#263238"/>
<path d="M245.772 547.371C245.772 547.371 243.65 546.95 242.912 546.558C242.475 546.332 242.117 545.979 241.883 545.546C241.992 545.979 242.186 546.385 242.455 546.741C243.001 547.433 245.767 547.934 245.767 547.934L245.772 547.371Z" fill="#F28F8F"/>
<path d="M245.347 541.922C245.344 542.016 245.313 542.107 245.259 542.183C245.205 542.26 245.13 542.319 245.042 542.353C244.955 542.387 244.859 542.394 244.767 542.374C244.676 542.354 244.592 542.308 244.527 542.241C244.461 542.173 244.417 542.088 244.4 541.996C244.382 541.904 244.393 541.808 244.429 541.722C244.466 541.635 244.527 541.562 244.605 541.51C244.683 541.458 244.775 541.43 244.869 541.43C244.997 541.432 245.12 541.485 245.209 541.578C245.299 541.67 245.348 541.794 245.347 541.922Z" fill="#263238"/>
<path d="M246.033 545.226C246.035 545.346 245.99 545.463 245.906 545.551C245.822 545.638 245.708 545.689 245.587 545.692C245.465 545.689 245.349 545.639 245.265 545.552C245.18 545.464 245.133 545.347 245.135 545.226C245.134 545.166 245.144 545.106 245.166 545.051C245.188 544.995 245.221 544.944 245.262 544.901C245.303 544.858 245.353 544.824 245.408 544.8C245.462 544.776 245.521 544.763 245.581 544.762C245.702 544.764 245.817 544.814 245.902 544.901C245.987 544.988 246.034 545.104 246.033 545.226Z" fill="#B16668"/>
<path d="M244.746 540.421L243.762 541.041C243.681 540.906 243.655 540.745 243.69 540.591C243.725 540.438 243.819 540.304 243.951 540.218C244.016 540.178 244.088 540.151 244.164 540.14C244.24 540.128 244.317 540.132 244.391 540.151C244.465 540.17 244.535 540.204 244.596 540.25C244.657 540.296 244.708 540.354 244.746 540.421Z" fill="#263238"/>
<path d="M248.218 539.814L249.253 540.278C249.225 540.346 249.184 540.407 249.131 540.459C249.079 540.51 249.016 540.551 248.948 540.577C248.88 540.604 248.806 540.617 248.733 540.614C248.66 540.612 248.587 540.595 248.521 540.564C248.386 540.5 248.279 540.387 248.223 540.248C248.167 540.109 248.165 539.955 248.218 539.814Z" fill="#263238"/>
<path d="M248.764 541.779C248.761 541.87 248.731 541.957 248.679 542.03C248.626 542.103 248.553 542.16 248.469 542.192C248.385 542.224 248.293 542.231 248.205 542.212C248.117 542.192 248.037 542.148 247.974 542.083C247.911 542.018 247.868 541.936 247.852 541.848C247.835 541.759 247.845 541.667 247.88 541.584C247.914 541.501 247.973 541.43 248.048 541.38C248.123 541.329 248.211 541.302 248.301 541.302C248.426 541.304 248.544 541.356 248.631 541.445C248.718 541.534 248.766 541.655 248.764 541.779Z" fill="#263238"/>
<path d="M246.425 540.973L246.596 544.153L248.104 543.753L246.425 540.973Z" fill="#F28F8F"/>
<path d="M219.721 554.072C220.216 554.338 222.232 555.756 223.327 555.879C223.791 555.931 223.916 555.856 223.899 555.736C223.876 555.57 223.582 555.322 223.51 555.187C223.387 554.953 222.652 553.98 222.938 553.471C223.224 552.962 223.473 553.448 224.154 554.115C224.835 554.781 225.532 555.013 226.13 555.788C226.728 556.563 226.928 557.79 227.918 558.679L231.859 561.37C231.859 561.37 233.695 552.851 234.501 551.847C235.359 550.791 239.04 553.091 238.268 556.446C237.496 559.8 235.737 565.623 234.513 566.764C233.723 567.505 232.062 566.807 229.988 564.963C228.349 563.504 226.104 561.316 225.155 560.541C224.205 559.766 222.232 559.348 221.325 558.825C220.35 558.253 220.136 557.918 219.761 557.161C219.409 556.448 219.566 555.307 219.358 554.873C219.149 554.438 219.218 553.806 219.721 554.072Z" fill="#FFA8A7"/>
<path d="M237.544 549.616C238.808 550.405 238.871 551.555 238.934 552.87C238.952 554.41 238.709 555.942 238.214 557.401C237.679 559.057 236.829 562.08 236.829 562.08C236.829 562.08 233.529 562.157 231.83 560.69C231.83 560.69 232.605 557.429 233.151 554.97C233.698 552.51 234.361 549.893 237.544 549.616Z" fill="#A2A2A2"/>
<path d="M231.845 561.376C232.746 561.877 233.275 562.952 233.438 563.378C233.399 562.882 233.243 562.402 232.982 561.978C232.722 561.554 232.364 561.198 231.939 560.938L231.845 561.376Z" fill="#F28F8F"/>
<path d="M266.084 623.189L288.157 635.933V640.629L266.084 627.885V623.189Z" fill="#A37EA9"/>
<path opacity="0.35" d="M266.084 623.189L288.157 635.933V640.629L266.084 627.885V623.189Z" fill="black"/>
<path d="M310.231 623.189L288.157 635.933V640.629L310.231 627.885V623.189Z" fill="#A37EA9"/>
<path opacity="0.2" d="M310.231 623.189L288.157 635.933V640.629L310.231 627.885V623.189Z" fill="black"/>
<path d="M310.231 623.189L288.157 610.448L266.084 623.189L288.157 635.933L310.231 623.189Z" fill="#A37EA9"/>
<path opacity="0.15" d="M310.231 623.189L288.157 610.448L266.084 623.189L288.157 635.933L310.231 623.189Z" fill="black"/>
<path opacity="0.1" d="M288.157 635.933V634.592L268.406 623.189H266.084L288.157 635.933Z" fill="black"/>
<path opacity="0.1" d="M288.157 610.448V611.789L307.908 623.189H310.231L288.157 610.448Z" fill="black"/>
<path d="M310.231 623.189H307.908L288.157 634.592V635.933L310.231 623.189Z" fill="#A37EA9"/>
<path d="M288.157 610.448V611.789L268.406 623.189H266.084L288.157 610.448Z" fill="#A37EA9"/>
<path d="M288.237 617.658L297.721 623.132C298.43 623.544 298.43 624.207 297.721 624.616L290.648 628.712C290.25 628.915 289.809 629.021 289.361 629.021C288.914 629.021 288.473 628.915 288.074 628.712L278.591 623.238C277.881 622.826 277.881 622.162 278.591 621.753L285.666 617.658C286.064 617.455 286.505 617.349 286.952 617.349C287.399 617.349 287.839 617.455 288.237 617.658Z" fill="#37474F"/>
<path d="M290.648 628.712L297.487 624.762L288.237 619.423C287.838 619.221 287.397 619.117 286.95 619.117C286.503 619.117 286.063 619.221 285.663 619.423L278.825 623.378L288.074 628.712C288.473 628.916 288.914 629.022 289.361 629.022C289.809 629.022 290.25 628.916 290.648 628.712Z" fill="#455A64"/>
<path d="M282.509 623.198L286.659 620.804C286.736 620.765 286.821 620.745 286.908 620.745C286.994 620.745 287.079 620.765 287.157 620.804L287.666 621.09C287.803 621.167 287.803 621.296 287.666 621.376L283.516 623.77C283.439 623.809 283.354 623.829 283.268 623.829C283.182 623.829 283.098 623.809 283.021 623.77L282.512 623.484C282.482 623.474 282.456 623.455 282.438 623.429C282.42 623.404 282.41 623.373 282.409 623.342C282.409 623.31 282.418 623.28 282.436 623.254C282.454 623.228 282.48 623.209 282.509 623.198Z" fill="#263238"/>
<path d="M288.706 626.781L292.856 624.388C292.933 624.349 293.018 624.329 293.104 624.329C293.19 624.329 293.274 624.349 293.351 624.388L293.863 624.674C294 624.751 294 624.879 293.863 624.96L289.713 627.353C289.636 627.392 289.552 627.412 289.466 627.412C289.38 627.412 289.295 627.392 289.218 627.353L288.709 627.067C288.679 627.057 288.654 627.038 288.635 627.013C288.617 626.987 288.607 626.957 288.606 626.925C288.606 626.894 288.616 626.863 288.633 626.837C288.651 626.812 288.677 626.792 288.706 626.781Z" fill="#263238"/>
<path d="M278.568 632.464C278.545 632.03 278.419 631.608 278.202 631.231C277.984 630.855 277.68 630.536 277.316 630.299C277.19 630.207 277.041 630.151 276.886 630.135C276.73 630.12 276.573 630.147 276.432 630.213L275.891 630.528C275.764 630.618 275.663 630.74 275.599 630.882C275.534 631.023 275.509 631.18 275.525 631.335C275.549 631.769 275.674 632.191 275.892 632.568C276.109 632.944 276.411 633.264 276.775 633.502C276.902 633.594 277.051 633.651 277.207 633.666C277.363 633.681 277.52 633.654 277.662 633.588L278.199 633.265C278.326 633.176 278.426 633.055 278.491 632.914C278.556 632.774 278.583 632.618 278.568 632.464Z" fill="#A37EA9"/>
<path opacity="0.1" d="M276.774 630.622C277.139 630.859 277.443 631.178 277.66 631.555C277.878 631.931 278.004 632.353 278.027 632.787C278.027 633.585 277.455 633.908 276.774 633.511C276.41 633.273 276.108 632.953 275.891 632.576C275.674 632.199 275.548 631.777 275.524 631.343C275.524 630.548 276.085 630.225 276.774 630.622Z" fill="black"/>
<path d="M262.266 639.757C260.87 639.781 259.492 639.447 258.262 638.787L243.619 630.333C242.443 629.652 241.794 628.714 241.794 627.691C241.794 626.667 242.443 625.731 243.619 625.051L260.584 615.255C262.443 614.183 264.016 611.463 264.016 609.315V555.624C264.016 555.473 264.076 555.327 264.184 555.22C264.291 555.113 264.436 555.052 264.588 555.052C264.74 555.052 264.885 555.113 264.993 555.22C265.1 555.327 265.16 555.473 265.16 555.624V609.315C265.16 611.906 263.404 614.952 261.156 616.248L244.191 626.043C243.384 626.509 242.938 627.093 242.938 627.691C242.938 628.288 243.384 628.875 244.191 629.341L258.834 637.795C260.724 638.887 263.802 638.887 265.698 637.795L276.494 631.566C276.559 631.524 276.632 631.497 276.708 631.484C276.784 631.472 276.862 631.475 276.937 631.493C277.012 631.511 277.083 631.545 277.144 631.591C277.206 631.637 277.258 631.696 277.296 631.762C277.335 631.829 277.36 631.903 277.369 631.98C277.378 632.056 277.372 632.134 277.351 632.208C277.329 632.282 277.293 632.351 277.244 632.411C277.195 632.47 277.135 632.52 277.066 632.555L266.27 638.787C265.04 639.448 263.661 639.782 262.266 639.757Z" fill="#37474F"/>
<path d="M236.571 535.092C236.563 535.054 236.563 535.014 236.571 534.975C236.578 534.936 236.594 534.899 236.617 534.866C236.639 534.833 236.667 534.804 236.701 534.781C236.734 534.759 236.772 534.744 236.812 534.738L238.202 534.469C238.241 534.46 238.281 534.46 238.321 534.467C238.36 534.475 238.398 534.491 238.43 534.515C238.497 534.56 238.543 534.63 238.559 534.709L238.774 535.825C238.782 535.864 238.782 535.904 238.773 535.943C238.765 535.982 238.748 536.018 238.725 536.051C238.704 536.085 238.676 536.114 238.643 536.137C238.61 536.159 238.573 536.175 238.533 536.182L237.141 536.448C237.102 536.457 237.062 536.457 237.023 536.449C236.984 536.441 236.947 536.425 236.915 536.402C236.881 536.381 236.852 536.352 236.83 536.319C236.807 536.285 236.792 536.247 236.786 536.208L236.571 535.092ZM235.41 529.069C235.402 529.03 235.402 528.99 235.41 528.95C235.418 528.911 235.433 528.874 235.456 528.84C235.478 528.807 235.507 528.779 235.54 528.757C235.574 528.735 235.611 528.719 235.65 528.712L237.043 528.443C237.082 528.435 237.122 528.435 237.161 528.443C237.2 528.452 237.237 528.468 237.269 528.492C237.303 528.513 237.332 528.541 237.354 528.574C237.376 528.607 237.391 528.644 237.398 528.683L238.31 533.451C238.318 533.49 238.318 533.53 238.31 533.569C238.301 533.608 238.285 533.645 238.262 533.677C238.24 533.71 238.212 533.739 238.179 533.761C238.146 533.783 238.109 533.798 238.07 533.805L236.677 534.074C236.638 534.082 236.598 534.082 236.559 534.074C236.52 534.065 236.483 534.049 236.451 534.026C236.418 534.004 236.389 533.976 236.367 533.943C236.345 533.91 236.33 533.873 236.323 533.834L235.41 529.069Z" fill="#A37EA9"/>
<path d="M234.249 539.76C234.223 539.73 234.202 539.696 234.189 539.658C234.175 539.62 234.17 539.58 234.172 539.541C234.174 539.501 234.184 539.462 234.201 539.426C234.218 539.39 234.243 539.357 234.272 539.331L235.328 538.384C235.357 538.357 235.392 538.336 235.43 538.324C235.468 538.311 235.508 538.306 235.548 538.31C235.588 538.311 235.627 538.32 235.662 538.336C235.698 538.353 235.73 538.377 235.757 538.407L236.515 539.265C236.541 539.295 236.562 539.329 236.575 539.367C236.589 539.405 236.594 539.444 236.592 539.484C236.59 539.524 236.58 539.563 236.563 539.599C236.546 539.635 236.521 539.667 236.492 539.694L235.451 540.629C235.421 540.656 235.386 540.677 235.348 540.69C235.31 540.703 235.27 540.707 235.23 540.704C235.191 540.703 235.152 540.694 235.116 540.677C235.08 540.66 235.048 540.636 235.022 540.606L234.249 539.76ZM230.157 535.184C230.103 535.124 230.075 535.044 230.08 534.964C230.081 534.924 230.09 534.885 230.108 534.849C230.125 534.813 230.149 534.781 230.18 534.755L231.235 533.808C231.264 533.781 231.299 533.759 231.337 533.746C231.375 533.733 231.415 533.728 231.455 533.731C231.495 533.732 231.534 533.742 231.57 533.759C231.606 533.776 231.638 533.801 231.664 533.831L234.902 537.452C234.929 537.481 234.949 537.516 234.962 537.554C234.975 537.592 234.98 537.632 234.976 537.672C234.975 537.712 234.966 537.751 234.949 537.787C234.932 537.823 234.908 537.855 234.879 537.881L233.82 538.827C233.791 538.854 233.757 538.875 233.72 538.887C233.682 538.9 233.642 538.905 233.603 538.902C233.563 538.901 233.523 538.892 233.487 538.876C233.45 538.859 233.418 538.835 233.391 538.805L230.157 535.184Z" fill="#A37EA9"/>
<g opacity="0.6">
<path d="M234.249 539.76C234.223 539.73 234.202 539.696 234.189 539.658C234.175 539.62 234.17 539.58 234.172 539.541C234.174 539.501 234.184 539.462 234.201 539.426C234.218 539.39 234.243 539.357 234.272 539.331L235.328 538.384C235.357 538.357 235.392 538.336 235.43 538.324C235.468 538.311 235.508 538.306 235.548 538.31C235.588 538.311 235.627 538.32 235.662 538.336C235.698 538.353 235.73 538.377 235.757 538.407L236.515 539.265C236.541 539.295 236.562 539.329 236.575 539.367C236.589 539.405 236.594 539.444 236.592 539.484C236.59 539.524 236.58 539.563 236.563 539.599C236.546 539.635 236.521 539.667 236.492 539.694L235.451 540.629C235.421 540.656 235.386 540.677 235.348 540.69C235.31 540.703 235.27 540.707 235.23 540.704C235.191 540.703 235.152 540.694 235.116 540.677C235.08 540.66 235.048 540.636 235.022 540.606L234.249 539.76ZM230.157 535.184C230.103 535.124 230.075 535.044 230.08 534.964C230.081 534.924 230.09 534.885 230.108 534.849C230.125 534.813 230.149 534.781 230.18 534.755L231.235 533.808C231.264 533.781 231.299 533.759 231.337 533.746C231.375 533.733 231.415 533.728 231.455 533.731C231.495 533.732 231.534 533.742 231.57 533.759C231.606 533.776 231.638 533.801 231.664 533.831L234.902 537.452C234.929 537.481 234.949 537.516 234.962 537.554C234.975 537.592 234.98 537.632 234.976 537.672C234.975 537.712 234.966 537.751 234.949 537.787C234.932 537.823 234.908 537.855 234.879 537.881L233.82 538.827C233.791 538.854 233.757 538.875 233.72 538.887C233.682 538.9 233.642 538.905 233.603 538.902C233.563 538.901 233.523 538.892 233.487 538.876C233.45 538.859 233.418 538.835 233.391 538.805L230.157 535.184Z" fill="#C7C7C7"/>
</g>
<path d="M574.306 491.068C588.707 491.068 600.382 484.328 600.382 476.013C600.382 467.698 588.707 460.957 574.306 460.957C559.905 460.957 548.23 467.698 548.23 476.013C548.23 484.328 559.905 491.068 574.306 491.068Z" fill="#2F2F2F"/>
<path d="M587.565 464.241C587.565 464.241 588.755 446.618 588.421 440.121C588.143 434.986 587.445 432.846 587.3 431.686C587.3 431.686 586.037 419.703 585.935 409.479C585.883 404.566 585.43 401.074 582.738 395.237L565.435 399.375C565.085 401.969 563.895 419.215 563.612 434.549C563.368 447.974 563.749 459.726 563.749 459.726V460.432C563.749 461.22 563.578 461.767 563.073 463.026C562.442 464.647 561.536 466.147 560.394 467.459C560.039 467.844 557.57 470.001 557.244 470.455C556.183 471.692 558.383 472.389 560.013 472.167C561.725 471.936 564.404 471.281 565.149 470.237C565.654 469.535 566.035 467.091 566.552 466.385C568.303 463.997 569.022 462.961 569.035 462.208C569.06 460.83 568.585 460.287 568.414 459.508C568.555 457.882 572.069 444.508 572.129 439.77C572.159 437.515 572.005 434.408 572.005 434.408L574.726 418.779C575.779 422.682 577.628 432.371 578.253 436.09C579.01 440.635 580.992 452.301 582.164 459.26C582.614 461.943 582.823 463.3 583.02 464.545L583.067 465.076C583.106 465.752 583.598 472.984 583.863 474.491C584.42 477.653 587.231 477.255 587.681 474.696C588.066 472.522 587.587 465.777 587.574 464.951L587.565 464.241Z" fill="#FFA8A7"/>
<path d="M587.566 464.24C588.362 464.24 587.84 467.326 588.045 469.299C588.264 471.417 588.957 472.966 589.158 474.7C589.428 476.214 589.195 477.776 588.495 479.146C587.943 480.43 585.161 482.142 584.104 480.34C583.047 478.538 582.82 476.454 582.944 474.477C583.068 472.5 582.944 471.173 582.983 469.62C583.021 468.25 582.015 464.754 583.047 464.557L583.094 465.088C583.466 465.828 587.224 465.973 587.6 464.972L587.566 464.24Z" fill="#37474F"/>
<path d="M569.215 463.89C569.459 464.878 569.215 467.592 569.215 467.592C569.215 467.592 568.787 468.529 567.259 469.149L566.574 465.375L569.215 463.89Z" fill="#263238"/>
<path d="M567.25 469.149L563.886 468.045L563.073 465.058L566.856 466.971L567.25 469.149Z" fill="black"/>
<path d="M563.75 460.432V459.726C563.292 459.948 562.286 463.633 560.925 466.145C559.684 468.452 557.224 469.736 556.423 470.741C555.353 472.081 557.433 473.814 560.767 473.099C562.423 472.744 564.931 471.687 565.612 470.57C566.292 469.453 566.519 467.399 567.075 466.577C567.632 465.756 568.954 464.81 569.215 463.877C569.432 463.035 569.432 462.151 569.215 461.309C568.954 460.453 568.723 459.43 568.432 459.525V460.171C568.209 460.624 567.4 461.155 565.719 461.249C564.897 461.288 564.118 461.164 563.75 460.432Z" fill="#37474F"/>
<path d="M565.085 399.152C565.085 399.152 563.943 411.85 563.575 423.092C563.207 434.335 563.536 448.843 563.536 448.843C563.536 448.843 564.696 449.673 567.251 449.788C569.806 449.904 570.674 449.052 570.674 449.052C570.674 449.052 572.236 443.955 572.48 440.369C572.635 438.428 572.635 436.477 572.48 434.536L574.761 419.532C574.761 419.532 577.654 434.305 577.984 436.089C578.314 437.874 581.082 453.661 581.082 453.661C581.082 453.661 582.169 454.663 584.96 454.612C587.429 454.564 588.144 453.679 588.144 453.679C588.144 453.679 588.739 443.998 588.602 439.864C588.486 436.218 587.652 433.316 587.485 430.95C587.318 428.583 587.224 415.115 587.057 409.98C586.89 404.844 586.462 400.436 582.067 394.256L565.085 399.152Z" fill="#455A64"/>
<path d="M574.779 419.545L572.878 410.13C572.878 410.13 569.57 409.274 568.025 407.245C568.025 407.245 568.453 409.488 571.877 410.921L573.897 420.285L573.195 429.966L574.779 419.545Z" fill="#37474F"/>
<path d="M540.911 396.811C542.129 396.997 543.374 396.905 544.552 396.541C544.035 396.283 543.551 395.962 543.11 395.587C542.908 395.425 542.777 395.19 542.745 394.933C542.713 394.675 542.783 394.416 542.939 394.209C543.097 394.038 543.491 394.436 544.381 394.688C545.52 395.009 546.346 395.078 547.441 395.711C547.855 395.952 548.34 396.037 548.811 395.951C551.481 395.45 557.708 392.527 560.562 391.004C561.144 388.628 562.154 385.136 563.4 380.78C564.551 376.765 566.396 375.011 569.34 375.075L568.916 383.792C568.916 383.792 567.513 389.814 565.775 394.731C565.471 395.587 564.251 396.584 562.018 397.414C559.125 398.489 555.632 399.503 551.366 400.671C549.637 401.164 547.87 401.514 546.085 401.72C541.574 402.105 539.845 400.864 539.237 399.974C537.508 397.517 538.531 396.336 540.911 396.811Z" fill="#FFA8A7"/>
<path d="M576.927 375.011L581.044 375.327C580.689 377.001 580.79 378.738 581.335 380.359C581.879 381.981 582.849 383.426 584.142 384.546L582.306 391.941C582.366 392.857 583.881 395.938 585.349 399.25C582.589 402.948 569.048 404.21 564.631 400.962C565.312 397.479 565.821 394.834 565.958 393.511L565.736 388.731C560.198 384.19 566.878 377.27 569.339 375.071L572.429 374.934L576.927 375.011Z" fill="#A37EA9"/>
<path d="M594.264 411.854C593.965 411.62 593.728 411.317 593.574 410.971C593.421 410.625 593.355 410.246 593.382 409.868C593.455 409.179 593.613 408.314 593.9 407.98C594.187 407.647 595.984 405.203 596.78 406.624C597.636 408.173 597.46 408.802 597.46 408.802L594.264 411.854Z" fill="#F28F8F"/>
<path d="M588.718 444.515C586.786 444.451 584.905 443.881 583.262 442.863L561.893 430.521C558.594 428.616 555.902 423.964 555.902 420.151V402.224C555.9 401.624 555.74 401.035 555.439 400.517C555.138 399.998 554.705 399.567 554.185 399.268C553.665 398.969 553.075 398.812 552.475 398.812C551.875 398.813 551.286 398.971 550.767 399.271L543.286 403.602C543.188 403.664 543.079 403.706 542.966 403.724C542.852 403.743 542.735 403.739 542.623 403.711C542.511 403.684 542.405 403.634 542.313 403.565C542.221 403.495 542.143 403.408 542.086 403.308C542.028 403.208 541.991 403.098 541.977 402.983C541.963 402.868 541.972 402.752 542.005 402.641C542.037 402.53 542.091 402.427 542.164 402.338C542.237 402.249 542.328 402.175 542.43 402.121L549.932 397.786C550.712 397.336 551.597 397.099 552.497 397.098C553.398 397.098 554.283 397.334 555.063 397.784C555.844 398.233 556.492 398.88 556.944 399.66C557.395 400.439 557.634 401.323 557.635 402.224V420.151C557.635 423.361 559.989 427.427 562.771 429.04L584.139 441.374C586.874 442.953 589.411 443.227 591.277 442.153C593.143 441.079 594.175 438.729 594.175 435.584V412.696C594.175 408.819 596.652 404.351 599.815 402.524L605.032 399.528C605.129 399.466 605.238 399.424 605.352 399.406C605.466 399.387 605.583 399.391 605.695 399.419C605.807 399.446 605.912 399.496 606.005 399.566C606.097 399.635 606.174 399.722 606.232 399.822C606.29 399.922 606.327 400.032 606.341 400.147C606.355 400.262 606.345 400.378 606.313 400.489C606.281 400.6 606.227 400.703 606.154 400.792C606.08 400.882 605.99 400.955 605.888 401.009L600.671 404.004C598.078 405.502 595.886 409.478 595.886 412.692V435.579C595.886 439.371 594.551 442.23 592.133 443.629C591.094 444.224 589.915 444.53 588.718 444.515Z" fill="#37474F"/>
<path d="M551.798 404.839V406.239C551.798 408.477 550.228 411.203 548.285 412.32L535.326 419.805L522.149 412.196V400.787L534.928 394.872C536.961 393.935 540.179 394.08 542.122 395.197L548.276 398.754C550.215 399.875 551.798 402.601 551.798 404.839Z" fill="#37474F"/>
<path d="M534.928 394.872C536.961 393.935 540.179 394.08 542.122 395.197L548.276 398.754C550.215 399.871 550.138 401.54 548.105 402.481L535.313 408.387L522.132 400.782L534.928 394.872Z" fill="#455A64"/>
<path opacity="0.15" d="M536.559 405.648C537.069 405.981 537.494 406.43 537.799 406.958C538.104 407.486 538.28 408.078 538.313 408.687V418.072L535.317 419.784L522.141 412.175V400.787L525.479 399.246L536.559 405.648Z" fill="black"/>
<path d="M521.016 398.822C521.213 398.73 521.432 398.693 521.648 398.714C521.865 398.735 522.072 398.814 522.248 398.942L535.207 406.427C535.718 406.76 536.144 407.21 536.449 407.739C536.753 408.267 536.929 408.861 536.962 409.47V420.631C536.985 420.848 536.95 421.068 536.859 421.266C536.769 421.465 536.627 421.636 536.448 421.761C536.148 421.928 535.091 422.54 534.796 422.715C534.598 422.807 534.379 422.844 534.161 422.823C533.944 422.802 533.736 422.724 533.559 422.596L520.596 415.111C520.086 414.777 519.661 414.329 519.356 413.801C519.051 413.273 518.875 412.681 518.842 412.072V400.911C518.819 400.694 518.854 400.474 518.944 400.275C519.033 400.076 519.174 399.904 519.351 399.777L521.016 398.822Z" fill="#37474F"/>
<path d="M533.558 407.377L520.595 399.897C519.628 399.336 518.841 399.79 518.841 400.911V412.072C518.874 412.681 519.05 413.273 519.355 413.801C519.66 414.329 520.085 414.777 520.595 415.111L533.558 422.596C534.526 423.156 535.313 422.703 535.313 421.581V410.42C535.28 409.811 535.103 409.218 534.799 408.689C534.494 408.161 534.069 407.711 533.558 407.377Z" fill="#455A64"/>
<path d="M518.208 420.37V422.3C518.208 423.084 518.478 423.627 518.923 423.884L520.087 424.556C520.366 424.692 520.676 424.749 520.985 424.722C521.294 424.695 521.59 424.584 521.841 424.402L532.54 418.213V410.596L531.376 409.924L520.656 416.112C519.942 416.58 519.348 417.209 518.923 417.949C518.498 418.689 518.253 419.518 518.208 420.37ZM523.057 417.982C523.098 418.121 523.121 418.265 523.125 418.41C523.095 418.982 522.93 419.539 522.643 420.035C522.357 420.531 521.958 420.952 521.478 421.265C521.344 421.343 521.2 421.401 521.05 421.436C521.012 421.296 520.992 421.153 520.99 421.008C521.021 420.436 521.186 419.88 521.472 419.384C521.758 418.888 522.158 418.466 522.637 418.153C522.77 418.081 522.911 418.024 523.057 417.982Z" fill="#A37EA9"/>
<path opacity="0.2" d="M520.026 424.513C520.048 424.533 520.073 424.55 520.099 424.565L520.056 424.539L518.931 423.884C518.481 423.636 518.216 423.092 518.216 422.305V420.375C518.244 419.517 518.493 418.681 518.939 417.948L520.103 418.62C519.661 419.355 519.414 420.19 519.384 421.047V422.977C519.353 423.477 519.514 423.97 519.834 424.355C519.891 424.415 519.956 424.468 520.026 424.513Z" fill="black"/>
<path opacity="0.5" d="M532.539 410.596L521.84 416.784C521.114 417.236 520.516 417.867 520.103 418.616L518.938 417.944C519.352 417.196 519.948 416.566 520.672 416.112L531.392 409.924L532.539 410.596Z" fill="white"/>
<path opacity="0.2" d="M523.125 418.41C523.125 418.256 523.104 418.102 523.065 417.952C523.771 417.76 524.289 418.201 524.289 419.082C524.258 419.654 524.094 420.21 523.808 420.706C523.523 421.201 523.124 421.623 522.646 421.937C521.884 422.365 521.233 422.146 521.054 421.436C521.205 421.403 521.349 421.345 521.482 421.265C521.96 420.951 522.358 420.529 522.644 420.033C522.929 419.538 523.094 418.982 523.125 418.41Z" fill="black"/>
<path d="M508.326 414.661V416.595C508.326 417.374 508.596 417.922 509.041 418.174L510.205 418.851C510.484 418.983 510.793 419.038 511.1 419.01C511.408 418.981 511.702 418.87 511.951 418.688L522.65 412.495V404.891L521.486 404.214L510.787 410.403C510.071 410.87 509.476 411.498 509.048 412.238C508.621 412.978 508.373 413.808 508.326 414.661ZM513.175 412.26C513.214 412.41 513.234 412.563 513.235 412.718C513.204 413.29 513.039 413.846 512.752 414.342C512.466 414.838 512.067 415.26 511.587 415.572C511.452 415.646 511.308 415.703 511.159 415.744C511.118 415.597 511.098 415.446 511.099 415.294C511.13 414.723 511.295 414.167 511.58 413.671C511.866 413.175 512.264 412.753 512.743 412.44C512.878 412.36 513.023 412.299 513.175 412.26Z" fill="#A37EA9"/>
<path opacity="0.2" d="M510.256 418.881H510.235H510.205L509.041 418.2C508.592 417.948 508.326 417.404 508.326 416.617V414.687C508.331 414.275 508.396 413.865 508.519 413.471C508.648 413.05 508.824 412.646 509.045 412.265L510.209 412.932C510.099 413.123 510 413.32 509.914 413.523C509.648 414.098 509.503 414.721 509.486 415.355V417.285C509.449 417.782 509.602 418.274 509.914 418.663C510.015 418.754 510.131 418.828 510.256 418.881Z" fill="black"/>
<path opacity="0.5" d="M522.662 404.891L511.963 411.079C511.236 411.53 510.638 412.161 510.226 412.91L509.062 412.243C509.467 411.495 510.056 410.862 510.773 410.403L521.472 404.214L522.662 404.891Z" fill="white"/>
<path opacity="0.2" d="M513.23 412.714C513.231 412.561 513.212 412.409 513.174 412.26C513.876 412.064 514.398 412.509 514.398 413.39C514.368 413.962 514.203 414.518 513.917 415.014C513.632 415.509 513.234 415.931 512.755 416.245C511.989 416.673 511.343 416.454 511.163 415.74C511.315 415.708 511.459 415.65 511.591 415.569C512.069 415.255 512.467 414.833 512.752 414.337C513.037 413.841 513.201 413.285 513.23 412.714Z" fill="black"/>
<path d="M511.57 407.519C511.427 407.519 511.288 407.471 511.176 407.384C511.063 407.296 510.983 407.173 510.949 407.035L509.237 400.325C509.195 400.159 509.219 399.984 509.306 399.837C509.393 399.69 509.534 399.584 509.699 399.541C509.864 399.499 510.04 399.524 510.187 399.61C510.334 399.697 510.44 399.838 510.483 400.004L512.194 406.718C512.216 406.8 512.221 406.885 512.21 406.968C512.198 407.052 512.17 407.132 512.127 407.205C512.084 407.277 512.027 407.341 511.959 407.391C511.891 407.441 511.814 407.477 511.732 407.497C511.679 407.511 511.624 407.518 511.57 407.519Z" fill="#E0E0E0"/>
<path d="M506.751 410.317C506.606 410.317 506.466 410.269 506.353 410.18L499.98 405.143C499.91 405.092 499.851 405.028 499.806 404.954C499.761 404.879 499.732 404.797 499.72 404.711C499.708 404.625 499.714 404.538 499.736 404.454C499.759 404.37 499.799 404.292 499.852 404.224C499.906 404.156 499.973 404.1 500.05 404.058C500.126 404.017 500.21 403.991 500.296 403.983C500.382 403.975 500.469 403.985 500.552 404.011C500.634 404.038 500.711 404.081 500.776 404.137L507.149 409.17C507.282 409.276 507.368 409.431 507.388 409.6C507.408 409.769 507.36 409.939 507.256 410.073C507.196 410.15 507.119 410.212 507.032 410.254C506.944 410.296 506.848 410.318 506.751 410.317Z" fill="#E0E0E0"/>
<path d="M497.969 416.463C497.798 416.469 497.633 416.408 497.508 416.292C497.383 416.176 497.309 416.015 497.303 415.845C497.297 415.674 497.359 415.509 497.475 415.384C497.591 415.259 497.751 415.185 497.922 415.179L505.372 414.601C505.456 414.594 505.541 414.604 505.621 414.63C505.702 414.656 505.776 414.698 505.84 414.753C505.904 414.808 505.957 414.875 505.995 414.95C506.033 415.026 506.055 415.108 506.061 415.192C506.073 415.361 506.018 415.529 505.907 415.658C505.797 415.786 505.64 415.867 505.471 415.881L498.02 416.459L497.969 416.463Z" fill="#E0E0E0"/>
<path d="M600.089 404.869C599.943 403.288 599.709 401.716 599.387 400.161C598.413 396.514 597.116 392.96 595.509 389.544C594.795 388.179 593.181 386.189 592.039 384.507C590.421 382.131 589.283 380.8 588.054 379.187C585.35 375.648 584.203 375.442 581.044 375.335C580.616 376.461 579.641 381.074 582.803 384.802L589.582 391.949C589.967 392.569 594.11 399.652 594.799 402.267C594.918 402.732 594.86 403.225 594.636 403.649C594.095 404.848 593.697 406.106 593.451 407.398C593.25 408.305 592.711 409.024 592.895 409.166C593.122 409.318 593.394 409.388 593.667 409.367C593.939 409.345 594.196 409.232 594.397 409.046C594.881 408.527 595.275 407.931 595.565 407.283C595.692 407.274 595.82 407.293 595.94 407.336C596.06 407.38 596.169 407.448 596.261 407.536C596.353 407.624 596.426 407.73 596.475 407.848C596.524 407.966 596.548 408.092 596.545 408.22C596.584 408.746 596.344 409.478 596.16 410.39C596.126 410.569 596.083 410.775 596.002 411.271C595.931 411.606 595.891 411.947 595.882 412.29C596.738 412.448 597.632 411.926 599.07 410.578C600.367 409.32 600.452 407.668 600.089 404.869Z" fill="#FFA8A7"/>
<path d="M577.663 372.931C577.689 372.075 580.471 370.072 581.879 367.941C583.163 365.963 585.007 360.528 580.685 358.791C580.685 358.791 581.618 356.184 579.923 354.648C578.228 353.112 575.947 354.062 575.588 354.704C575.371 353.903 574.901 353.195 574.249 352.683C573.596 352.171 572.796 351.883 571.967 351.862C571.158 351.801 570.353 352.035 569.702 352.52C569.051 353.005 568.597 353.709 568.424 354.503C567.74 354.206 566.975 354.155 566.257 354.356C565.54 354.557 564.913 354.998 564.482 355.607C562.894 357.794 565 359.796 565 359.796C564.727 359.981 564.509 360.236 564.37 360.534C564.23 360.833 564.174 361.163 564.208 361.491C564.332 362.416 565.218 362.642 565.321 363.105C565.341 363.201 565.329 363.302 565.286 363.391C565.244 363.48 565.173 363.553 565.086 363.598C564.998 363.644 564.898 363.66 564.801 363.643C564.703 363.627 564.614 363.579 564.546 363.507C564.569 363.628 564.616 363.742 564.684 363.845C564.751 363.948 564.839 364.036 564.94 364.105C565.042 364.173 565.157 364.221 565.277 364.246C565.397 364.27 565.521 364.271 565.642 364.247C566.639 364.192 567.529 362.835 567.529 362.835L577.663 372.931Z" fill="#263238"/>
<path d="M568.59 358.517C567.306 359.073 566.095 361.029 566.112 366.499C566.112 371.133 567.55 372.306 568.252 372.653C568.954 372.999 570.371 372.82 571.736 372.61V375.276C571.736 375.276 569.267 378.34 571.479 379.864C577.18 378.867 577.616 375.126 577.616 375.126L577.719 369.315C577.719 369.315 578.502 370.136 579.859 368.929C580.997 367.932 581.408 366.225 580.552 365.283C579.696 364.342 578.6 364.269 577.607 365.317C577.607 365.317 575.789 365.437 573.054 363.721C570.319 362.005 569.344 360.263 568.59 358.517Z" fill="#FFA8A7"/>
<path d="M571.873 369.4C571.879 369.488 571.867 369.577 571.838 369.661C571.809 369.744 571.764 369.822 571.705 369.888C571.646 369.954 571.574 370.008 571.494 370.046C571.415 370.084 571.328 370.106 571.239 370.11C571.102 370.121 570.965 370.091 570.845 370.023C570.725 369.955 570.628 369.853 570.567 369.73C570.506 369.607 570.483 369.468 570.501 369.332C570.52 369.195 570.578 369.068 570.67 368.965C570.761 368.862 570.882 368.789 571.015 368.755C571.149 368.722 571.289 368.729 571.418 368.775C571.548 368.822 571.66 368.907 571.741 369.018C571.822 369.129 571.868 369.262 571.873 369.4Z" fill="#B16668"/>
<path d="M568.351 364.915C568.35 365.036 568.313 365.153 568.246 365.253C568.179 365.354 568.084 365.432 567.973 365.479C567.862 365.525 567.739 365.538 567.621 365.516C567.502 365.494 567.393 365.437 567.306 365.353C567.219 365.27 567.159 365.162 567.133 365.044C567.107 364.927 567.116 364.804 567.158 364.691C567.201 364.579 567.276 364.481 567.374 364.41C567.472 364.34 567.588 364.3 567.709 364.295C567.792 364.293 567.874 364.308 567.951 364.338C568.029 364.368 568.099 364.414 568.159 364.471C568.219 364.529 568.266 364.598 568.299 364.674C568.332 364.75 568.35 364.832 568.351 364.915Z" fill="#263238"/>
<path d="M573.088 365.198C573.094 365.286 573.082 365.375 573.053 365.458C573.024 365.542 572.979 365.619 572.92 365.685C572.861 365.752 572.79 365.805 572.71 365.844C572.63 365.882 572.543 365.904 572.455 365.908C572.276 365.909 572.103 365.84 571.975 365.715C571.847 365.59 571.773 365.419 571.77 365.24C571.767 365.154 571.781 365.068 571.812 364.987C571.842 364.905 571.889 364.831 571.948 364.768C572.007 364.705 572.078 364.654 572.157 364.618C572.236 364.583 572.321 364.563 572.408 364.56C572.494 364.557 572.58 364.571 572.661 364.602C572.742 364.632 572.817 364.679 572.88 364.738C572.943 364.797 572.994 364.868 573.03 364.947C573.065 365.026 573.085 365.111 573.088 365.198Z" fill="#263238"/>
<path d="M567.922 362.463L566.617 363.229C566.664 363.317 566.728 363.395 566.806 363.457C566.884 363.52 566.974 363.565 567.07 363.591C567.167 363.617 567.267 363.623 567.366 363.609C567.465 363.594 567.56 363.56 567.644 363.507C567.816 363.402 567.941 363.235 567.992 363.041C568.044 362.846 568.019 362.639 567.922 362.463Z" fill="#263238"/>
<path d="M577.633 364.564V367.132C577.468 367.136 577.305 367.107 577.152 367.045C576.999 366.984 576.86 366.892 576.745 366.775C576.629 366.658 576.538 366.518 576.478 366.365C576.418 366.211 576.39 366.047 576.396 365.883C576.398 365.547 576.526 365.225 576.755 364.98C576.985 364.736 577.298 364.587 577.633 364.564Z" fill="#263238"/>
<path d="M570.038 364.303L569.777 368L567.825 367.542L570.038 364.303Z" fill="#F28F8F"/>
<path d="M571.753 372.618C573.187 372.451 576.148 371.63 576.632 370.423C576.44 371.027 576.07 371.56 575.571 371.951C574.676 372.721 571.749 373.517 571.749 373.517L571.753 372.618Z" fill="#F28F8F"/>
<path d="M588.987 344.022C589.533 344.23 590.045 344.519 590.506 344.878C590.953 345.204 591.337 345.609 591.64 346.072C591.929 346.517 592.119 347.019 592.197 347.544C592.274 348.104 592.205 348.675 591.996 349.2C591.846 349.621 591.615 350.008 591.315 350.339C591.047 350.621 590.74 350.863 590.404 351.058C590.076 351.245 589.732 351.402 589.377 351.528L588.367 351.892C588.069 351.999 587.783 352.134 587.511 352.294C587.254 352.423 587.039 352.622 586.89 352.868C586.822 352.983 586.724 353.077 586.608 353.142C586.552 353.173 586.49 353.19 586.426 353.194C586.362 353.198 586.299 353.187 586.24 353.163L584.904 352.662C584.841 352.639 584.783 352.603 584.734 352.557C584.684 352.51 584.645 352.455 584.618 352.393C584.588 352.334 584.573 352.268 584.573 352.202C584.573 352.136 584.588 352.071 584.618 352.012C584.789 351.6 585.043 351.227 585.362 350.916C585.652 350.644 585.976 350.409 586.325 350.219C586.662 350.038 587.015 349.886 587.378 349.765C587.737 349.645 588.071 349.53 588.384 349.41C588.666 349.306 588.937 349.174 589.193 349.016C589.412 348.877 589.581 348.669 589.672 348.426C589.756 348.212 589.787 347.981 589.762 347.753C589.736 347.525 589.656 347.306 589.526 347.116C589.204 346.648 588.736 346.301 588.195 346.127C587.724 345.94 587.207 345.903 586.714 346.022C586.221 346.141 585.777 346.409 585.444 346.791C585.358 346.881 585.259 346.956 585.148 347.013C585.03 347.051 584.901 347.041 584.789 346.988L583.368 346.453C583.317 346.435 583.271 346.408 583.231 346.371C583.191 346.335 583.159 346.292 583.137 346.243C583.112 346.193 583.1 346.138 583.1 346.083C583.1 346.027 583.112 345.972 583.137 345.922C583.325 345.486 583.619 345.103 583.993 344.809C584.409 344.464 584.882 344.194 585.392 344.013C585.952 343.816 586.54 343.709 587.134 343.697C587.767 343.685 588.396 343.795 588.987 344.022ZM585.94 354.25C586.002 354.272 586.06 354.307 586.107 354.353C586.155 354.399 586.193 354.454 586.218 354.516C586.245 354.576 586.258 354.642 586.258 354.708C586.258 354.774 586.245 354.84 586.218 354.901L585.636 356.446C585.614 356.508 585.579 356.565 585.533 356.613C585.488 356.661 585.432 356.699 585.371 356.724C585.31 356.75 585.245 356.764 585.178 356.764C585.112 356.764 585.046 356.75 584.986 356.724L583.475 356.155C583.413 356.132 583.356 356.097 583.308 356.052C583.26 356.006 583.222 355.951 583.197 355.889C583.17 355.828 583.157 355.763 583.157 355.697C583.157 355.63 583.17 355.565 583.197 355.504L583.779 353.959C583.802 353.897 583.837 353.839 583.883 353.791C583.928 353.742 583.983 353.703 584.044 353.677C584.105 353.651 584.171 353.638 584.237 353.638C584.303 353.638 584.368 353.651 584.429 353.677L585.94 354.25Z" fill="#A37EA9"/>
<path d="M589.728 362.467C589.772 362.511 589.808 362.563 589.832 362.621C589.856 362.678 589.869 362.74 589.869 362.803C589.869 362.866 589.856 362.927 589.832 362.985C589.808 363.043 589.772 363.095 589.728 363.139L588.658 364.269C588.615 364.314 588.563 364.351 588.506 364.376C588.448 364.401 588.387 364.414 588.324 364.414C588.261 364.416 588.199 364.406 588.14 364.384C588.081 364.362 588.027 364.329 587.982 364.286L586.89 363.237C586.845 363.194 586.808 363.143 586.783 363.085C586.758 363.028 586.745 362.966 586.745 362.904C586.741 362.841 586.751 362.778 586.773 362.719C586.795 362.66 586.829 362.606 586.873 362.561L587.947 361.436C588.037 361.348 588.158 361.298 588.283 361.298C588.409 361.298 588.53 361.348 588.619 361.436L589.728 362.467ZM596.147 354.708C596.545 355.085 596.887 355.518 597.161 355.992C597.426 356.442 597.61 356.934 597.705 357.447C597.785 357.939 597.76 358.442 597.632 358.923C597.496 359.379 597.266 359.801 596.957 360.163C596.648 360.525 596.267 360.818 595.839 361.025C595.504 361.173 595.149 361.271 594.786 361.316C594.432 361.356 594.076 361.366 593.72 361.346L592.711 361.29C592.409 361.274 592.107 361.284 591.808 361.32C591.539 361.35 591.284 361.453 591.071 361.62C590.971 361.696 590.851 361.742 590.725 361.752C590.665 361.759 590.604 361.752 590.547 361.732C590.49 361.712 590.438 361.68 590.395 361.637L589.424 360.712C589.33 360.624 589.275 360.503 589.27 360.374C589.264 360.311 589.273 360.247 589.297 360.188C589.321 360.13 589.358 360.077 589.407 360.036C589.705 359.74 590.06 359.507 590.451 359.351C590.802 359.221 591.169 359.136 591.542 359.099C591.902 359.069 592.265 359.069 592.625 359.099C592.982 359.13 593.315 359.152 593.626 359.163C593.913 359.178 594.199 359.162 594.482 359.116C594.726 359.078 594.95 358.961 595.12 358.782C595.27 358.627 595.38 358.438 595.441 358.23C595.503 358.023 595.513 357.804 595.471 357.593C595.364 357.068 595.086 356.593 594.679 356.244C594.337 355.91 593.901 355.69 593.429 355.613C592.957 355.536 592.473 355.607 592.043 355.817C591.937 355.863 591.824 355.89 591.709 355.898C591.651 355.894 591.593 355.879 591.541 355.852C591.489 355.826 591.443 355.789 591.405 355.744L590.37 354.755C590.295 354.688 590.249 354.594 590.241 354.494C590.239 354.441 590.247 354.388 590.266 354.339C590.285 354.289 590.315 354.245 590.352 354.207C590.676 353.9 591.07 353.675 591.499 353.553C591.987 353.407 592.497 353.347 593.006 353.377C593.566 353.411 594.116 353.536 594.636 353.745C595.193 353.965 595.7 354.292 596.13 354.708H596.147Z" fill="#A37EA9"/>
<g opacity="0.6">
<path d="M589.727 362.467C589.771 362.511 589.807 362.563 589.831 362.621C589.855 362.678 589.868 362.74 589.868 362.803C589.868 362.866 589.855 362.927 589.831 362.985C589.807 363.043 589.771 363.095 589.727 363.139L588.657 364.269C588.614 364.314 588.562 364.351 588.505 364.376C588.447 364.401 588.386 364.414 588.323 364.414C588.26 364.416 588.198 364.406 588.139 364.384C588.08 364.362 588.026 364.329 587.981 364.286L586.889 363.237C586.844 363.194 586.807 363.143 586.782 363.085C586.757 363.028 586.744 362.966 586.744 362.904C586.741 362.841 586.75 362.778 586.772 362.719C586.794 362.66 586.828 362.606 586.872 362.561L587.946 361.436C588.036 361.348 588.157 361.298 588.282 361.298C588.408 361.298 588.529 361.348 588.618 361.436L589.727 362.467ZM596.146 354.708C596.544 355.085 596.886 355.518 597.16 355.992C597.425 356.442 597.609 356.934 597.704 357.447C597.784 357.939 597.759 358.442 597.631 358.923C597.495 359.379 597.265 359.801 596.956 360.163C596.647 360.525 596.266 360.818 595.838 361.025C595.503 361.173 595.148 361.271 594.785 361.316C594.431 361.356 594.075 361.366 593.72 361.346L592.71 361.29C592.408 361.274 592.106 361.284 591.807 361.32C591.538 361.35 591.283 361.453 591.07 361.62C590.97 361.696 590.85 361.742 590.724 361.752C590.664 361.759 590.603 361.752 590.546 361.732C590.489 361.712 590.437 361.68 590.394 361.637L589.423 360.712C589.329 360.624 589.274 360.503 589.269 360.374C589.263 360.311 589.272 360.247 589.296 360.188C589.32 360.13 589.357 360.077 589.406 360.036C589.704 359.74 590.059 359.507 590.45 359.351C590.801 359.221 591.168 359.136 591.541 359.099C591.902 359.069 592.264 359.069 592.624 359.099C592.981 359.13 593.314 359.152 593.625 359.163C593.912 359.178 594.198 359.162 594.481 359.116C594.725 359.078 594.949 358.961 595.119 358.782C595.269 358.627 595.379 358.438 595.44 358.23C595.502 358.023 595.512 357.804 595.47 357.593C595.363 357.068 595.085 356.593 594.678 356.244C594.336 355.91 593.9 355.69 593.428 355.613C592.956 355.536 592.472 355.607 592.042 355.817C591.936 355.863 591.823 355.89 591.708 355.898C591.65 355.894 591.592 355.879 591.54 355.852C591.488 355.826 591.442 355.789 591.404 355.744L590.369 354.755C590.294 354.688 590.248 354.594 590.24 354.494C590.238 354.441 590.246 354.388 590.265 354.339C590.284 354.289 590.314 354.245 590.351 354.207C590.675 353.9 591.069 353.675 591.498 353.553C591.986 353.407 592.496 353.347 593.005 353.377C593.565 353.411 594.115 353.536 594.635 353.745C595.192 353.965 595.699 354.292 596.129 354.708H596.146Z" fill="white"/>
</g>
<g opacity="0.35">
<g filter="url(#filter0_f_2804_13586)">
<ellipse cx="88.7983" cy="106.938" rx="88.7983" ry="106.938" transform="matrix(-5.26827e-08 1 1 3.62678e-08 215.966 379.07)" fill="url(#paint0_linear_2804_13586)"/>
</g>
<g filter="url(#filter1_f_2804_13586)">
<rect width="15.4565" height="21.7665" transform="matrix(-5.26827e-08 1 1 3.62678e-08 200.978 366.396)" fill="url(#paint1_linear_2804_13586)"/>
</g>
</g>
<g opacity="0.35">
<g filter="url(#filter2_f_2804_13586)">
<circle cx="489.463" cy="437.431" r="86.8624" fill="url(#paint2_linear_2804_13586)"/>
</g>
<g filter="url(#filter3_f_2804_13586)">
<rect x="447.727" y="430.863" width="83.4726" height="118.429" fill="url(#paint3_linear_2804_13586)"/>
</g>
</g>
<defs>
<filter id="filter0_f_2804_13586" x="15.9658" y="179.07" width="613.876" height="577.597" filterUnits="userSpaceOnUse" color-interpolation-filters="sRGB">
<feFlood flood-opacity="0" result="BackgroundImageFix"/>
<feBlend mode="normal" in="SourceGraphic" in2="BackgroundImageFix" result="shape"/>
<feGaussianBlur stdDeviation="100" result="effect1_foregroundBlur_2804_13586"/>
</filter>
<filter id="filter1_f_2804_13586" x="0.977539" y="166.396" width="421.767" height="415.457" filterUnits="userSpaceOnUse" color-interpolation-filters="sRGB">
<feFlood flood-opacity="0" result="BackgroundImageFix"/>
<feBlend mode="normal" in="SourceGraphic" in2="BackgroundImageFix" result="shape"/>
<feGaussianBlur stdDeviation="100" result="effect1_foregroundBlur_2804_13586"/>
</filter>
<filter id="filter2_f_2804_13586" x="52.6006" y="0.568359" width="873.725" height="873.725" filterUnits="userSpaceOnUse" color-interpolation-filters="sRGB">
<feFlood flood-opacity="0" result="BackgroundImageFix"/>
<feBlend mode="normal" in="SourceGraphic" in2="BackgroundImageFix" result="shape"/>
<feGaussianBlur stdDeviation="175" result="effect1_foregroundBlur_2804_13586"/>
</filter>
<filter id="filter3_f_2804_13586" x="247.727" y="230.863" width="483.473" height="518.429" filterUnits="userSpaceOnUse" color-interpolation-filters="sRGB">
<feFlood flood-opacity="0" result="BackgroundImageFix"/>
<feBlend mode="normal" in="SourceGraphic" in2="BackgroundImageFix" result="shape"/>
<feGaussianBlur stdDeviation="100" result="effect1_foregroundBlur_2804_13586"/>
</filter>
<linearGradient id="paint0_linear_2804_13586" x1="88.7983" y1="0" x2="88.7983" y2="213.876" gradientUnits="userSpaceOnUse">
<stop stop-color="#3D0F31"/>
<stop offset="1" stop-color="#C6863B"/>
</linearGradient>
<linearGradient id="paint1_linear_2804_13586" x1="7.72826" y1="0" x2="7.72826" y2="21.7665" gradientUnits="userSpaceOnUse">
<stop stop-color="#3D0F31"/>
<stop offset="1" stop-color="#6D1232"/>
</linearGradient>
<linearGradient id="paint2_linear_2804_13586" x1="489.463" y1="350.568" x2="489.463" y2="524.293" gradientUnits="userSpaceOnUse">
<stop stop-color="#00C2FF" stop-opacity="0"/>
<stop offset="1" stop-color="#FF29C3"/>
</linearGradient>
<linearGradient id="paint3_linear_2804_13586" x1="489.463" y1="430.863" x2="489.463" y2="549.293" gradientUnits="userSpaceOnUse">
<stop stop-color="#FF8F98"/>
<stop offset="1" stop-color="#7C52EE"/>
</linearGradient>
</defs>
</svg>
