<svg width="715" height="698" viewBox="0 0 715 698" fill="none" xmlns="http://www.w3.org/2000/svg">
<g opacity="0.1">
<path opacity="0.1" d="M10.3195 179C-39.4757 -1.44225 144.984 -19.8091 278.103 34.675C355.772 62.6954 406.778 -24.446 502.994 10.331C599.211 45.1081 483.867 154.656 631.09 210.879C778.313 267.102 706.44 518.655 577.765 521.553C449.09 524.451 484.447 566.764 355.772 663.56C227.097 760.356 10.3198 625.885 64.2241 483.878C118.128 341.872 64.2235 374.331 10.3195 179Z" stroke="white" stroke-width="3"/>
<path d="M287.259 319.428C281.513 302.242 308.424 274.516 330.063 286.349C349.878 297.184 370.057 289.876 383.388 294.707C418.484 307.424 405.574 314.155 421.263 329.258C440.354 347.637 449.464 395.763 405.574 395.763C369.477 395.763 380.278 413.295 353.248 421.063C326.218 428.831 295.564 415.608 295.564 380.794C295.564 367.721 296.828 348.052 287.259 319.428Z" stroke="white" stroke-width="3"/>
<path opacity="0.2" d="M35.4924 190.889C-10.2982 25.289 159.839 6.0714 282.823 56.678C355.233 83.1361 403.436 3.25233 492.118 35.307C582.778 68.0785 476.746 168.279 612.012 220.764C747.586 273.547 683.075 506.607 562.108 509.241C441.849 511.876 474.973 551.935 355.539 640.638C236.104 729.341 36.2477 605.892 85.2516 473.631C134.256 343.345 85.366 371.065 35.4924 190.889Z" stroke="white" stroke-width="3"/>
<path opacity="0.3" d="M60.665 202.78C18.8789 52.0207 174.693 31.9523 287.543 78.6815C354.693 103.577 400.094 30.9512 481.241 60.2834C566.344 91.0495 469.625 181.903 592.933 230.65C716.859 279.992 659.71 494.559 546.45 496.93C434.608 499.301 465.5 537.108 355.306 617.717C245.111 698.326 62.1752 585.9 106.279 463.383C150.382 344.82 106.508 367.8 60.665 202.78Z" stroke="white" stroke-width="3"/>
<path opacity="0.4" d="M85.8382 214.67C48.0566 78.7521 189.548 57.833 292.264 100.685C354.154 124.018 396.753 58.6497 470.364 85.2595C549.912 114.02 462.504 195.527 573.854 240.535C686.132 286.437 636.346 482.511 530.794 484.618C427.367 486.726 456.027 522.28 355.073 594.796C254.119 667.312 88.1034 565.908 127.307 453.136C166.51 346.293 127.651 364.535 85.8382 214.67Z" stroke="white" stroke-width="3"/>
<path opacity="0.5" d="M111.012 226.561C77.2345 105.485 204.404 83.7154 296.984 122.69C353.616 144.461 393.412 86.3501 459.488 110.237C533.479 136.993 455.384 209.153 554.776 250.423C655.406 292.884 612.981 470.464 515.137 472.308C420.127 474.153 446.554 507.454 354.841 571.876C263.128 636.299 114.032 545.917 148.335 442.89C182.637 347.769 148.794 361.272 111.012 226.561Z" stroke="white" stroke-width="3"/>
<path opacity="0.6" d="M136.185 239.056C106.412 132.821 219.259 110.2 301.705 145.297C353.077 165.506 390.07 114.653 448.612 135.818C517.046 160.568 448.263 223.381 535.698 260.913C624.679 299.934 589.617 459.02 499.48 460.601C412.886 462.182 437.081 493.23 354.608 549.559C272.135 605.888 139.96 526.529 169.362 433.247C198.765 349.847 169.937 358.611 136.185 239.056Z" stroke="white" stroke-width="3"/>
<path opacity="0.7" d="M161.359 252.262C135.591 160.869 234.115 137.398 306.426 168.617C352.539 187.264 386.73 143.668 437.736 162.111C500.614 184.855 441.144 238.321 516.621 272.115C593.953 307.695 566.253 448.288 483.824 449.606C405.646 450.923 427.609 479.719 354.377 527.954C281.144 576.19 165.889 507.854 190.391 424.316C214.893 352.637 191.08 356.662 161.359 252.262Z" stroke="white" stroke-width="3"/>
<path opacity="0.8" d="M186.534 265.509C164.77 188.957 248.971 164.635 311.149 191.977C352.001 209.061 383.39 172.723 426.861 188.443C484.183 209.182 434.025 253.301 497.544 283.357C563.228 315.497 542.89 437.597 468.169 438.651C398.407 439.704 418.137 466.248 354.146 506.39C290.154 546.532 191.819 489.218 211.42 415.425C231.022 355.467 212.225 354.754 186.534 265.509Z" stroke="white" stroke-width="3"/>
<path opacity="0.9" d="M211.709 278.813C193.95 217.102 263.829 191.929 315.871 215.394C351.465 230.916 380.051 201.835 415.987 214.833C467.752 233.566 426.906 268.338 478.468 294.656C532.504 323.356 519.527 426.962 452.514 427.753C391.169 428.543 408.666 452.833 353.915 484.882C299.164 516.93 217.749 470.64 232.45 406.592C247.151 358.355 233.369 352.902 211.709 278.813Z" stroke="white" stroke-width="3"/>
<path d="M236.886 292.199C223.132 245.33 278.688 219.306 320.596 238.894C350.93 252.853 376.713 231.031 405.115 241.306C451.324 258.034 419.79 283.459 459.394 306.038C501.782 331.298 496.167 416.41 436.862 416.937C383.932 417.464 399.198 439.502 353.687 463.457C308.176 487.412 243.681 452.144 253.482 397.841C263.283 361.325 254.516 351.133 236.886 292.199Z" stroke="white" stroke-width="3"/>
<path d="M262.068 305.714C252.318 273.687 293.551 246.812 325.325 262.522C350.399 274.92 373.38 260.354 394.246 267.907C434.899 282.63 412.677 298.708 440.324 317.549C471.063 339.368 472.811 405.988 421.213 406.251C376.7 406.514 389.733 426.299 353.462 442.161C317.192 458.023 269.618 433.777 274.518 389.219C279.418 364.424 275.667 349.494 262.068 305.714Z" stroke="white" stroke-width="3"/>
</g>
</svg>
