<svg width="1440" height="942" viewBox="0 0 1440 942" fill="none" xmlns="http://www.w3.org/2000/svg">
<g opacity="0.03">
<path d="M-354.921 690.983C-329.414 616.038 -218.32 468.226 22.008 476.54C322.418 486.931 510.41 713.655 793.815 770.336C1002.99 812.171 1526.89 806.234 1747 551.17" stroke="white" stroke-width="4"/>
<path d="M-371.008 572.625C-345.501 497.68 -234.407 349.869 5.92109 358.182C306.331 368.574 494.323 595.298 777.728 651.979C986.902 693.814 1510.8 687.877 1730.91 432.812" stroke="white" stroke-width="4"/>
<path d="M-402.218 457.328C-376.711 382.383 -265.616 234.571 -25.2889 242.884C275.121 253.276 463.113 480 746.518 536.681C955.692 578.516 1479.59 572.579 1699.7 317.514" stroke="white" stroke-width="4"/>
<path d="M-458.616 328.109C-433.11 253.164 -322.015 105.352 -81.6873 113.666C218.722 124.057 406.714 350.781 690.12 407.462C899.294 449.297 1423.19 443.36 1643.31 188.296" stroke="white" stroke-width="4"/>
<path d="M-503.45 217.396C-477.944 142.451 -366.849 -5.36057 -126.521 2.95264C173.888 13.3441 361.88 240.068 645.286 296.749C854.46 338.584 1378.36 332.647 1598.47 77.5826" stroke="white" stroke-width="4"/>
</g>
</svg>
