<svg width="24" height="24" viewBox="0 0 24 24" fill="none" xmlns="http://www.w3.org/2000/svg">
<path d="M12 24C18.6274 24 24 18.6274 24 12C24 5.37258 18.6274 -2.89694e-07 12 0C5.37258 2.89694e-07 0 5.37258 0 12C0 18.6274 5.37258 24 12 24Z" fill="#F0F0F0"/>
<path d="M23.2536 16.1739C23.736 14.8739 24 13.4678 24 12C24 10.5322 23.736 9.12609 23.2536 7.82611L0.746391 7.82611C0.264048 9.12609 0 10.5322 0 12C0 13.4678 0.264048 14.8739 0.746391 16.1739L12 17.2174L23.2536 16.1739Z" fill="#0052B4"/>
<path d="M12 24C17.1596 24 21.5581 20.7435 23.2536 16.1739L0.746391 16.1739C2.44191 20.7435 6.84042 24 12 24Z" fill="#D80027"/>
</svg>
