<svg width="24" height="24" viewBox="0 0 24 24" fill="none" xmlns="http://www.w3.org/2000/svg">
    <path
        d="M12 24C18.6274 24 24 18.6274 24 12C24 5.37258 18.6274 0 12 0C5.37258 0 0 5.37258 0 12C0 18.6274 5.37258 24 12 24Z"
        fill="#D80027" />
    <path
        d="M11.5087 9.80554L12.4933 11.1623L14.0879 10.6453L13.1017 12.0009L14.0862 13.3577L12.4922 12.8387L11.5061 14.1943L11.5071 12.518L9.91309 11.999L11.5077 11.482L11.5087 9.80554Z"
        fill="#F0F0F0" />
    <path
        d="M8.8215 15.3913C6.94856 15.3913 5.43018 13.8729 5.43018 12C5.43018 10.127 6.94856 8.60867 8.8215 8.60867C9.40547 8.60867 9.95493 8.75638 10.4347 9.0163C9.68207 8.28027 8.65284 7.82605 7.51715 7.82605C5.21193 7.82605 3.34326 9.69477 3.34326 11.9999C3.34326 14.3051 5.21198 16.1738 7.51715 16.1738C8.65293 16.1738 9.68212 15.7196 10.4347 14.9836C9.95493 15.2436 9.40547 15.3913 8.8215 15.3913Z"
        fill="#F0F0F0" />
</svg>