<svg width="200" height="50" viewBox="0 0 200 50" fill="none" xmlns="http://www.w3.org/2000/svg">
<g clip-path="url(#clip0_1771_11269)">
<path d="M52.5592 17.8027H72.8099V21.5639H64.8473V42.7074H60.4688V21.5639H52.5415V17.8027H52.5592ZM71.9448 24.6748H75.6877V28.1548H75.7583C75.8819 27.6627 76.1114 27.1881 76.4469 26.7312C76.7823 26.2742 77.1884 25.8348 77.6651 25.4657C78.1418 25.079 78.6714 24.7803 79.2541 24.5342C79.8367 24.3057 80.437 24.1827 81.0373 24.1827C81.4963 24.1827 81.8318 24.2003 82.0083 24.2178C82.1849 24.2354 82.3614 24.2706 82.5556 24.2881V28.1196C82.2731 28.0669 81.9907 28.0317 81.6905 27.9966C81.3904 27.9614 81.1079 27.9439 80.8254 27.9439C80.1545 27.9439 79.5189 28.0845 78.9186 28.3481C78.3183 28.6117 77.8063 29.016 77.365 29.5257C76.9236 30.0529 76.5705 30.6857 76.3056 31.459C76.0408 32.2323 75.9172 33.1111 75.9172 34.1129V42.6898H71.9271V24.6748H71.9448ZM100.9 42.7074H96.9801V40.1941H96.9094C96.4151 41.108 95.6912 41.8286 94.7202 42.3735C93.7491 42.9183 92.7604 43.1995 91.7541 43.1995C89.3706 43.1995 87.6404 42.6195 86.581 41.442C85.5217 40.2644 84.9921 38.4892 84.9921 36.1165V24.6748H88.9822V35.7299C88.9822 37.3117 89.2823 38.4365 89.9003 39.0868C90.5005 39.7371 91.3657 40.0711 92.4603 40.0711C93.3077 40.0711 93.9963 39.948 94.5613 39.6844C95.1262 39.4208 95.5853 39.0868 95.9207 38.6474C96.2738 38.2256 96.521 37.6983 96.6799 37.1008C96.8388 36.5032 96.9094 35.8529 96.9094 35.1499V24.6924H100.9V42.7074ZM107.697 36.925C107.82 38.085 108.262 38.8935 109.021 39.368C109.798 39.825 110.716 40.0711 111.793 40.0711C112.164 40.0711 112.587 40.0359 113.064 39.9832C113.541 39.9304 114 39.8074 114.406 39.6492C114.83 39.4911 115.165 39.245 115.448 38.9286C115.712 38.6123 115.836 38.208 115.818 37.6983C115.801 37.1887 115.606 36.7668 115.253 36.4505C114.9 36.1165 114.459 35.8705 113.912 35.6596C113.364 35.4662 112.746 35.2905 112.04 35.1499C111.334 35.0093 110.628 34.8511 109.904 34.6929C109.162 34.5347 108.438 34.3238 107.75 34.0953C107.061 33.8669 106.443 33.5505 105.896 33.1463C105.349 32.7596 104.907 32.2499 104.59 31.6348C104.254 31.0196 104.095 30.2639 104.095 29.3499C104.095 28.3657 104.342 27.5572 104.819 26.8893C105.296 26.2215 105.914 25.6942 106.638 25.29C107.379 24.8857 108.191 24.6045 109.092 24.4287C109.992 24.2706 110.857 24.1827 111.669 24.1827C112.605 24.1827 113.505 24.2881 114.353 24.4815C115.2 24.6748 115.977 24.9912 116.666 25.4481C117.354 25.8875 117.919 26.4675 118.378 27.1705C118.837 27.8736 119.12 28.7348 119.243 29.7366H115.077C114.883 28.7875 114.459 28.1372 113.77 27.8208C113.082 27.4869 112.287 27.3287 111.404 27.3287C111.122 27.3287 110.787 27.3463 110.398 27.399C110.01 27.4518 109.657 27.5396 109.304 27.6627C108.968 27.7857 108.686 27.979 108.438 28.2251C108.209 28.4711 108.085 28.7875 108.085 29.1917C108.085 29.6839 108.262 30.0705 108.597 30.3693C108.933 30.6681 109.374 30.9142 109.921 31.1251C110.469 31.3184 111.087 31.4941 111.793 31.6348C112.499 31.7754 113.223 31.9335 113.965 32.0917C114.688 32.2499 115.395 32.4608 116.101 32.6893C116.807 32.9178 117.425 33.2341 117.972 33.6384C118.52 34.0426 118.961 34.5347 119.296 35.1323C119.632 35.7299 119.808 36.4856 119.808 37.3644C119.808 38.4365 119.561 39.3329 119.067 40.0886C118.573 40.8268 117.937 41.442 117.16 41.8989C116.383 42.3559 115.501 42.7074 114.547 42.9183C113.594 43.1292 112.64 43.2347 111.705 43.2347C110.557 43.2347 109.498 43.1116 108.527 42.848C107.556 42.5844 106.708 42.1977 106.002 41.688C105.296 41.1607 104.731 40.5104 104.325 39.7371C103.919 38.9638 103.707 38.0323 103.671 36.9602H107.697V36.925ZM120.868 24.6748H123.887V19.2615H127.877V24.6748H131.479V27.6451H127.877V37.2765C127.877 37.6983 127.895 38.0499 127.93 38.3662C127.965 38.665 128.054 38.9286 128.177 39.1395C128.301 39.3505 128.495 39.5086 128.76 39.6141C129.025 39.7195 129.36 39.7723 129.819 39.7723C130.102 39.7723 130.384 39.7723 130.666 39.7547C130.949 39.7371 131.231 39.702 131.514 39.6317V42.7074C131.073 42.7601 130.631 42.7953 130.225 42.848C129.801 42.9007 129.378 42.9183 128.936 42.9183C127.877 42.9183 127.03 42.8129 126.394 42.6195C125.758 42.4262 125.246 42.1274 124.893 41.7407C124.522 41.3541 124.293 40.8795 124.152 40.2995C124.028 39.7195 123.94 39.0517 123.922 38.3135V27.6802H120.903V24.6748H120.868ZM134.304 24.6748H138.082V27.1178H138.152C138.717 26.0633 139.494 25.3251 140.501 24.8681C141.507 24.4112 142.584 24.1827 143.767 24.1827C145.197 24.1827 146.433 24.4287 147.492 24.9384C148.551 25.4306 149.434 26.116 150.14 26.9948C150.847 27.8736 151.359 28.893 151.712 30.0529C152.065 31.2129 152.241 32.4608 152.241 33.779C152.241 34.9917 152.082 36.1693 151.765 37.2941C151.447 38.4365 150.97 39.4383 150.335 40.3171C149.699 41.1959 148.887 41.8813 147.898 42.4086C146.909 42.9359 145.762 43.1995 144.42 43.1995C143.837 43.1995 143.255 43.1468 142.672 43.0413C142.09 42.9359 141.525 42.7601 140.995 42.5316C140.465 42.3032 139.953 42.0044 139.512 41.6353C139.053 41.2662 138.682 40.8444 138.364 40.3698H138.294V49.3686H134.304V24.6748ZM148.251 33.7087C148.251 32.9002 148.145 32.1093 147.933 31.336C147.722 30.5626 147.404 29.8948 146.98 29.2972C146.556 28.6996 146.027 28.2251 145.409 27.8736C144.773 27.5221 144.049 27.3287 143.237 27.3287C141.56 27.3287 140.289 27.9087 139.441 29.0687C138.594 30.2287 138.17 31.7754 138.17 33.7087C138.17 34.6226 138.276 35.4662 138.505 36.2396C138.735 37.0129 139.053 37.6808 139.512 38.2432C139.953 38.8056 140.483 39.245 141.101 39.5614C141.719 39.8953 142.443 40.0535 143.255 40.0535C144.173 40.0535 144.932 39.8601 145.568 39.4911C146.203 39.122 146.715 38.6299 147.121 38.0499C147.527 37.4523 147.828 36.7844 148.004 36.0287C148.163 35.2729 148.251 34.4996 148.251 33.7087ZM155.296 17.8027H159.286V21.5639H155.296V17.8027ZM155.296 24.6748H159.286V42.7074H155.296V24.6748ZM162.852 17.8027H166.842V42.7074H162.852V17.8027ZM179.078 43.1995C177.63 43.1995 176.341 42.9535 175.211 42.4789C174.081 42.0044 173.128 41.3365 172.333 40.5104C171.556 39.6668 170.956 38.665 170.55 37.505C170.144 36.345 169.932 35.062 169.932 33.6735C169.932 32.3026 170.144 31.0372 170.55 29.8772C170.956 28.7172 171.556 27.7154 172.333 26.8718C173.11 26.0281 174.081 25.3778 175.211 24.9033C176.341 24.4287 177.63 24.1827 179.078 24.1827C180.525 24.1827 181.814 24.4287 182.944 24.9033C184.074 25.3778 185.027 26.0457 185.822 26.8718C186.599 27.7154 187.199 28.7172 187.605 29.8772C188.011 31.0372 188.223 32.3026 188.223 33.6735C188.223 35.062 188.011 36.345 187.605 37.505C187.199 38.665 186.599 39.6668 185.822 40.5104C185.045 41.3541 184.074 42.0044 182.944 42.4789C181.814 42.9535 180.525 43.1995 179.078 43.1995ZM179.078 40.0535C179.96 40.0535 180.737 39.8601 181.39 39.4911C182.044 39.122 182.573 38.6299 182.997 38.0323C183.421 37.4347 183.721 36.7493 183.933 35.9935C184.127 35.2378 184.233 34.4644 184.233 33.6735C184.233 32.9002 184.127 32.1444 183.933 31.3711C183.739 30.5978 183.421 29.9299 182.997 29.3323C182.573 28.7348 182.044 28.2602 181.39 27.8911C180.737 27.5221 179.96 27.3287 179.078 27.3287C178.195 27.3287 177.418 27.5221 176.765 27.8911C176.111 28.2602 175.582 28.7523 175.158 29.3323C174.734 29.9299 174.434 30.5978 174.222 31.3711C174.028 32.1444 173.922 32.9002 173.922 33.6735C173.922 34.4644 174.028 35.2378 174.222 35.9935C174.416 36.7493 174.734 37.4347 175.158 38.0323C175.582 38.6299 176.111 39.122 176.765 39.4911C177.418 39.8777 178.195 40.0535 179.078 40.0535ZM189.388 24.6748H192.407V19.2615H196.397V24.6748H199.999V27.6451H196.397V37.2765C196.397 37.6983 196.415 38.0499 196.45 38.3662C196.486 38.665 196.574 38.9286 196.698 39.1395C196.821 39.3505 197.015 39.5086 197.28 39.6141C197.545 39.7195 197.88 39.7723 198.34 39.7723C198.622 39.7723 198.904 39.7723 199.187 39.7547C199.469 39.7371 199.752 39.702 200.034 39.6317V42.7074C199.593 42.7601 199.152 42.7953 198.746 42.848C198.322 42.9007 197.898 42.9183 197.457 42.9183C196.397 42.9183 195.55 42.8129 194.914 42.6195C194.279 42.4262 193.767 42.1274 193.414 41.7407C193.043 41.3541 192.813 40.8795 192.672 40.2995C192.549 39.7195 192.46 39.0517 192.443 38.3135V27.6802H189.424V24.6748H189.388Z" fill="white"/>
<path d="M47.8985 17.8032H29.6076L23.9578 0.473633L18.2905 17.8032L-0.000488281 17.7856L14.8124 28.5068L9.14499 45.8188L23.9578 35.1152L38.753 45.8188L33.1033 28.5068L47.8985 17.8032Z" fill="#00B67A"/>
<path d="M34.3742 32.4252L33.103 28.5059L23.9575 35.1143L34.3742 32.4252Z" fill="#005128"/>
</g>
<defs>
<clipPath id="clip0_1771_11269">
<rect width="200" height="48.8954" fill="white" transform="translate(-0.000488281 0.473633)"/>
</clipPath>
</defs>
</svg>
